<?xml version="1.0" encoding="UTF-8"?>
<svg version="1.1" xmlns="http://www.w3.org/2000/svg" width="290" height="114">
<path d="M0 0 C2.375 -0.125 2.375 -0.125 5 0 C7 2 7 2 7.3125 5.4375 C7.20306437 10.83964088 5.5837311 15.87172788 4 21 C7.3 21 10.6 21 14 21 C13.7834375 20.29875 13.566875 19.5975 13.34375 18.875 C11.6380482 13.06297905 10.44903115 8.06065739 11 2 C13 0 13 0 15.625 -0.125 C16.40875 -0.08375 17.1925 -0.0425 18 0 C19.84114389 3.68228779 19.92717315 7.98566037 20.5 12.03125 C20.83750116 14.91871431 20.83750116 14.91871431 22 17 C27.28608833 16.34854545 29.84880881 13.84595554 33.71875 10.3984375 C36 9 36 9 38.78125 9.2890625 C39.5134375 9.52367187 40.245625 9.75828125 41 10 C41.75 11.6875 41.75 11.6875 42 14 C39.29757919 18.00166158 36.35057801 20.32286335 32.25 22.8125 C31.26515625 23.41707031 30.2803125 24.02164062 29.265625 24.64453125 C28.51796875 25.09183594 27.7703125 25.53914063 27 26 C30.17539556 29.42578949 30.17539556 29.42578949 34 32 C34.70576172 30.86111328 34.70576172 30.86111328 35.42578125 29.69921875 C36.04839844 28.70535156 36.67101562 27.71148437 37.3125 26.6875 C37.92738281 25.70136719 38.54226562 24.71523438 39.17578125 23.69921875 C40.67394969 21.48244275 41.9299936 19.67518229 44 18 C46.625 17.75 46.625 17.75 49 18 C50 19 50 19 50.4375 21.125 C49.86992761 24.85476144 48.21654158 26.34341758 45.60546875 28.9609375 C43.39547495 31.76779094 42.31831363 34.68244199 41 38 C42.12019531 38.10957031 43.24039063 38.21914063 44.39453125 38.33203125 C45.86726222 38.49149893 47.33991465 38.65169317 48.8125 38.8125 C49.55048828 38.88275391 50.28847656 38.95300781 51.04882812 39.02539062 C56.54974762 39.64766659 56.54974762 39.64766659 59.01171875 41.57421875 C59.33785156 42.04472656 59.66398437 42.51523437 60 43 C59.34 44.65 58.68 46.3 58 48 C50.91923749 48.40850553 44.80074041 46.90420731 38 45 C38.495 49.95 38.495 49.95 39 55 C39.763125 54.690625 40.52625 54.38125 41.3125 54.0625 C46.96915092 52.43261753 53.32115093 51.10705031 59 53 C59.625 55.375 59.625 55.375 60 58 C57.7766119 60.2233881 57.07694479 60.3605016 54.0859375 60.8515625 C53.32539062 60.98046875 52.56484375 61.109375 51.78125 61.2421875 C50.9871875 61.36851563 50.193125 61.49484375 49.375 61.625 C48.57320313 61.7590625 47.77140625 61.893125 46.9453125 62.03125 C44.96472516 62.36134789 42.98250325 62.68161083 41 63 C42.95108064 67.19121026 44.64729176 70.80125766 47.8125 74.1875 C50 77 50 77 49.8125 79.875 C49.544375 80.57625 49.27625 81.2775 49 82 C47.21875 82.6875 47.21875 82.6875 45 83 C39.9166948 79.61112987 36.72132649 74.33379992 34 69 C30.59937986 70.40715316 29.10770302 72.02868228 27 75 C27.66386719 75.36351563 28.32773438 75.72703125 29.01171875 76.1015625 C34.43396216 79.18867919 38.36510631 81.91114883 42 87 C41.01 88.98 41.01 88.98 40 91 C37.9375 91.375 37.9375 91.375 35 91 C33.14113148 89.59936419 31.48521243 88.05313612 29.78125 86.46875 C27.39806269 84.50366573 24.97457655 83.72550647 22 83 C20.48702009 87.7406704 19.68571982 92.11491967 19.34375 97.08203125 C19 99 19 99 17 101 C12.44444444 100.44444444 12.44444444 100.44444444 11 99 C10.46750933 91.94449861 12.10462904 85.76918199 14 79 C9.545 79.495 9.545 79.495 5 80 C5.15597656 80.85722656 5.31195313 81.71445313 5.47265625 82.59765625 C7.4059754 93.9543058 7.4059754 93.9543058 6 100 C3.625 100.625 3.625 100.625 1 101 C-1.35953094 98.64046906 -1.49141413 97.22104383 -2 94 C-2.556875 94.515625 -3.11375 95.03125 -3.6875 95.5625 C-6 97 -6 97 -8.625 96.8125 C-11 96 -11 96 -13 94 C-12.67028521 90.70285207 -12.3773161 89.3773161 -10 87 C-7.5 86.75 -7.5 86.75 -5 87 C-4.01 87.99 -4.01 87.99 -3 89 C-3.33 87.02 -3.66 85.04 -4 83 C-8.11106383 84.02776596 -10.82981928 85.54369471 -14.0625 88.1875 C-17.62992428 91.01541982 -17.62992428 91.01541982 -21 90.875 C-21.66 90.58625 -22.32 90.2975 -23 90 C-23.33 88.68 -23.66 87.36 -24 86 C-22.60886005 84.72403068 -21.21185587 83.45445352 -19.8125 82.1875 C-19.03519531 81.47980469 -18.25789063 80.77210937 -17.45703125 80.04296875 C-15.08015085 78.06664371 -12.68921134 76.51417406 -10 75 C-11.39159663 71.52100842 -12.63251488 70.51947499 -16 69 C-16.61488281 70.0828125 -16.61488281 70.0828125 -17.2421875 71.1875 C-17.78101562 72.115625 -18.31984375 73.04375 -18.875 74 C-19.40867187 74.928125 -19.94234375 75.85625 -20.4921875 76.8125 C-21.23855469 77.8953125 -21.23855469 77.8953125 -22 79 C-22.66 79 -23.32 79 -24 79 C-24.33 79.99 -24.66 80.98 -25 82 C-29.75 83.125 -29.75 83.125 -32 82 C-32.3125 79.3125 -32.3125 79.3125 -32 76 C-30.37897032 74.28891311 -28.70496537 72.62746694 -27 71 C-25.48562208 68.41152656 -24.21676816 65.73942775 -23 63 C-24.06927734 62.81824219 -24.06927734 62.81824219 -25.16015625 62.6328125 C-30.55234841 61.68936031 -35.77235672 60.62637791 -41 59 C-42.125 55.25 -42.125 55.25 -41 53 C-27.3667426 52.81548975 -27.3667426 52.81548975 -21 54 C-21 51.36 -21 48.72 -21 46 C-21.70125 46.144375 -22.4025 46.28875 -23.125 46.4375 C-28.84610669 47.55684696 -34.1692394 48.42405532 -40 48 C-40.66 47.34 -41.32 46.68 -42 46 C-41.625 43.375 -41.625 43.375 -41 41 C-35.01314152 39.73638028 -29.08233706 38.67581523 -23 38 C-25.74660925 32.08422624 -28.93467666 27.09520525 -33 22 C-32.01 20.35 -31.02 18.7 -30 17 C-24.73209822 18.39444459 -22.0727022 21.73530126 -19 26 C-17.125 29.4375 -17.125 29.4375 -16 32 C-14.05000871 31.80528889 -14.05000871 31.80528889 -12 31 C-10.61504198 28.85331506 -10 27.56128588 -10 25 C-12.69101045 23.14507599 -15.49056293 21.51932605 -18.30078125 19.8515625 C-20.88959714 18.07573221 -22.4184229 16.6908777 -24 14 C-23.6875 11.75 -23.6875 11.75 -23 10 C-20.78125 9.2890625 -20.78125 9.2890625 -18 9 C-15.71875 10.3984375 -15.71875 10.3984375 -13.5 12.375 C-10.3296192 15.17699148 -8.2340683 16.47819581 -4 17 C-2.31673547 12.62351222 -1.6321495 8.58579397 -1.24609375 3.953125 C-1 2 -1 2 0 0 Z M-5.4375 31.75 C-5.84871094 32.44609375 -6.25992188 33.1421875 -6.68359375 33.859375 C-8 36 -8 36 -10.62109375 37.67578125 C-13.28135413 40.27488622 -13.39240283 40.83181914 -13.6640625 44.37109375 C-13.67730799 46.05989409 -13.66340217 47.74908438 -13.625 49.4375 C-13.64433594 50.28376953 -13.66367187 51.13003906 -13.68359375 52.00195312 C-13.64904207 56.4142022 -13.53965666 58.35843773 -10.62109375 61.828125 C-9.75613281 62.54484375 -8.89117187 63.2615625 -8 64 C-7.56558594 64.73863281 -7.13117187 65.47726563 -6.68359375 66.23828125 C-5.02885237 68.99272536 -3.76881781 70.30480542 -1 72 C5.45276605 73.51103497 12.55671929 73.57916573 19 72 C22.77669719 69.52232615 24.61618397 66.75062358 27 63 C28.05960938 62.41412109 28.05960938 62.41412109 29.140625 61.81640625 C31.86765019 59.15240055 31.63480877 56.68667604 31.75878906 52.97875977 C31.75588867 52.07826904 31.75298828 51.17777832 31.75 50.25 C31.74967773 49.33855225 31.74935547 48.42710449 31.74902344 47.48803711 C31.61089852 43.47550818 31.46815985 40.76296806 29.34375 37.30078125 C27.32633761 35.53235906 27.32633761 35.53235906 25.140625 34.31640625 C23 33 23 33 21.34765625 30.390625 C18.25110429 27.23739739 16.18940278 27.28138071 11.89086914 27.15332031 C10.55270142 27.17023926 10.55270142 27.17023926 9.1875 27.1875 C8.28056396 27.19233398 7.37362793 27.19716797 6.43920898 27.20214844 C1.36525399 27.40357286 -2.01284391 27.64194841 -5.4375 31.75 Z " fill="#818CAA" transform="translate(49,7)"/>
<path d="M0 0 C1 1 1 1 1.4375 3.125 C0.86992761 6.85476144 -0.78345842 8.34341758 -3.39453125 10.9609375 C-5.60452505 13.76779094 -6.68168637 16.68244199 -8 20 C-6.31970703 20.16435547 -6.31970703 20.16435547 -4.60546875 20.33203125 C-3.13273778 20.49149893 -1.66008535 20.65169317 -0.1875 20.8125 C0.55048828 20.88275391 1.28847656 20.95300781 2.04882812 21.02539062 C7.54974762 21.64766659 7.54974762 21.64766659 10.01171875 23.57421875 C10.33785156 24.04472656 10.66398437 24.51523437 11 25 C10.34 26.65 9.68 28.3 9 30 C1.91923749 30.40850553 -4.19925959 28.90420731 -11 27 C-10.505 31.95 -10.505 31.95 -10 37 C-9.236875 36.690625 -8.47375 36.38125 -7.6875 36.0625 C-2.03084908 34.43261753 4.32115093 33.10705031 10 35 C10.625 37.375 10.625 37.375 11 40 C8.7766119 42.2233881 8.07694479 42.3605016 5.0859375 42.8515625 C4.32539062 42.98046875 3.56484375 43.109375 2.78125 43.2421875 C1.9871875 43.36851563 1.193125 43.49484375 0.375 43.625 C-0.42679687 43.7590625 -1.22859375 43.893125 -2.0546875 44.03125 C-4.03527484 44.36134789 -6.01749675 44.68161083 -8 45 C-6.04891936 49.19121026 -4.35270824 52.80125766 -1.1875 56.1875 C1 59 1 59 0.8125 61.875 C0.544375 62.57625 0.27625 63.2775 0 64 C-1.78125 64.6875 -1.78125 64.6875 -4 65 C-9.0833052 61.61112987 -12.27867351 56.33379992 -15 51 C-18.40062014 52.40715316 -19.89229698 54.02868228 -22 57 C-21.33613281 57.36351562 -20.67226562 57.72703125 -19.98828125 58.1015625 C-14.56603784 61.18867919 -10.63489369 63.91114883 -7 69 C-7.99 70.98 -7.99 70.98 -9 73 C-11.0625 73.375 -11.0625 73.375 -14 73 C-15.85886852 71.59936419 -17.51478757 70.05313612 -19.21875 68.46875 C-21.60193731 66.50366573 -24.02542345 65.72550647 -27 65 C-28.51297991 69.7406704 -29.31428018 74.11491967 -29.65625 79.08203125 C-30 81 -30 81 -32 83 C-36.55555556 82.44444444 -36.55555556 82.44444444 -38 81 C-38.53249067 73.94449861 -36.89537096 67.76918199 -35 61 C-39.455 61.495 -39.455 61.495 -44 62 C-43.84402344 62.85722656 -43.68804687 63.71445313 -43.52734375 64.59765625 C-41.5940246 75.9543058 -41.5940246 75.9543058 -43 82 C-45.375 82.625 -45.375 82.625 -48 83 C-50.35953094 80.64046906 -50.49141413 79.22104383 -51 76 C-51.556875 76.515625 -52.11375 77.03125 -52.6875 77.5625 C-55 79 -55 79 -57.625 78.8125 C-60 78 -60 78 -62 76 C-61.67028521 72.70285207 -61.3773161 71.3773161 -59 69 C-56.5 68.75 -56.5 68.75 -54 69 C-53.34 69.66 -52.68 70.32 -52 71 C-52.33 69.02 -52.66 67.04 -53 65 C-57.11106383 66.02776596 -59.82981928 67.54369471 -63.0625 70.1875 C-66.62992428 73.01541982 -66.62992428 73.01541982 -70 72.875 C-70.66 72.58625 -71.32 72.2975 -72 72 C-72.33 70.68 -72.66 69.36 -73 68 C-71.56458334 66.70601853 -70.12658648 65.41489889 -68.6875 64.125 C-67.88699219 63.40570313 -67.08648437 62.68640625 -66.26171875 61.9453125 C-63.47490522 59.54836408 -61.68340326 58.09966298 -58 57.5625 C-57.01 57.706875 -56.02 57.85125 -55 58 C-53.25 60.4375 -53.25 60.4375 -52 63 C-51.34 63.33 -50.68 63.66 -50 64 C-50 66.31 -50 68.62 -50 71 C-49.34 71 -48.68 71 -48 71 C-48 73.97 -48 76.94 -48 80 C-47.01 80 -46.02 80 -45 80 C-45.11478413 77.93690624 -45.24226198 75.87451646 -45.375 73.8125 C-45.47941406 72.08966797 -45.47941406 72.08966797 -45.5859375 70.33203125 C-46.26611525 64.85852543 -48.70359646 60.55483764 -51.29296875 55.76953125 C-51.52628906 55.18558594 -51.75960937 54.60164063 -52 54 C-51.67 53.34 -51.34 52.68 -51 52 C-50.505 52.495 -50.505 52.495 -50 53 C-42.70289222 54.02638488 -33.35406186 55.16616495 -27 51.0625 C-25.08499187 48.79930858 -23.55714512 46.51503906 -22 44 C-21.01 43.34 -20.02 42.68 -19 42 C-18.67185042 38.84703948 -18.67185042 38.84703948 -18.875 35.25 C-19.02156374 30.65766952 -18.89976877 26.51268644 -18 22 C-18.66 21.67 -19.32 21.34 -20 21 C-18.68 21 -17.36 21 -16 21 C-17.30155006 16.92035719 -17.30155006 16.92035719 -19 13 C-17.68 13.33 -16.36 13.66 -15 14 C-14.52949219 13.24074219 -14.05898437 12.48148438 -13.57421875 11.69921875 C-12.95160156 10.70535156 -12.32898438 9.71148437 -11.6875 8.6875 C-11.07261719 7.70136719 -10.45773438 6.71523438 -9.82421875 5.69921875 C-6.84739419 1.29453829 -5.5140865 -0.58043016 0 0 Z " fill="#F1AA79" transform="translate(98,25)"/>
<path d="M0 0 C0.66 0 1.32 0 2 0 C3.02904265 4.1161706 2.95026926 7.77613929 2.75 12 C2.61591006 17.46796835 2.61591006 17.46796835 5.25 22.125 C6.1575 22.74375 7.065 23.3625 8 24 C11.38172655 26.92823832 12.76443897 29.3832509 14.125 33.625 C15.38950046 37.71457219 15.38950046 37.71457219 18 41 C19.28568472 44.5255254 19.09965554 48.03444563 19.0625 51.75 C19.05347656 52.92046875 19.04445312 54.0909375 19.03515625 55.296875 C19.02355469 56.18890625 19.01195312 57.0809375 19 58 C18.01 58 17.02 58 16 58 C16 55.03 16 52.06 16 49 C15.34 49 14.68 49 14 49 C14 46.69 14 44.38 14 42 C13.01 41.67 12.02 41.34 11 41 C10.690625 40.360625 10.38125 39.72125 10.0625 39.0625 C9.17518809 36.84162796 9.17518809 36.84162796 7 36 C4.47154472 34.73577236 4.23577236 33.47154472 3 31 C0.98330173 29.86649466 0.98330173 29.86649466 -1 29 C-1.40992187 29.721875 -1.81984375 30.44375 -2.2421875 31.1875 C-2.78101562 32.115625 -3.31984375 33.04375 -3.875 34 C-4.40867187 34.928125 -4.94234375 35.85625 -5.4921875 36.8125 C-5.98976563 37.534375 -6.48734375 38.25625 -7 39 C-7.66 39 -8.32 39 -9 39 C-9.33 39.99 -9.66 40.98 -10 42 C-14.75 43.125 -14.75 43.125 -17 42 C-17.3125 39.3125 -17.3125 39.3125 -17 36 C-15.37897032 34.28891311 -13.70496537 32.62746694 -12 31 C-10.48562208 28.41152656 -9.21676816 25.73942775 -8 23 C-8.71285156 22.87882812 -9.42570312 22.75765625 -10.16015625 22.6328125 C-15.55234841 21.68936031 -20.77235672 20.62637791 -26 19 C-27.125 15.25 -27.125 15.25 -26 13 C-12.3667426 12.81548975 -12.3667426 12.81548975 -6 14 C-6 11.36 -6 8.72 -6 6 C-10.455 6.495 -10.455 6.495 -15 7 C-12.04775906 4.53635837 -9.51471001 3.37027655 -5.8125 2.375 C-2.62672383 1.69429298 -2.62672383 1.69429298 0 0 Z " fill="#E3B133" transform="translate(34,47)"/>
<path d="M0 0 C1.78417969 0.13842773 1.78417969 0.13842773 4 1 C5.73925781 3.50024414 5.73925781 3.50024414 7.453125 6.78515625 C7.75820984 7.36083847 8.06329468 7.93652069 8.37762451 8.52964783 C9.347896 10.36752819 10.29902136 12.2145756 11.25 14.0625 C11.90501181 15.31119716 12.56124785 16.55925296 13.21875 17.80664062 C14.82467673 20.86498638 16.41772809 23.929368 18 27 C20.30150125 24.08535913 22.09200897 21.120456 23.8125 17.83203125 C24.33070313 16.85685547 24.84890625 15.88167969 25.3828125 14.87695312 C26.46577767 12.82481261 27.54386548 10.77009117 28.6171875 8.71289062 C29.13539063 7.74158203 29.65359375 6.77027344 30.1875 5.76953125 C30.65542969 4.87854736 31.12335938 3.98756348 31.60546875 3.06958008 C33 1 33 1 36 0 C37.42904569 4.01419008 38.42177485 7.85332433 39.0703125 12.0625 C39.24433594 13.18914062 39.41835937 14.31578125 39.59765625 15.4765625 C39.77167969 16.63929687 39.94570312 17.80203125 40.125 19 C40.30675781 20.16273437 40.48851562 21.32546875 40.67578125 22.5234375 C41.47054826 27.74619211 42.10157667 32.7061788 42 38 C40.35 38 38.7 38 37 38 C35.15698572 32.33931327 34.28524157 26.68491676 33.46484375 20.79296875 C33.14985464 18.0544571 33.14985464 18.0544571 32 16 C28.04 23.26 24.08 30.52 20 38 C19.01 38 18.02 38 17 38 C16.64695801 37.3387915 16.29391602 36.67758301 15.93017578 35.99633789 C14.33427054 33.01523308 12.72976533 30.03884394 11.125 27.0625 C10.56941406 26.02158203 10.01382813 24.98066406 9.44140625 23.90820312 C8.63896484 22.42416992 8.63896484 22.42416992 7.8203125 20.91015625 C7.32805176 19.99371338 6.83579102 19.07727051 6.32861328 18.13305664 C5.17758138 15.87097458 5.17758138 15.87097458 3 15 C3.04125 16.051875 3.0825 17.10375 3.125 18.1875 C3.13628321 24.47224701 2.83578639 32.32842721 0 38 C-1.65 38 -3.3 38 -5 38 C-4.54758978 25.15154979 -2.24059063 12.63387934 0 0 Z " fill="#646464" transform="translate(126,63)"/>
<path d="M0 0 C0.66 0 1.32 0 2 0 C7 9 12 18 17 27 C19.30150125 24.08535913 21.09200897 21.120456 22.8125 17.83203125 C23.33070313 16.85685547 23.84890625 15.88167969 24.3828125 14.87695312 C25.46577767 12.82481261 26.54386548 10.77009117 27.6171875 8.71289062 C28.13539063 7.74158203 28.65359375 6.77027344 29.1875 5.76953125 C29.65542969 4.87854736 30.12335938 3.98756348 30.60546875 3.06958008 C32 1 32 1 35 0 C36.42904569 4.01419008 37.42177485 7.85332433 38.0703125 12.0625 C38.24433594 13.18914063 38.41835937 14.31578125 38.59765625 15.4765625 C38.77167969 16.63929687 38.94570312 17.80203125 39.125 19 C39.30675781 20.16273437 39.48851562 21.32546875 39.67578125 22.5234375 C40.47054826 27.74619211 41.10157667 32.7061788 41 38 C39.35 38 37.7 38 36 38 C34.38167861 33.58516507 33.52746659 29.41024032 32.9375 24.75 C32.47712522 20.22248603 32.47712522 20.22248603 31 16 C27.04 23.26 23.08 30.52 19 38 C18.01 38 17.02 38 16 38 C15.64695801 37.3387915 15.29391602 36.67758301 14.93017578 35.99633789 C13.33427054 33.01523308 11.72976533 30.03884394 10.125 27.0625 C9.56941406 26.02158203 9.01382813 24.98066406 8.44140625 23.90820312 C7.63896484 22.42416992 7.63896484 22.42416992 6.8203125 20.91015625 C6.32805176 19.99371338 5.83579102 19.07727051 5.32861328 18.13305664 C4.17758138 15.87097458 4.17758138 15.87097458 2 15 C2.04125 16.051875 2.0825 17.10375 2.125 18.1875 C2.13628321 24.47224701 1.83578639 32.32842721 -1 38 C-2.65 38 -4.3 38 -6 38 C-5.69104754 29.0867214 -4.5261226 20.46406513 -3 11.6875 C-2.82178711 10.65488037 -2.64357422 9.62226074 -2.45996094 8.55834961 C-1.13193084 1.13193084 -1.13193084 1.13193084 0 0 Z " fill="#454545" transform="translate(127,15)"/>
<path d="M0 0 C1.32 0.33 2.64 0.66 4 1 C4 13.87 4 26.74 4 40 C2.35 40 0.7 40 -1 40 C-1.66 39.34 -2.32 38.68 -3 38 C-3.969375 38.515625 -4.93875 39.03125 -5.9375 39.5625 C-10.43999773 41.4895325 -14.30820338 41.14865077 -19 40 C-23.69664343 37.91260292 -26.70475869 34.59048262 -29 30 C-29.56350726 25.38108804 -29.4422879 21.90158688 -27.375 17.6875 C-22.92862949 12.65608074 -18.8934608 10.40016813 -12.2578125 9.8828125 C-8.66347009 10.06937006 -6.15869282 11.31984425 -3 13 C-2.95101562 12.22914062 -2.90203125 11.45828125 -2.8515625 10.6640625 C-2.77679688 9.66117188 -2.70203125 8.65828125 -2.625 7.625 C-2.55539063 6.62726562 -2.48578125 5.62953125 -2.4140625 4.6015625 C-2 2 -2 2 0 0 Z M-21.875 19.6875 C-23.54658605 23.12353799 -23.76099621 26.31209529 -23 30 C-21.00639338 32.92810972 -19.50123757 34.50369764 -16.09765625 35.62890625 C-12.49261453 36.28625551 -10.21490752 36.0689326 -6.6875 34.9375 C-3.39826718 32.56619262 -2.27953118 30.83859354 -1 27 C-1.0726779 23.36610485 -1.51633156 21.62185943 -3.75 18.75 C-10.16849525 13.75783703 -15.80532398 14.22479158 -21.875 19.6875 Z " fill="#AEAEAE" transform="translate(213,13)"/>
<path d="M0 0 C0.66 0.33 1.32 0.66 2 1 C3.49761762 1.09540112 4.99934828 1.13073486 6.5 1.1328125 C7.386875 1.13410156 8.27375 1.13539062 9.1875 1.13671875 C10.5796875 1.13091797 10.5796875 1.13091797 12 1.125 C12.928125 1.12886719 13.85625 1.13273437 14.8125 1.13671875 C16.1428125 1.13478516 16.1428125 1.13478516 17.5 1.1328125 C18.72203125 1.13112061 18.72203125 1.13112061 19.96875 1.12939453 C22.06850952 1.12801503 22.06850952 1.12801503 24 0 C23.67 0.99 23.34 1.98 23 3 C16.4 3 9.8 3 3 3 C3.66 4.65 4.32 6.3 5 8 C5.83402344 7.96519531 6.66804688 7.93039063 7.52734375 7.89453125 C14.76815918 7.72035356 20.28468491 8.2683464 27 11 C26.52691406 11.68707031 26.05382812 12.37414062 25.56640625 13.08203125 C23.79390401 16.38392446 23.37296959 18.97966673 22.9375 22.6875 C22.21208226 28.78791774 22.21208226 28.78791774 20 31 C15.44444444 30.44444444 15.44444444 30.44444444 14 29 C13.46750933 21.94449861 15.10462904 15.76918199 17 9 C12.545 9.495 12.545 9.495 8 10 C8.15597656 10.85722656 8.31195313 11.71445313 8.47265625 12.59765625 C10.4059754 23.9543058 10.4059754 23.9543058 9 30 C6.625 30.625 6.625 30.625 4 31 C1.64046906 28.64046906 1.50858587 27.22104383 1 24 C0.443125 24.515625 -0.11375 25.03125 -0.6875 25.5625 C-3 27 -3 27 -5.625 26.8125 C-8 26 -8 26 -10 24 C-9.67028521 20.70285207 -9.3773161 19.3773161 -7 17 C-4.5 16.75 -4.5 16.75 -2 17 C-1.34 17.66 -0.68 18.32 0 19 C-0.33 17.02 -0.66 15.04 -1 13 C-5.11106383 14.02776596 -7.82981928 15.54369471 -11.0625 18.1875 C-14.62992428 21.01541982 -14.62992428 21.01541982 -18 20.875 C-18.99 20.441875 -18.99 20.441875 -20 20 C-20.33 18.68 -20.66 17.36 -21 16 C-19.56458334 14.70601853 -18.12658648 13.41489889 -16.6875 12.125 C-15.88699219 11.40570313 -15.08648437 10.68640625 -14.26171875 9.9453125 C-11.47490522 7.54836408 -9.68340326 6.09966298 -6 5.5625 C-5.01 5.706875 -4.02 5.85125 -3 6 C-1.25 8.4375 -1.25 8.4375 0 11 C0.66 11.33 1.32 11.66 2 12 C2 14.31 2 16.62 2 19 C2.66 19 3.32 19 4 19 C4 21.97 4 24.94 4 28 C4.99 28 5.98 28 7 28 C6.88521587 25.93690624 6.75773802 23.87451646 6.625 21.8125 C6.55539063 20.66394531 6.48578125 19.51539062 6.4140625 18.33203125 C5.73862569 12.89667655 3.31396572 8.55913895 0.8046875 3.76953125 C0 2 0 2 0 0 Z " fill="#A1C5E4" transform="translate(46,77)"/>
<path d="M0 0 C1.65 0 3.3 0 5 0 C5 12.87 5 25.74 5 39 C3.35 39 1.7 39 0 39 C-0.33 38.34 -0.66 37.68 -1 37 C-2.134375 37.515625 -3.26875 38.03125 -4.4375 38.5625 C-9.9060626 40.58181022 -14.65451472 40.44949459 -20.01953125 38.125 C-24.43667705 35.44681476 -26.36464429 32.29253902 -27.69140625 27.33984375 C-28.1952408 23.51962988 -27.68575486 20.46222299 -26 17 C-21.92883361 12.19811144 -18.47678197 9.69369535 -12.12890625 9.02734375 C-7.45588739 8.96732332 -3.82218574 10.45187617 0 13 C0 8.71 0 4.42 0 0 Z M-19.0625 17.0625 C-21.40907322 20.62020779 -22.07485843 22.73306973 -22 27 C-20.38772538 30.16483536 -18.99397194 32.27108725 -16.125 34.375 C-13.18891172 35.23855538 -11.05485074 35.36658209 -8 35 C-4.3421782 32.96006092 -2.33053826 31.49580738 0 28 C0.46797583 23.78821757 0.46565795 21.71400886 -1.875 18.125 C-4.87388696 15.12611304 -6.66704863 14.78659181 -10.8125 14.625 C-14.63964815 14.67477505 -15.7793885 14.85142491 -19.0625 17.0625 Z " fill="#3C3C3C" transform="translate(246,62)"/>
<path d="M0 0 C0.33 -0.66 0.66 -1.32 1 -2 C2.65 -2 4.3 -2 6 -2 C7.101173 1.30351899 7.03109831 3.51387172 6.87890625 6.98046875 C6.83056641 8.14384766 6.78222656 9.30722656 6.73242188 10.50585938 C6.67634766 11.72080078 6.62027344 12.93574219 6.5625 14.1875 C6.51029297 15.41404297 6.45808594 16.64058594 6.40429688 17.90429688 C6.27451599 20.93645018 6.13954569 23.96828294 6 27 C4.35 27 2.7 27 1 27 C0.67 26.34 0.34 25.68 0 25 C-1.423125 25.7734375 -1.423125 25.7734375 -2.875 26.5625 C-7.67214988 28.56858086 -12.05047598 28.54961733 -17 27 C-20.62137778 24.61938936 -24.0370459 21.92590821 -26 18 C-26.70353497 13.25113895 -27.02995411 8.85451274 -24.6484375 4.56640625 C-17.94460231 -3.48114921 -9.22969281 -5.09512454 0 0 Z M-19 6 C-20.92257494 8.9223139 -21.00998182 10.52087275 -20.9375 14 C-19.70651477 17.93915273 -18.30999814 19.53510777 -15 22 C-10.79752706 23.40947138 -7.80233731 23.28230387 -3.625 21.8125 C-0.86263529 19.90515294 0.11332407 19.19203335 1 16 C1.44651067 11.90698552 1.44903142 9.7483857 -0.6875 6.1875 C-6.83635648 0.37101414 -12.45489246 1.66950859 -19 6 Z " fill="#5F5F5F" transform="translate(249,26)"/>
<path d="M0 0 C5.26790178 1.39444459 7.9272978 4.73530126 11 9 C12.875 12.4375 12.875 12.4375 14 15 C15.94999129 14.80528889 15.94999129 14.80528889 18 14 C19.09166275 12.06669397 19.09166275 12.06669397 20 10 C20.99 9.34 21.98 8.68 23 8 C26.1875 8.875 26.1875 8.875 29 10 C28.09199439 15.50938539 24.19829652 18.62792823 20 22 C14.26719344 25.28310508 8.06978795 27.46473142 1.77734375 29.421875 C-0.07578604 29.97597024 -0.07578604 29.97597024 -2 31 C-3.875 31.16796875 -3.875 31.16796875 -6 31.1875 C-7.051875 31.20876953 -7.051875 31.20876953 -8.125 31.23046875 C-10 31 -10 31 -12 29 C-11.625 26.375 -11.625 26.375 -11 24 C-5.01314152 22.73638028 0.91766294 21.67581523 7 21 C4.25339075 15.08422624 1.06532334 10.09520525 -3 5 C-2.01 3.35 -1.02 1.7 0 0 Z " fill="#EB89A1" transform="translate(19,24)"/>
<path d="M0 0 C1 1 1 1 1.4375 3.125 C0.86992761 6.85476144 -0.78345842 8.34341758 -3.39453125 10.9609375 C-5.60452505 13.76779094 -6.68168637 16.68244199 -8 20 C-6.31970703 20.16435547 -6.31970703 20.16435547 -4.60546875 20.33203125 C-3.13273778 20.49149893 -1.66008535 20.65169317 -0.1875 20.8125 C0.55048828 20.88275391 1.28847656 20.95300781 2.04882812 21.02539062 C7.54974762 21.64766659 7.54974762 21.64766659 10.01171875 23.57421875 C10.50091797 24.27998047 10.50091797 24.27998047 11 25 C10.01 27.475 10.01 27.475 9 30 C1.85579326 30.41216577 -4.0997548 28.88188505 -11 27 C-10.67 30.96 -10.34 34.92 -10 39 C-12.31 39.66 -14.62 40.32 -17 41 C-17 34.73 -17 28.46 -17 22 C-17.99 21.67 -18.98 21.34 -20 21 C-18.68 21 -17.36 21 -16 21 C-17.30155006 16.92035719 -17.30155006 16.92035719 -19 13 C-17.02 13.495 -17.02 13.495 -15 14 C-14.29423828 12.86111328 -14.29423828 12.86111328 -13.57421875 11.69921875 C-12.95160156 10.70535156 -12.32898438 9.71148437 -11.6875 8.6875 C-11.07261719 7.70136719 -10.45773438 6.71523438 -9.82421875 5.69921875 C-6.84739419 1.29453829 -5.5140865 -0.58043016 0 0 Z " fill="#E377C3" transform="translate(98,25)"/>
<path d="M0 0 C3.11905047 2.57660691 4.7181368 4.1544104 6 8 C6.08143855 9.62719482 6.1075302 11.25751719 6.09765625 12.88671875 C6.09443359 13.82451172 6.09121094 14.76230469 6.08789062 15.72851562 C6.07951172 16.70498047 6.07113281 17.68144531 6.0625 18.6875 C6.05798828 19.67556641 6.05347656 20.66363281 6.04882812 21.68164062 C6.03704303 24.12115474 6.02059011 26.56054689 6 29 C4.35 29 2.7 29 1 29 C0.92652344 27.26363281 0.92652344 27.26363281 0.8515625 25.4921875 C0.77648522 23.9531033 0.70093957 22.4140419 0.625 20.875 C0.5940625 20.11445312 0.563125 19.35390625 0.53125 18.5703125 C0.297631 14.05367842 -0.32654117 10.25847653 -2 6 C-6.64343758 4.89441962 -9.63771021 4.971028 -14 7 C-14.88851146 9.66553437 -15.16731278 11.4420317 -15.28125 14.1953125 C-15.31863281 14.99324219 -15.35601562 15.79117188 -15.39453125 16.61328125 C-15.46517123 18.2955592 -15.53548071 19.97785105 -15.60546875 21.66015625 C-15.89868994 27.89868994 -15.89868994 27.89868994 -17 29 C-18.65 29 -20.3 29 -22 29 C-22 19.76 -22 10.52 -22 1 C-20.35 0.67 -18.7 0.34 -17 0 C-16.34 0.66 -15.68 1.32 -15 2 C-14.01 1.34 -13.02 0.68 -12 0 C-7.77643547 -1.2905336 -4.27172024 -1.06793006 0 0 Z " fill="#8A8A8A" transform="translate(207,72)"/>
<path d="M0 0 C2.375 -0.125 2.375 -0.125 5 0 C7 2 7 2 7.3125 5.4375 C7.20306437 10.83964088 5.5837311 15.87172788 4 21 C7.3 21 10.6 21 14 21 C13.7834375 20.29875 13.566875 19.5975 13.34375 18.875 C11.6380482 13.06297905 10.44903115 8.06065739 11 2 C13 0 13 0 15.625 -0.125 C16.40875 -0.08375 17.1925 -0.0425 18 0 C19.84114389 3.68228779 19.92717315 7.98566037 20.5 12.03125 C20.83750116 14.91871431 20.83750116 14.91871431 22 17 C23.65 17 25.3 17 27 17 C26.67 17.66 26.34 18.32 26 19 C24.3603125 18.9071875 24.3603125 18.9071875 22.6875 18.8125 C20.8621875 18.9053125 20.8621875 18.9053125 19 19 C18.55914062 19.49242188 18.11828125 19.98484375 17.6640625 20.4921875 C15.14447678 22.7751924 13.01847492 22.36244541 9.6875 22.3125 C8.57761719 22.30863281 7.46773437 22.30476563 6.32421875 22.30078125 C2.93670531 21.99427298 0.16991499 21.20370448 -3 20 C-2.76271911 17.86447195 -2.52503268 15.72898806 -2.28515625 13.59375 C-2.09743747 11.88628052 -1.91753929 10.17793015 -1.74609375 8.46875 C-1.66488281 7.6746875 -1.58367188 6.880625 -1.5 6.0625 C-1.4278125 5.33160156 -1.355625 4.60070312 -1.28125 3.84765625 C-1 2 -1 2 0 0 Z " fill="#7359A6" transform="translate(49,7)"/>
<path d="M0 0 C2.4375 1.5625 2.4375 1.5625 4 3 C3.34 4.32 2.68 5.64 2 7 C1.278125 6.67 0.55625 6.34 -0.1875 6 C-3.01697427 4.99396471 -5.02895466 4.83022598 -8 5 C-7.8687802 6.8920451 -7.8687802 6.8920451 -7 9 C-4.76755368 10.86468746 -4.76755368 10.86468746 -2.0625 12.5 C3.64421072 16.11288161 3.64421072 16.11288161 5 20 C4.84486364 23.10272719 4.21062218 24.69670406 2.4375 27.25 C-0.86021401 29.61758955 -4.01395743 30.22908291 -8 30 C-11.5 28.5625 -11.5 28.5625 -14 27 C-14 25.68 -14 24.36 -14 23 C-13.01 22.67 -12.02 22.34 -11 22 C-10.38125 22.33 -9.7625 22.66 -9.125 23 C-6.38132771 24.2911399 -4.86062069 23.79461686 -2 23 C-2 21.68 -2 20.36 -2 19 C-4.14222304 17.29621548 -4.14222304 17.29621548 -6.875 15.9375 C-11.80769231 13.28846154 -11.80769231 13.28846154 -14 10 C-13.67425569 3.91943958 -13.67425569 3.91943958 -11.625 1.125 C-7.68290847 -1.60414029 -4.48943738 -0.94514471 0 0 Z " fill="#737373" transform="translate(275,24)"/>
<path d="M0 0 C3.88349447 0 6.018974 1.67857206 8.9375 4 C12.25467158 6.63107727 14.66831496 7.78341575 19 8 C19.33 8.99 19.66 9.98 20 11 C25.94 11.66 31.88 12.32 38 13 C38.495 15.475 38.495 15.475 39 18 C33.13803079 20.9309846 23.55052831 19.61157829 17.3671875 18.12890625 C10.63991961 15.703591 3.78185336 12.47823977 -1 7 C-1.859375 4.40625 -1.859375 4.40625 -2 2 C-1.34 1.34 -0.68 0.68 0 0 Z " fill="#48C667" transform="translate(27,16)"/>
<path d="M0 0 C1.5 2.125 1.5 2.125 2 4 C0.375 5.125 0.375 5.125 -2 6 C-4.01927511 5.39421747 -6.02253397 4.73080266 -8 4 C-8.99 4.495 -8.99 4.495 -10 5 C-10 6.32 -10 7.64 -10 9 C-9.113125 9.2475 -8.22625 9.495 -7.3125 9.75 C-3.3201848 11.25653404 0.04062332 13.08124663 2 17 C2.40391526 20.63523738 2.23463713 22.56005537 0.5 25.8125 C-2.86343419 28.75550492 -5.60220504 29.15737636 -10 29 C-13.30703231 28.20918793 -14.52150464 27.77470677 -16.3125 24.875 C-16.539375 24.25625 -16.76625 23.6375 -17 23 C-15.68 22.34 -14.36 21.68 -13 21 C-12.01 21.66 -11.02 22.32 -10 23 C-6.85778033 22.68493373 -6.85778033 22.68493373 -4 22 C-4 20.35 -4 18.7 -4 17 C-4.86625 16.773125 -5.7325 16.54625 -6.625 16.3125 C-10.79242221 14.69183581 -12.90559169 13.24176109 -16 10 C-16.81557249 6.08525204 -16.35938541 4.57758369 -14.25 1.1875 C-9.90337149 -3.03838883 -5.29862637 -2.22915779 0 0 Z " fill="#515151" transform="translate(273,73)"/>
<path d="M0 0 C1.82299805 0.22485352 1.82299805 0.22485352 4 1 C5.47973633 2.91772461 5.47973633 2.91772461 6.83203125 5.40234375 C7.31994141 6.29244141 7.80785156 7.18253906 8.31054688 8.09960938 C8.80619141 9.03611328 9.30183594 9.97261719 9.8125 10.9375 C10.32748047 11.87013672 10.84246094 12.80277344 11.37304688 13.76367188 C14.14081831 18.88793948 14.14081831 18.88793948 15 21 C14.67 21.66 14.34 22.32 14 23 C13.34 22.67 12.68 22.34 12 22 C12 23.65 12 25.3 12 27 C9.60045121 24.82604981 8.27606053 22.81224619 6.9375 19.875 C5.65691677 16.79891979 5.65691677 16.79891979 3 15 C3.04125 16.051875 3.0825 17.10375 3.125 18.1875 C3.13628321 24.47224701 2.83578639 32.32842721 0 38 C-1.65 38 -3.3 38 -5 38 C-4.54758978 25.15154979 -2.24059063 12.63387934 0 0 Z " fill="#7C7C7C" transform="translate(126,63)"/>
<path d="M0 0 C0.33 0 0.66 0 1 0 C2.02904265 4.1161706 1.95026926 7.77613929 1.75 12 C1.61591006 17.46796835 1.61591006 17.46796835 4.25 22.125 C5.1575 22.74375 6.065 23.3625 7 24 C10.38172655 26.92823832 11.76443897 29.3832509 13.125 33.625 C14.38950046 37.71457219 14.38950046 37.71457219 17 41 C18.28568472 44.5255254 18.09965554 48.03444563 18.0625 51.75 C18.05347656 52.92046875 18.04445313 54.0909375 18.03515625 55.296875 C18.02355469 56.18890625 18.01195313 57.0809375 18 58 C17.01 58 16.02 58 15 58 C15 55.03 15 52.06 15 49 C14.34 49 13.68 49 13 49 C13 46.69 13 44.38 13 42 C11.515 41.505 11.515 41.505 10 41 C9.690625 40.360625 9.38125 39.72125 9.0625 39.0625 C8.17518809 36.84162796 8.17518809 36.84162796 6 36 C3.47154472 34.73577236 3.23577236 33.47154472 2 31 C-0.0335948 29.73195434 -0.0335948 29.73195434 -2 29 C-2.66 29.66 -3.32 30.32 -4 31 C-3.42801782 28.61674091 -2.77633125 26.32899374 -2 24 C-0.63756798 19.24884375 -0.54482291 14.47675043 -0.375 9.5625 C-0.33632813 8.64017578 -0.29765625 7.71785156 -0.2578125 6.76757812 C-0.16431324 4.51190857 -0.0785609 2.25623084 0 0 Z " fill="#4AB4F1" transform="translate(35,47)"/>
<path d="M0 0 C0.99 0 1.98 0 3 0 C3 12.21 3 24.42 3 37 C2.01 37 1.02 37 0 37 C0 35.68 0 34.36 0 33 C-1.65 33.66 -3.3 34.32 -5 35 C-4.690625 34.4225 -4.38125 33.845 -4.0625 33.25 C-1.9806464 28.84136886 -1.48571419 24.88571517 -2 20 C-4.39583651 17.18668622 -4.39583651 17.18668622 -7 15 C-7 14.34 -7 13.68 -7 13 C-10.63 13 -14.26 13 -18 13 C-17.67 12.01 -17.34 11.02 -17 10 C-10.30713088 9.52382749 -6.22468764 9.60026304 -1 14 C-0.67 9.38 -0.34 4.76 0 0 Z " fill="#171717" transform="translate(247,63)"/>
<path d="M0 0 C1.65 0 3.3 0 5 0 C6.101173 3.30351899 6.03109831 5.51387172 5.87890625 8.98046875 C5.83056641 10.14384766 5.78222656 11.30722656 5.73242188 12.50585938 C5.67634766 13.72080078 5.62027344 14.93574219 5.5625 16.1875 C5.51029297 17.41404297 5.45808594 18.64058594 5.40429688 19.90429688 C5.27451599 22.93645018 5.13954569 25.96828294 5 29 C3.35 29 1.7 29 0 29 C-0.33 28.34 -0.66 27.68 -1 27 C-2.423125 27.7734375 -2.423125 27.7734375 -3.875 28.5625 C-8.67214988 30.56858086 -13.05047598 30.54961733 -18 29 C-21.62137778 26.61938936 -25.0370459 23.92590821 -27 20 C-27.07033769 18.12620395 -27.0843022 16.24998898 -27.0625 14.375 C-27.05347656 13.37210938 -27.04445312 12.36921875 -27.03515625 11.3359375 C-27.02355469 10.56507812 -27.01195312 9.79421875 -27 9 C-26.67 9 -26.34 9 -26 9 C-25.96261719 9.68707031 -25.92523438 10.37414063 -25.88671875 11.08203125 C-25.82097656 11.98308594 -25.75523437 12.88414063 -25.6875 13.8125 C-25.62949219 14.70582031 -25.57148438 15.59914063 -25.51171875 16.51953125 C-24.93686419 19.30604 -24.1793144 20.24135754 -22 22 C-22 20.35 -22 18.7 -22 17 C-21.2575 17.78375 -20.515 18.5675 -19.75 19.375 C-16.73608279 22.38495704 -16.73608279 22.38495704 -13 24 C-9.18699347 23.85274975 -5.62716403 23.20905468 -2 22 C-2 22.66 -2 23.32 -2 24 C-1.01 24 -0.02 24 1 24 C1 25.32 1 26.64 1 28 C1.99 28 2.98 28 4 28 C4 19.09 4 10.18 4 1 C3.01 1 2.02 1 1 1 C1 2.32 1 3.64 1 5 C-1.46800047 3.84826645 -3.04783565 2.95216435 -5 1 C-3.68 1.33 -2.36 1.66 -1 2 C-0.67 1.34 -0.34 0.68 0 0 Z " fill="#888888" transform="translate(250,24)"/>
<path d="M0 0 C3.41664873 -0.02908357 6.8332655 -0.04682691 10.25 -0.0625 C11.70212891 -0.07506836 11.70212891 -0.07506836 13.18359375 -0.08789062 C14.11816406 -0.09111328 15.05273438 -0.09433594 16.015625 -0.09765625 C16.87446289 -0.10289307 17.73330078 -0.10812988 18.61816406 -0.11352539 C20.88670744 -0.00539986 22.82631715 0.36417577 25 1 C25.33 2.32 25.66 3.64 26 5 C27.32 5 28.64 5 30 5 C30 5.66 30 6.32 30 7 C31.32 7.33 32.64 7.66 34 8 C34 8.99 34 9.98 34 11 C28.66963888 11.26214891 28.66963888 11.26214891 26 11 C24.5 9.625 24.5 9.625 23 8 C16.06184782 5.55879831 9.29091699 5.79994435 2 6 C1.34 4.02 0.68 2.04 0 0 Z " fill="#CE3D88" transform="translate(49,80)"/>
<path d="M0 0 C7.31110994 -0.3689719 13.21256822 0.18447274 20 3 C19.52691406 3.68707031 19.05382812 4.37414062 18.56640625 5.08203125 C16.79390401 8.38392446 16.37296959 10.97966673 15.9375 14.6875 C15.21208226 20.78791774 15.21208226 20.78791774 13 23 C8.44444444 22.44444444 8.44444444 22.44444444 7 21 C6.46750933 13.94449861 8.10462904 7.76918199 10 1 C6.7 1 3.4 1 0 1 C0 0.67 0 0.34 0 0 Z " fill="#EEAF96" transform="translate(53,85)"/>
<path d="M0 0 C5.26790178 1.39444459 7.9272978 4.73530126 11 9 C12.875 12.4375 12.875 12.4375 14 15 C15.32 14.67 16.64 14.34 18 14 C14.91934573 17.25669165 12.10193497 20.10679924 8 22 C5.6875 21.6875 5.6875 21.6875 4 21 C4.99 21 5.98 21 7 21 C4.25339075 15.08422624 1.06532334 10.09520525 -3 5 C-2.01 3.35 -1.02 1.7 0 0 Z " fill="#F6C464" transform="translate(19,24)"/>
<path d="M0 0 C1.65 0.33 3.3 0.66 5 1 C5 10.24 5 19.48 5 29 C3.02 29 1.04 29 -1 29 C-1.02465881 25.03069011 -1.04284023 21.06140966 -1.05493164 17.09204102 C-1.05997057 15.74079614 -1.06680177 14.38955674 -1.07543945 13.03833008 C-1.08752419 11.09979566 -1.09269828 9.161222 -1.09765625 7.22265625 C-1.10289307 6.05484619 -1.10812988 4.88703613 -1.11352539 3.68383789 C-1 1 -1 1 0 0 Z " fill="#6A6A6A" transform="translate(174,72)"/>
<path d="M0 0 C0.99 0.66 1.98 1.32 3 2 C2.34 2 1.68 2 1 2 C0.94972656 2.77601562 0.89945313 3.55203125 0.84765625 4.3515625 C-0.36138848 9.55546932 -2.92662021 13.76138769 -5.5625 18.375 C-6.08263672 19.30183594 -6.60277344 20.22867188 -7.13867188 21.18359375 C-8.41787834 23.46034654 -9.70512238 25.73213523 -11 28 C-11.99 28 -12.98 28 -14 28 C-16.95047835 23.38987758 -18.5497272 20.63470383 -18 15 C-17.34 15 -16.68 15 -16 15 C-16 15.66 -16 16.32 -16 17 C-14.68 17 -13.36 17 -12 17 C-10.35 14.03 -8.7 11.06 -7 8 C-6.01 8 -5.02 8 -4 8 C-3.34 6.02 -2.68 4.04 -2 2 C-1.34 2 -0.68 2 0 2 C0 1.34 0 0.68 0 0 Z " fill="#565656" transform="translate(157,25)"/>
<path d="M0 0 C1.65 0 3.3 0 5 0 C5 9.24 5 18.48 5 28 C3.35 28.33 1.7 28.66 0 29 C-1.80279191 27.19720809 -1.13036605 24.45952299 -1.1328125 22.03125 C-1.13410156 20.82082031 -1.13539063 19.61039063 -1.13671875 18.36328125 C-1.13285156 17.08839844 -1.12898437 15.81351563 -1.125 14.5 C-1.12886719 13.22511719 -1.13273438 11.95023438 -1.13671875 10.63671875 C-1.13542969 9.42628906 -1.13414062 8.21585938 -1.1328125 6.96875 C-1.13168457 5.84919922 -1.13055664 4.72964844 -1.12939453 3.57617188 C-1 1 -1 1 0 0 Z " fill="#B4B4B4" transform="translate(174,24)"/>
<path d="M0 0 C8.49653282 0.18848964 8.49653282 0.18848964 11.9140625 2.36328125 C13.6231307 5.82887102 14.15650919 8.60387601 14.109375 12.4453125 C14.10292969 13.37666016 14.09648437 14.30800781 14.08984375 15.26757812 C14.07308594 16.22728516 14.05632812 17.18699219 14.0390625 18.17578125 C14.03003906 19.15482422 14.02101562 20.13386719 14.01171875 21.14257812 C13.98823432 23.54973186 13.9553909 25.95637868 13.9140625 28.36328125 C12.2640625 28.36328125 10.6140625 28.36328125 8.9140625 28.36328125 C8.86507812 27.22890625 8.81609375 26.09453125 8.765625 24.92578125 C8.6905211 23.40492727 8.61497666 21.884095 8.5390625 20.36328125 C8.508125 19.61949219 8.4771875 18.87570313 8.4453125 18.109375 C8.17652457 12.95760642 7.30342366 8.33335369 5.9140625 3.36328125 C2.2840625 3.36328125 -1.3459375 3.36328125 -5.0859375 3.36328125 C-2.0859375 0.36328125 -2.0859375 0.36328125 0 0 Z " fill="#929292" transform="translate(199.0859375,72.63671875)"/>
<path d="M0 0 C13.6332574 -0.3690205 13.6332574 -0.3690205 20 2 C20.25 8.625 20.25 8.625 18 12 C18 11.34 18 10.68 18 10 C16.93072266 9.81824219 16.93072266 9.81824219 15.83984375 9.6328125 C10.44765159 8.68936031 5.22764328 7.62637791 0 6 C-1.125 2.25 -1.125 2.25 0 0 Z " fill="#7ECCEE" transform="translate(8,60)"/>
<path d="M0 0 C2.375 -0.125 2.375 -0.125 5 0 C7 2 7 2 7.25 5.5625 C7.14813223 10.18899434 6.15738467 14.53580198 5 19 C4.34 19 3.68 19 3 19 C3 19.66 3 20.32 3 21 C1.33388095 21.042721 -0.33382885 21.04063832 -2 21 C-2.33 20.67 -2.66 20.34 -3 20 C-2.9140625 18.25 -2.9140625 18.25 -2.625 16 C-2.52445313 15.19433594 -2.42390625 14.38867188 -2.3203125 13.55859375 C-2.21460938 12.71425781 -2.10890625 11.86992187 -2 11 C-1.75683262 8.61622276 -1.51676066 6.23220173 -1.28125 3.84765625 C-1 2 -1 2 0 0 Z " fill="#DB6F8D" transform="translate(49,7)"/>
<path d="M0 0 C6.7857936 0.54863863 13.35009036 1.54267938 20 3 C20.625 4.8125 20.625 4.8125 21 7 C20.01 8.485 20.01 8.485 19 10 C13.00180038 10.52615786 5.14083379 10.47960562 0.21875 6.59375 C-1 5 -1 5 -0.6875 2.3125 C-0.460625 1.549375 -0.23375 0.78625 0 0 Z " fill="#7256A4" transform="translate(88,45)"/>
<path d="M0 0 C-0.66 0 -1.32 0 -2 0 C-0.04891936 4.19121026 1.64729176 7.80125766 4.8125 11.1875 C7 14 7 14 6.8125 16.875 C6.544375 17.57625 6.27625 18.2775 6 19 C4.2265625 19.703125 4.2265625 19.703125 2 20 C0.1484375 18.671875 0.1484375 18.671875 -1.625 16.75 C-2.21539062 16.12609375 -2.80578125 15.5021875 -3.4140625 14.859375 C-7.01553557 10.6369583 -7.01553557 10.6369583 -6.9375 7.4375 C-6.958125 6.633125 -6.97875 5.82875 -7 5 C-7.99 4.34 -8.98 3.68 -10 3 C-3.375 -1.125 -3.375 -1.125 0 0 Z " fill="#E176BE" transform="translate(92,70)"/>
<path d="M0 0 C2 2 2 2 2 5 C1.01 5.33 0.02 5.66 -1 6 C-1.5775 6.5775 -2.155 7.155 -2.75 7.75 C-5.57210241 10.57210241 -8.43675287 13.15474702 -12 15 C-14.9375 14.8125 -14.9375 14.8125 -17 14 C-17.33 12.68 -17.66 11.36 -18 10 C-16.56458334 8.70601853 -15.12658648 7.41489889 -13.6875 6.125 C-12.88699219 5.40570313 -12.08648437 4.68640625 -11.26171875 3.9453125 C-7.32021758 0.55521305 -5.19191253 -0.4418649 0 0 Z " fill="#D65CA1" transform="translate(43,83)"/>
<path d="M0 0 C0 0.66 0 1.32 0 2 C-0.99 2.495 -0.99 2.495 -2 3 C-2.33 3.66 -2.66 4.32 -3 5 C-3.66 4.67 -4.32 4.34 -5 4 C-5.29170908 6.8017367 -5.29170908 6.8017367 -4 10 C-1.60739213 11.72161821 0.88561926 13.07344424 3.4765625 14.4765625 C6.87269934 16.52686183 8.7119529 18.79673406 11 22 C10.34 23.32 9.68 24.64 9 26 C6.15382151 26.517487 4.50716808 26.34894002 2.109375 24.69921875 C0.3339267 23.18720079 -1.38373063 21.68147909 -3 20 C-3 19.67 -3 19.34 -3 19 C-1.02 19 0.96 19 3 19 C2.67 18.01 2.34 17.02 2 16 C1.01 15.67 0.02 15.34 -1 15 C-1 14.34 -1 13.68 -1 13 C-2.32 13 -3.64 13 -5 13 C-5.33 11.68 -5.66 10.36 -6 9 C-7.65 8.67 -9.3 8.34 -11 8 C-8.47638822 3.08559811 -5.77658067 0 0 0 Z " fill="#DD7CB0" transform="translate(80,72)"/>
<path d="M0 0 C2.31 0.66 4.62 1.32 7 2 C6.15567473 7.46975934 2.00648435 10.5247622 -2 14 C-6.18403567 16.67778283 -9.05311905 17.35334864 -14 17 C-14 16.34 -14 15.68 -14 15 C-13.34 15 -12.68 15 -12 15 C-12 14.34 -12 13.68 -12 13 C-10.57421875 11.66796875 -10.57421875 11.66796875 -8.6875 10.1875 C-5.69603485 7.72074749 -3.82564922 5.45912484 -2 2 C-1.34 1.34 -0.68 0.68 0 0 Z " fill="#E35F84" transform="translate(41,32)"/>
<path d="M0 0 C1.0828125 0.37125 1.0828125 0.37125 2.1875 0.75 C2.9375 2.4375 2.9375 2.4375 3.1875 4.75 C1.02083252 8.0401247 -1.33347898 10.86138859 -4.8125 12.75 C-8.5625 12.9375 -8.5625 12.9375 -11.8125 12.75 C-11.8125 13.41 -11.8125 14.07 -11.8125 14.75 C-13.1325 14.09 -14.4525 13.43 -15.8125 12.75 C-15.8125 10.75 -15.8125 10.75 -14.23828125 9.1640625 C-12.10056555 7.35431428 -9.95763135 5.55094983 -7.8125 3.75 C-6.925625 2.925 -6.03875 2.1 -5.125 1.25 C-2.8125 -0.25 -2.8125 -0.25 0 0 Z " fill="#36C15C" transform="translate(87.8125,16.25)"/>
<path d="M0 0 C0.99 0 1.98 0 3 0 C2 2 1 4 0 6 C-0.48997847 12.3593472 -0.48997847 12.3593472 2 18 C2.99 18.33 3.98 18.66 5 19 C5 19.66 5 20.32 5 21 C7.97 21.33 10.94 21.66 14 22 C14 22.66 14 23.32 14 24 C6.82007673 24.56983518 1.72839737 23.60209514 -4 19 C-6.62203434 14.9500425 -6.85087758 10.6798267 -6 6 C-3.5625 3 -3.5625 3 -1 1 C-0.67 0.67 -0.34 0.34 0 0 Z " fill="#5E5E5E" transform="translate(190,28)"/>
<path d="M0 0 C1.65 0 3.3 0 5 0 C5 12.87 5 25.74 5 39 C3.35 39 1.7 39 0 39 C-0.33 38.34 -0.66 37.68 -1 37 C-2.7015625 37.7734375 -2.7015625 37.7734375 -4.4375 38.5625 C-9.17524188 40.37623303 -13.09890938 39.94164473 -18 39 C-18 38.67 -18 38.34 -18 38 C-15.36 38 -12.72 38 -10 38 C-10 37.34 -10 36.68 -10 36 C-11.7015625 35.814375 -11.7015625 35.814375 -13.4375 35.625 C-14.613125 35.41875 -15.78875 35.2125 -17 35 C-17.33 34.34 -17.66 33.68 -18 33 C-17.35933594 33.11859375 -16.71867188 33.2371875 -16.05859375 33.359375 C-9.53984968 34.33087188 -6.36903246 33.8516972 -1 30 C-2 32 -3 34 -4 36 C-2.35 35.34 -0.7 34.68 1 34 C1 35.32 1 36.64 1 38 C1.99 38 2.98 38 4 38 C4 25.79 4 13.58 4 1 C3.01 1 2.02 1 1 1 C1 5.95 1 10.9 1 16 C0.01 15.01 -0.98 14.02 -2 13 C-1.34 13 -0.68 13 0 13 C0 8.71 0 4.42 0 0 Z " fill="#979797" transform="translate(246,62)"/>
<path d="M0 0 C1.375 2.1875 1.375 2.1875 0.9609375 4.32421875 C0.76757812 4.93910156 0.57421875 5.55398437 0.375 6.1875 C-0.82125 5.671875 -2.0175 5.15625 -3.25 4.625 C-7.118266 3.19913123 -9.62584823 2.76557937 -13.625 4.1875 C-17.30504161 6.96797588 -18.46807928 8.4511797 -19.4375 13 C-19.499375 14.051875 -19.56125 15.10375 -19.625 16.1875 C-19.955 16.1875 -20.285 16.1875 -20.625 16.1875 C-21.05677893 9.92670552 -20.55239438 7.09674297 -16.625 2.1875 C-17.800625 2.8990625 -17.800625 2.8990625 -19 3.625 C-20.51448678 4.52648023 -22.0485897 5.39929485 -23.625 6.1875 C-22.11735345 1.96608966 -19.41207131 0.38400136 -15.625 -1.8125 C-10.31496829 -3.54638791 -4.61282732 -3.18504744 0 0 Z " fill="#A4A4A4" transform="translate(209.625,25.8125)"/>
<path d="M0 0 C7.59 0.33 15.18 0.66 23 1 C23.33 2.65 23.66 4.3 24 6 C20.85489907 7.57255046 17.51234555 7.22572668 14.0625 7.25 C13.33353516 7.270625 12.60457031 7.29125 11.85351562 7.3125 C6.44024254 7.35219403 6.44024254 7.35219403 4.18359375 5.546875 C3.59771484 4.78117187 3.59771484 4.78117187 3 4 C2.01 3.67 1.02 3.34 0 3 C0 2.01 0 1.02 0 0 Z " fill="#26B24B" transform="translate(42,28)"/>
<path d="M0 0 C0.99 0 1.98 0 3 0 C3 12.21 3 24.42 3 37 C2.01 37 1.02 37 0 37 C0 35.35 0 33.7 0 32 C-0.66 32 -1.32 32 -2 32 C-1.835 31.27425781 -1.67 30.54851563 -1.5 29.80078125 C-1.02750775 27.15408636 -0.93248926 24.8668323 -1 22.1875 C-1.0813093 14.76802637 -0.51971561 7.3966668 0 0 Z " fill="#0E0E0E" transform="translate(213,15)"/>
<path d="M0 0 C0.99 0.33 1.98 0.66 3 1 C2.67 3.97 2.34 6.94 2 10 C2.99 10.33 3.98 10.66 5 11 C4.34 11 3.68 11 3 11 C3.33 14.96 3.66 18.92 4 23 C1.69 23.66 -0.62 24.32 -3 25 C-3 19.72 -3 14.44 -3 9 C-2.34 9 -1.68 9 -1 9 C-0.67 6.03 -0.34 3.06 0 0 Z " fill="#DF5BB5" transform="translate(84,41)"/>
<path d="M0 0 C0.66 0.33 1.32 0.66 2 1 C2.33 1.99 2.66 2.98 3 4 C3.99 2.68 4.98 1.36 6 0 C6.33419641 3.59261138 6.21511245 5.59666415 4.5 8.8125 C1.13656581 11.75550492 -1.60220504 12.15737636 -6 12 C-9.30703231 11.20918793 -10.52150464 10.77470677 -12.3125 7.875 C-12.539375 7.25625 -12.76625 6.6375 -13 6 C-11.68 5.34 -10.36 4.68 -9 4 C-8.01 4.66 -7.02 5.32 -6 6 C-2.85778033 5.68493373 -2.85778033 5.68493373 0 5 C0 3.35 0 1.7 0 0 Z " fill="#787878" transform="translate(269,90)"/>
<path d="M0 0 C1.60080151 4.00200378 0.29279692 7.04556236 -1 11 C-0.01 11 0.98 11 2 11 C2 9.68 2 8.36 2 7 C3.32 6.67 4.64 6.34 6 6 C4.87548273 8.9719385 3.77706209 11.33440687 2 14 C1.34 14 0.68 14 0 14 C-0.33 14.99 -0.66 15.98 -1 17 C-5.75 18.125 -5.75 18.125 -8 17 C-8.3125 14.3125 -8.3125 14.3125 -8 11 C-5.6875 8.5 -5.6875 8.5 -3 6 C-1.20679176 2.83354526 -1.20679176 2.83354526 0 0 Z " fill="#F5BA3D" transform="translate(25,72)"/>
<path d="M0 0 C2.4375 1.5625 2.4375 1.5625 4 3 C3.34 4.32 2.68 5.64 2 7 C1.278125 6.67 0.55625 6.34 -0.1875 6 C-3.01697427 4.99396471 -5.02895466 4.83022598 -8 5 C-7.49396008 7.16874252 -7.00016187 8.99967627 -6 11 C-7.32 10.34 -8.64 9.68 -10 9 C-10 7.35 -10 5.7 -10 4 C-10.66 4 -11.32 4 -12 4 C-12 6.64 -12 9.28 -12 12 C-12.66 11.34 -13.32 10.68 -14 10 C-13.66785714 3.91071429 -13.66785714 3.91071429 -11.625 1.125 C-7.68290847 -1.60414029 -4.48943738 -0.94514471 0 0 Z " fill="#929292" transform="translate(275,24)"/>
<path d="M0 0 C0.33 0 0.66 0 1 0 C2.02904265 4.1161706 1.95026926 7.77613929 1.75 12 C1.61591006 17.46796835 1.61591006 17.46796835 4.25 22.125 C5.1575 22.74375 6.065 23.3625 7 24 C8.33333333 25.33333333 9.66666667 26.66666667 11 28 C10.67 28.66 10.34 29.32 10 30 C7.03 28.02 4.06 26.04 1 24 C1.33 24.99 1.66 25.98 2 27 C2.66 27.33 3.32 27.66 4 28 C3.67 29.32 3.34 30.64 3 32 C2.54625 31.505 2.0925 31.01 1.625 30.5 C0.12364481 28.77390663 0.12364481 28.77390663 -2 29 C-2.66 29.66 -3.32 30.32 -4 31 C-3.42801782 28.61674091 -2.77633125 26.32899374 -2 24 C-0.63756798 19.24884375 -0.54482291 14.47675043 -0.375 9.5625 C-0.33632813 8.64017578 -0.29765625 7.71785156 -0.2578125 6.76757812 C-0.16431324 4.51190857 -0.0785609 2.25623084 0 0 Z " fill="#B7D6CE" transform="translate(35,47)"/>
<path d="M0 0 C1.63001953 0.01353516 1.63001953 0.01353516 3.29296875 0.02734375 C4.12441406 0.03894531 4.95585938 0.05054688 5.8125 0.0625 C5.8125 1.7125 5.8125 3.3625 5.8125 5.0625 C2.35431311 5.39736435 -1.10407239 5.73013163 -4.5625 6.0625 C-5.54734375 6.15789062 -6.5321875 6.25328125 -7.546875 6.3515625 C-8.95839844 6.48691406 -8.95839844 6.48691406 -10.3984375 6.625 C-11.26774902 6.70878906 -12.13706055 6.79257813 -13.03271484 6.87890625 C-15.1875 7.0625 -15.1875 7.0625 -17.1875 7.0625 C-17.1875 6.4025 -17.1875 5.7425 -17.1875 5.0625 C-16.053125 4.77375 -14.91875 4.485 -13.75 4.1875 C-12.574375 3.81625 -11.39875 3.445 -10.1875 3.0625 C-9.8575 2.4025 -9.5275 1.7425 -9.1875 1.0625 C-5.90230525 -0.03256492 -3.45086585 -0.03710608 0 0 Z " fill="#DD7E35" transform="translate(101.1875,60.9375)"/>
<path d="M0 0 C1.5 2.125 1.5 2.125 2 4 C0.375 5.125 0.375 5.125 -2 6 C-4.01927511 5.39421747 -6.02253397 4.73080266 -8 4 C-8.99 4.495 -8.99 4.495 -10 5 C-10.65213292 7.02463255 -10.65213292 7.02463255 -11 9 C-11.33 7.35 -11.66 5.7 -12 4 C-12.66 4 -13.32 4 -14 4 C-14 6.31 -14 8.62 -14 11 C-14.66 10.67 -15.32 10.34 -16 10 C-16.34907695 6.24742282 -16.27011863 4.43411922 -14.25 1.1875 C-9.90337149 -3.03838883 -5.29862637 -2.22915779 0 0 Z " fill="#949494" transform="translate(273,73)"/>
<path d="M0 0 C3.12915801 2.6862618 4.7642676 5.95391929 6.6875 9.5625 C7.31011719 10.71878906 7.93273437 11.87507813 8.57421875 13.06640625 C10 16 10 16 10 18 C9.34 18 8.68 18 8 18 C8 17.34 8 16.68 8 16 C7.34 16 6.68 16 6 16 C5.67 17.32 5.34 18.64 5 20 C4.51789063 19.07316406 4.03578125 18.14632812 3.5390625 17.19140625 C2.9013418 15.98161257 2.26330452 14.77198574 1.625 13.5625 C1.30789062 12.95083984 0.99078125 12.33917969 0.6640625 11.70898438 C-1.02304299 8.24761656 -1.02304299 8.24761656 -4 6 C-3.67 5.01 -3.34 4.02 -3 3 C-2.01 3.33 -1.02 3.66 0 4 C0 2.68 0 1.36 0 0 Z " fill="#7D7D7D" transform="translate(133,24)"/>
<path d="M0 0 C0.33 0 0.66 0 1 0 C1 8.91 1 17.82 1 27 C2.65 27 4.3 27 6 27 C5.34 28.32 4.68 29.64 4 31 C3.67 30.34 3.34 29.68 3 29 C0.04590299 30.37154504 -2.44008376 31.98863724 -5 34 C-5 32.35 -5 30.7 -5 29 C-3 28 -3 28 0 27 C0 26.34 0 25.68 0 25 C-0.83144531 25.41572266 -0.83144531 25.41572266 -1.6796875 25.83984375 C-4.453125 27.2265625 -7.2265625 28.61328125 -10 30 C-8.62991754 26.72010562 -7.36699028 25.45959486 -4.375 23.625 C-1.56180539 21.35816963 -1.04664234 20.36363746 -0.578125 16.7109375 C-0.60876919 14.28493921 -0.6975763 11.85880028 -0.8515625 9.4375 C-0.99539069 6.10674198 -0.66508995 3.25596273 0 0 Z " fill="#EFACA2" transform="translate(80,47)"/>
<path d="M0 0 C4.20782635 4.69334478 7.45213641 10.24646076 10 16 C9.67 16.66 9.34 17.32 9 18 C8.34 17.67 7.68 17.34 7 17 C7 18.65 7 20.3 7 22 C4.60045121 19.82604981 3.27606053 17.81224619 1.9375 14.875 C0.65691677 11.79891979 0.65691677 11.79891979 -2 10 C-2 8.68 -2 7.36 -2 6 C-1.01 6 -0.02 6 1 6 C0.67 4.02 0.34 2.04 0 0 Z " fill="#6F6F6F" transform="translate(131,68)"/>
<path d="M0 0 C0.0580476 3.27075883 0.09361165 6.54138524 0.125 9.8125 C0.14175781 10.74126953 0.15851562 11.67003906 0.17578125 12.62695312 C0.18222656 13.51962891 0.18867187 14.41230469 0.1953125 15.33203125 C0.20578613 16.15421143 0.21625977 16.9763916 0.22705078 17.82348633 C0 20 0 20 -2 23 C-2 22.34 -2 21.68 -2 21 C-2.66 21 -3.32 21 -4 21 C-4.74507544 14.62694402 -5.10349817 8.41688675 -5 2 C-1.125 0 -1.125 0 0 0 Z " fill="#F9A808" transform="translate(35,47)"/>
<path d="M0 0 C0 0.66 0 1.32 0 2 C0.66 2 1.32 2 2 2 C2 3.65 2 5.3 2 7 C0.68 7 -0.64 7 -2 7 C-2.886875 7.350625 -3.77375 7.70125 -4.6875 8.0625 C-10.10644135 9.59616265 -14.93643414 8.98879198 -20 6.5625 C-22 5 -22 5 -23 3 C-22.46890625 3.30679688 -21.9378125 3.61359375 -21.390625 3.9296875 C-18.51859917 5.21552913 -15.85769461 5.65208995 -12.75 6.125 C-11.13351563 6.37636719 -11.13351563 6.37636719 -9.484375 6.6328125 C-8.25460938 6.81457031 -8.25460938 6.81457031 -7 7 C-7 6.34 -7 5.68 -7 5 C-8.670625 5.061875 -8.670625 5.061875 -10.375 5.125 C-14 5 -14 5 -16 3 C-14.205625 3.0928125 -14.205625 3.0928125 -12.375 3.1875 C-7.66674799 3.21254389 -4.33984152 0 0 0 Z " fill="#878787" transform="translate(211,45)"/>
<path d="M0 0 C3.29714793 0.32971479 4.6226839 0.6226839 7 3 C7.36796448 5.87012296 7.37509409 7.40774618 5.8125 9.875 C4 11 4 11 1.4375 10.875 C-1 10 -1 10 -3 7 C-2.6758631 3.67759676 -2.39223697 2.39223697 0 0 Z " fill="#84D799" transform="translate(98,35)"/>
<path d="M0 0 C0.66 0 1.32 0 2 0 C2 8.58 2 17.16 2 26 C1.01 26 0.02 26 -1 26 C-1 24.68 -1 23.36 -1 22 C-1.99 22 -2.98 22 -4 22 C-4 21.34 -4 20.68 -4 20 C-3.34 20 -2.68 20 -2 20 C-2 15.05 -2 10.1 -2 5 C-1.34 5 -0.68 5 0 5 C0 3.35 0 1.7 0 0 Z " fill="#0C0C0C" transform="translate(252,26)"/>
<path d="M0 0 C1.32 0 2.64 0 4 0 C3.34 5.94 2.68 11.88 2 18 C0.35 18 -1.3 18 -3 18 C-3.36517527 11.42684522 -2.13619737 6.20514474 0 0 Z " fill="#E67623" transform="translate(65,88)"/>
<path d="M0 0 C0.99 0 1.98 0 3 0 C3 8.91 3 17.82 3 27 C2.01 27 1.02 27 0 27 C0 18.09 0 9.18 0 0 Z " fill="#151515" transform="translate(175,25)"/>
<path d="M0 0 C2.56957445 1.20448802 3.57005516 2.50659376 5 4.9375 C5 7.9375 5 7.9375 3.3125 9.6875 C1 10.9375 1 10.9375 -1.75 10.625 C-2.4925 10.398125 -3.235 10.17125 -4 9.9375 C-5.33554084 3.50262141 -5.33554084 3.50262141 -3.8125 0.9375 C-2 -0.0625 -2 -0.0625 0 0 Z " fill="#ADDDF3" transform="translate(17,35.0625)"/>
<path d="M0 0 C2.4375 0.9375 2.4375 0.9375 3.9375 3.25 C4.4375 5.9375 4.4375 5.9375 3.375 8.25 C1.4375 9.9375 1.4375 9.9375 -1.125 10.3125 C-3.5625 9.9375 -3.5625 9.9375 -5.5625 7.9375 C-5.875 4.9375 -5.875 4.9375 -5.5625 1.9375 C-2.5625 -0.0625 -2.5625 -0.0625 0 0 Z " fill="#F6C563" transform="translate(76.5625,94.0625)"/>
<path d="M0 0 C0.33 0 0.66 0 1 0 C1.58051881 8.94428987 -0.18625975 17.29836524 -2 26 C-2.99 26 -3.98 26 -5 26 C-4.74333255 22.97736331 -4.47015931 19.95772584 -4.1875 16.9375 C-4.11724609 16.08994141 -4.04699219 15.24238281 -3.97460938 14.36914062 C-3.45668077 9.00340026 -2.39529423 4.8365256 0 0 Z " fill="#101010" transform="translate(127,74)"/>
<path d="M0 0 C2.60662244 0.25496307 5.20905522 0.52820293 7.8125 0.8125 C8.55048828 0.88275391 9.28847656 0.95300781 10.04882812 1.02539062 C15.54974762 1.64766659 15.54974762 1.64766659 18.01171875 3.57421875 C18.50091797 4.27998047 18.50091797 4.27998047 19 5 C18.34 6.65 17.68 8.3 17 10 C10.9981863 10.21824777 5.80766296 9.5056904 0 8 C3.26225174 7.02596275 6.22738661 6.86584201 9.625 6.875 C10.58664063 6.87242188 11.54828125 6.86984375 12.5390625 6.8671875 C15 7 15 7 17 8 C17 6.68 17 5.36 17 4 C16.08476563 4.08378906 15.16953125 4.16757812 14.2265625 4.25390625 C13.03804687 4.35574219 11.84953125 4.45757812 10.625 4.5625 C9.44164063 4.66691406 8.25828125 4.77132812 7.0390625 4.87890625 C4 5 4 5 2 4 C2 3.01 2 2.02 2 1 C1.34 0.67 0.68 0.34 0 0 Z " fill="#A394C8" transform="translate(90,45)"/>
<path d="M0 0 C1.98 0.66 3.96 1.32 6 2 C6.36075949 7.41139241 6.36075949 7.41139241 4.8125 9.9375 C3 11 3 11 0.375 10.75 C-2 10 -2 10 -3 9 C-3.47058824 3.58823529 -3.47058824 3.58823529 -1.5 1.125 C-1.005 0.75375 -0.51 0.3825 0 0 Z " fill="#EA9FB8" transform="translate(15,69)"/>
<path d="M0 0 C2.4375 0.9375 2.4375 0.9375 3.9375 3.25 C4.4375 5.9375 4.4375 5.9375 3.0625 8.25 C2.52625 8.806875 1.99 9.36375 1.4375 9.9375 C-4.4375 9.0625 -4.4375 9.0625 -5.5625 7.9375 C-5.8125 5 -5.8125 5 -5.5625 1.9375 C-2.5625 -0.0625 -2.5625 -0.0625 0 0 Z " fill="#E484C8" transform="translate(76.5625,11.0625)"/>
<path d="M0 0 C-0.66666667 6 -1.33333333 12 -2 18 C-2.99 17.67 -3.98 17.34 -5 17 C-6.34769977 14.30460046 -6.28022191 12.06988169 -6.375 9.0625 C-6.42398438 8.00160156 -6.47296875 6.94070312 -6.5234375 5.84765625 C-6 3 -6 3 -3.5390625 1.12109375 C-1 0 -1 0 0 0 Z " fill="#464646" transform="translate(230,28)"/>
<path d="M0 0 C0.60328125 0.3609375 1.2065625 0.721875 1.828125 1.09375 C3.02695312 1.78984375 3.02695312 1.78984375 4.25 2.5 C5.03890625 2.9640625 5.8278125 3.428125 6.640625 3.90625 C9.17140893 5.28038776 9.17140893 5.28038776 13 5 C13.33 5.99 13.66 6.98 14 8 C15.65 8.33 17.3 8.66 19 9 C19 9.33 19 9.66 19 10 C15.7 9.67 12.4 9.34 9 9 C9 9.99 9 10.98 9 12 C9.639375 12.12375 10.27875 12.2475 10.9375 12.375 C11.618125 12.58125 12.29875 12.7875 13 13 C13.33 13.66 13.66 14.32 14 15 C12.39253944 14.57476184 10.78910164 14.13429874 9.1875 13.6875 C8.29417969 13.44386719 7.40085937 13.20023438 6.48046875 12.94921875 C3.94752262 11.9799181 2.7283504 11.04990396 1 9 C3.31 9.33 5.62 9.66 8 10 C7.67 8.68 7.34 7.36 7 6 C5.68 6 4.36 6 3 6 C3 5.34 3 4.68 3 4 C2.34 4 1.68 4 1 4 C0.67 2.68 0.34 1.36 0 0 Z " fill="#51B260" transform="translate(33,19)"/>
<path d="M0 0 C0.75 2.25 0.75 2.25 1 5 C-0.9375 7.3125 -0.9375 7.3125 -3 9 C-5.4375 8.25 -5.4375 8.25 -8 7 C-9.32284898 4.07083439 -9.04059132 3.12177395 -8 0 C-5.13822943 -1.43088528 -3.06624227 -0.59991697 0 0 Z " fill="#E39CC2" transform="translate(104,71)"/>
<path d="M0 0 C0.33 0.66 0.66 1.32 1 2 C1.66 2 2.32 2 3 2 C3.33 5.96 3.66 9.92 4 14 C2.35 14 0.7 14 -1 14 C-2.45184478 9.46298506 -3.23509196 5.81938524 -3 1 C-2.01 0.67 -1.02 0.34 0 0 Z " fill="#626262" transform="translate(164,87)"/>
<path d="M0 0 C0 0.99 0 1.98 0 3 C-5.5522888 5.8352113 -9.80112515 6.37952295 -16 6 C-16.33 4.35 -16.66 2.7 -17 1 C-14.54171921 0.83252588 -12.08338135 0.6659856 -9.625 0.5 C-8.92632812 0.45230469 -8.22765625 0.40460937 -7.5078125 0.35546875 C-2.2265625 0 -2.2265625 0 0 0 Z " fill="#DF285F" transform="translate(26,48)"/>
<path d="M0 0 C0.66 0 1.32 0 2 0 C2 0.66 2 1.32 2 2 C2.66 2 3.32 2 4 2 C4.66 2.66 5.32 3.32 6 4 C7.32 3.34 8.64 2.68 10 2 C9.69078116 3.45903258 9.37751201 4.91720722 9.0625 6.375 C8.88847656 7.18710937 8.71445313 7.99921875 8.53515625 8.8359375 C8 11 8 11 7 13 C6.01 13 5.02 13 4 13 C1.04952165 8.38987758 -0.5497272 5.63470383 0 0 Z " fill="#262626" transform="translate(139,40)"/>
<path d="M0 0 C2.375 0.1875 2.375 0.1875 5 1 C6.5 3.3125 6.5 3.3125 7 6 C5.625 8.3125 5.625 8.3125 4 10 C1.625 9.8125 1.625 9.8125 -1 9 C-2.5 6.6875 -2.5 6.6875 -3 4 C-1.625 1.6875 -1.625 1.6875 0 0 Z " fill="#9987BC" transform="translate(39,11)"/>
<path d="M0 0 C0.66 0 1.32 0 2 0 C2 1.32 2 2.64 2 4 C3.32 3.67 4.64 3.34 6 3 C5.67 4.65 5.34 6.3 5 8 C4.34 8 3.68 8 3 8 C2.67 13.61 2.34 19.22 2 25 C1.34 25 0.68 25 0 25 C0 16.75 0 8.5 0 0 Z " fill="#111111" transform="translate(187,74)"/>
<path d="M0 0 C0.66 0 1.32 0 2 0 C2.33 0.99 2.66 1.98 3 3 C3.66 2.01 4.32 1.02 5 0 C6.45184478 4.53701494 7.23509196 8.18061476 7 13 C5.35 13 3.7 13 2 13 C0.24252386 8.49646738 -0.19294408 4.82360189 0 0 Z " fill="#6C6C6C" transform="translate(161,40)"/>
<path d="M0 0 C0.66 0 1.32 0 2 0 C2.33 0.66 2.66 1.32 3 2 C3.5775 1.814375 4.155 1.62875 4.75 1.4375 C7.25713553 0.95000142 8.61794229 1.12657884 11 2 C11.66 2.66 12.32 3.32 13 4 C12.625 6.625 12.625 6.625 12 9 C10.23046875 9.703125 10.23046875 9.703125 8 10 C6.11328125 8.671875 6.11328125 8.671875 4.3125 6.75 C3.71050781 6.12609375 3.10851562 5.5021875 2.48828125 4.859375 C1 3 1 3 0 0 Z " fill="#E670C1" transform="translate(86,80)"/>
<path d="M0 0 C1.30710938 0.25716797 1.30710938 0.25716797 2.640625 0.51953125 C3.68476563 0.85017578 3.68476563 0.85017578 4.75 1.1875 C5.08 1.8475 5.41 2.5075 5.75 3.1875 C5.19828125 3.02378906 4.6465625 2.86007813 4.078125 2.69140625 C1.48385993 2.12989586 -0.84835411 2.09010992 -3.5 2.125 C-4.83804688 2.13853516 -4.83804688 2.13853516 -6.203125 2.15234375 C-6.87859375 2.16394531 -7.5540625 2.17554687 -8.25 2.1875 C-8.58 2.8475 -8.91 3.5075 -9.25 4.1875 C-5.62 4.1875 -1.99 4.1875 1.75 4.1875 C1.75 4.5175 1.75 4.8475 1.75 5.1875 C1.07453125 5.23648438 0.3990625 5.28546875 -0.296875 5.3359375 C-1.18890625 5.41070312 -2.0809375 5.48546875 -3 5.5625 C-3.88171875 5.63210937 -4.7634375 5.70171875 -5.671875 5.7734375 C-8.24066382 6.18600055 -10.00841015 6.89910957 -12.25 8.1875 C-12.25 6.8675 -12.25 5.5475 -12.25 4.1875 C-15.49849977 5.90976496 -15.49849977 5.90976496 -16.25 9.1875 C-16.91 9.1875 -17.57 9.1875 -18.25 9.1875 C-17.26431932 5.63904956 -16.36099465 4.27629572 -13.4375 1.9375 C-8.68905336 -0.66949031 -5.28239896 -1.09918182 0 0 Z " fill="#949494" transform="translate(238.25,71.8125)"/>
<path d="M0 0 C2.25 -0.3125 2.25 -0.3125 5 0 C7.71659284 2.56974999 8.91586186 4.05344589 9.25 7.8125 C9.1675 8.534375 9.085 9.25625 9 10 C6.32136078 10.21718696 4.58371852 10.35440053 2.25 8.9375 C0.42094252 6.10246091 0.31245191 3.31199025 0 0 Z " fill="#846CB2" transform="translate(73,36)"/>
<path d="M0 0 C0.33 0.66 0.66 1.32 1 2 C-2.63 2 -6.26 2 -10 2 C-10 2.33 -10 2.66 -10 3 C-8.576875 2.938125 -8.576875 2.938125 -7.125 2.875 C-4 3 -4 3 -2 5 C-2.92232422 5.09087891 -2.92232422 5.09087891 -3.86328125 5.18359375 C-4.67152344 5.26738281 -5.47976562 5.35117188 -6.3125 5.4375 C-7.11300781 5.51871094 -7.91351563 5.59992188 -8.73828125 5.68359375 C-11.16087179 5.95265693 -11.16087179 5.95265693 -14 7 C-14 6.34 -14 5.68 -14 5 C-15.32 5.33 -16.64 5.66 -18 6 C-18 4.35 -18 2.7 -18 1 C-18.99 0.67 -19.98 0.34 -21 0 C-20.21625 0.165 -19.4325 0.33 -18.625 0.5 C-15.24393837 1.14401174 -14.1615588 1.05385293 -10.8125 -0.0625 C-6.72691804 -1.0671513 -4.06792742 -0.97630258 0 0 Z " fill="#949494" transform="translate(207,72)"/>
<path d="M0 0 C1.51953125 1.11328125 1.51953125 1.11328125 3 3 C3.07421875 5.91796875 3.07421875 5.91796875 2.6875 9.1875 C2.56761719 10.27417969 2.44773437 11.36085938 2.32421875 12.48046875 C2.21722656 13.31191406 2.11023438 14.14335938 2 15 C1.34 15 0.68 15 0 15 C0 12.03 0 9.06 0 6 C-0.66 5.67 -1.32 5.34 -2 5 C-2.33 7.97 -2.66 10.94 -3 14 C-3.66 14 -4.32 14 -5 14 C-5 13.01 -5 12.02 -5 11 C-5.99 10.67 -6.98 10.34 -8 10 C-6.68 10 -5.36 10 -4 10 C-5.30155006 5.92035719 -5.30155006 5.92035719 -7 2 C-6.401875 2.226875 -5.80375 2.45375 -5.1875 2.6875 C-4.465625 2.790625 -3.74375 2.89375 -3 3 C-1.22809091 1.64555699 -1.22809091 1.64555699 0 0 Z " fill="#D054B4" transform="translate(86,36)"/>
<path d="M0 0 C0 2.83967231 -0.40267181 5.23735711 -1 8 C-6.324335 10.32086397 -10.43842552 9.91457003 -16 9 C-16 8.67 -16 8.34 -16 8 C-13.36 8 -10.72 8 -8 8 C-8 7.34 -8 6.68 -8 6 C-9.134375 5.87625 -10.26875 5.7525 -11.4375 5.625 C-12.613125 5.41875 -13.78875 5.2125 -15 5 C-15.33 4.34 -15.66 3.68 -16 3 C-15.02160156 3.17789063 -15.02160156 3.17789063 -14.0234375 3.359375 C-7.90364324 4.35460959 -7.90364324 4.35460959 -2.375 2.0625 C-1.59125 1.381875 -0.8075 0.70125 0 0 Z " fill="#838383" transform="translate(244,92)"/>
<path d="M0 0 C0.625 2.3125 0.625 2.3125 1 5 C0.01 6.485 0.01 6.485 -1 8 C-5.75 7.25 -5.75 7.25 -8 5 C-7.625 2.375 -7.625 2.375 -7 0 C-3.86650268 -1.04449911 -3.01031744 -0.93423645 0 0 Z " fill="#E37D31" transform="translate(44,96)"/>
<path d="M0 0 C0.66 0 1.32 0 2 0 C3.17426264 2.34852528 3.11508173 3.73774065 3.09765625 6.3515625 C3.09443359 7.20234375 3.09121094 8.053125 3.08789062 8.9296875 C3.07951172 9.81914063 3.07113281 10.70859375 3.0625 11.625 C3.05798828 12.5221875 3.05347656 13.419375 3.04882812 14.34375 C3.03702591 16.56256648 3.02056155 18.78125018 3 21 C2.01 21 1.02 21 0 21 C0 14.07 0 7.14 0 0 Z " fill="#0B0B0B" transform="translate(209,79)"/>
<path d="M0 0 C3.125 1.5 3.125 1.5 5 3 C4.67 4.32 4.34 5.64 4 7 C2.845 6.525625 1.69 6.05125 0.5 5.5625 C-3.68570332 3.97791232 -7.55238986 3.39710805 -12 3 C-12 2.34 -12 1.68 -12 1 C-8.32349261 -0.8382537 -4.02203801 -0.37884188 0 0 Z " fill="#4A4A4A" transform="translate(206,25)"/>
<path d="M0 0 C4.10984179 1.70062419 6.03462915 4.06925831 8 8 C7.67 8.66 7.34 9.32 7 10 C6.01 10 5.02 10 4 10 C4.33 11.65 4.66 13.3 5 15 C2.63442627 12.86699672 1.37032472 11.04050601 0.25 8.0625 C-0.01296875 7.39347656 -0.2759375 6.72445312 -0.546875 6.03515625 C-1.07046274 3.68352509 -0.74954377 2.26382477 0 0 Z " fill="#5D5D5D" transform="translate(138,84)"/>
<path d="M0 0 C5.05797093 -0.35985564 8.93243661 -0.4785629 13.625 1.625 C16 4 16 4 16.375 7.25 C16.25125 8.1575 16.1275 9.065 16 10 C13.95880212 8.38405168 11.95927063 6.7143618 10 5 C10 4.34 10 3.68 10 3 C6.37 3 2.74 3 -1 3 C-0.67 2.01 -0.34 1.02 0 0 Z " fill="#494949" transform="translate(230,73)"/>
<path d="M0 0 C0.66 0 1.32 0 2 0 C2.5497272 5.63470383 0.95047835 8.38987758 -2 13 C-2.99 13 -3.98 13 -5 13 C-5.33 10.69 -5.66 8.38 -6 6 C-5.01 6 -4.02 6 -3 6 C-2.67 4.68 -2.34 3.36 -2 2 C-1.34 2 -0.68 2 0 2 C0 1.34 0 0.68 0 0 Z " fill="#3E3E3E" transform="translate(148,88)"/>
<path d="M0 0 C2.00720923 0.28674418 4.0085944 0.61866701 6 1 C6.99250545 6.70690634 7.10477512 12.21408489 7 18 C6.67 18 6.34 18 6 18 C5.67 16.35 5.34 14.7 5 13 C3.02 13.99 3.02 13.99 1 15 C1.33 13.02 1.66 11.04 2 9 C1.071875 8.7834375 1.071875 8.7834375 0.125 8.5625 C-2 8 -2 8 -4 7 C-3 6 -3 6 -0.5625 5.8125 C2 6 2 6 4 8 C3.67 6.02 3.34 4.04 3 2 C1.68 1.67 0.36 1.34 -1 1 C-0.67 0.67 -0.34 0.34 0 0 Z " fill="#D1E0E6" transform="translate(42,88)"/>
<path d="M0 0 C0 0.33 0 0.66 0 1 C-0.77085937 1.03738281 -1.54171875 1.07476563 -2.3359375 1.11328125 C-3.84027344 1.21189453 -3.84027344 1.21189453 -5.375 1.3125 C-6.87160156 1.39951172 -6.87160156 1.39951172 -8.3984375 1.48828125 C-9.25695312 1.65714844 -10.11546875 1.82601563 -11 2 C-11.99 3.485 -11.99 3.485 -13 5 C-12.319375 4.649375 -11.63875 4.29875 -10.9375 3.9375 C-7.2912211 2.77379397 -4.71510022 3.27154898 -1 4 C-4 5 -4 5 -6.875 5.4375 C-9.82632643 5.96873876 -12.26623721 6.79392818 -15 8 C-15.33 7.01 -15.66 6.02 -16 5 C-16.66 4.67 -17.32 4.34 -18 4 C-13.15499848 -1.92166852 -6.81996553 -1.12150544 0 0 Z " fill="#8F8F8F" transform="translate(245,24)"/>
<path d="M0 0 C0.66 0 1.32 0 2 0 C2.20852314 6.40629424 2.1583195 11.92972642 0 18 C-0.66 18 -1.32 18 -2 18 C-3.06431344 13.95261087 -2.86275778 10.85314601 -2.125 6.75 C-1.94195312 5.69296875 -1.75890625 4.6359375 -1.5703125 3.546875 C-1 1 -1 1 0 0 Z " fill="#E0275B" transform="translate(51,9)"/>
<path d="M0 0 C3.11650396 1.50053894 6.13149298 3.06181958 9 5 C9.33 5.99 9.66 6.98 10 8 C9.01 8 8.02 8 7 8 C6.67 9.32 6.34 10.64 6 12 C5.01 11.67 4.02 11.34 3 11 C3 8.69 3 6.38 3 4 C2.01 3.67 1.02 3.34 0 3 C0 2.01 0 1.02 0 0 Z " fill="#70C2F2" transform="translate(36,71)"/>
<path d="M0 0 C0.66 0 1.32 0 2 0 C2.66 1.65 3.32 3.3 4 5 C3.01 5.33 2.02 5.66 1 6 C0.11024502 8.40205095 0.11024502 8.40205095 -0.38671875 11.34765625 C-0.60263672 12.42724609 -0.81855469 13.50683594 -1.04101562 14.61914062 C-1.25435547 15.75544922 -1.46769531 16.89175781 -1.6875 18.0625 C-1.91244141 19.20267578 -2.13738281 20.34285156 -2.36914062 21.51757812 C-2.92475578 24.3429403 -3.46776574 27.17015623 -4 30 C-4.33 30 -4.66 30 -5 30 C-4.55664133 23.05914359 -3.62928207 16.2322781 -2.5 9.375 C-2.36940186 8.56885254 -2.23880371 7.76270508 -2.10424805 6.93212891 C-1.12376909 1.12376909 -1.12376909 1.12376909 0 0 Z " fill="#B7B7B7" transform="translate(127,15)"/>
<path d="M0 0 C4.95 0 9.9 0 15 0 C15.66 1.32 16.32 2.64 17 4 C14.69 4.33 12.38 4.66 10 5 C10 4.34 10 3.68 10 3 C6.7 2.67 3.4 2.34 0 2 C0 1.34 0 0.68 0 0 Z " fill="#CD237C" transform="translate(54,81)"/>
<path d="M0 0 C0.33 0 0.66 0 1 0 C0.59722507 7.54673035 0.17808026 14.73973247 -2 22 C-3.65 22 -5.3 22 -7 22 C-7 20.02 -7 18.04 -7 16 C-6.01 16 -5.02 16 -4 16 C-1.72525723 12.58788584 -1.43370356 10.3431471 -0.875 6.3125 C-0.62363281 4.54326172 -0.62363281 4.54326172 -0.3671875 2.73828125 C-0.24601562 1.83464844 -0.12484375 0.93101563 0 0 Z " fill="#8C8C8C" transform="translate(128,31)"/>
<path d="M0 0 C2 3 2 3 3 5 C4.65 5 6.3 5 8 5 C7.67 5.66 7.34 6.32 7 7 C5.3603125 6.9071875 5.3603125 6.9071875 3.6875 6.8125 C1.8621875 6.9053125 1.8621875 6.9053125 0 7 C-0.6496875 7.7425 -0.6496875 7.7425 -1.3125 8.5 C-3.92607328 10.82317625 -6.27927023 10.28873455 -9.6875 10.1875 C-11.45673828 10.14689453 -11.45673828 10.14689453 -13.26171875 10.10546875 C-14.16535156 10.07066406 -15.06898437 10.03585938 -16 10 C-15.67 9.01 -15.34 8.02 -15 7 C-15 7.66 -15 8.32 -15 9 C-11.7 9 -8.4 9 -5 9 C-5.33 6.69 -5.66 4.38 -6 2 C-5.01 3.485 -5.01 3.485 -4 5 C-3.34 4.67 -2.68 4.34 -2 4 C-1.34 4.33 -0.68 4.66 0 5 C0 3.35 0 1.7 0 0 Z " fill="#AABDC6" transform="translate(68,19)"/>
<path d="M0 0 C1.67542976 0.28604898 3.34385343 0.61781233 5 1 C5.75 2.6875 5.75 2.6875 6 5 C3.78514551 8.36329756 1.32150867 10.74611912 -2 13 C-2.66 12.67 -3.32 12.34 -4 12 C-2.75 9.0625 -2.75 9.0625 -1 6 C1.1875 5.125 1.1875 5.125 3 5 C3 4.01 3 3.02 3 2 C1.68 1.67 0.36 1.34 -1 1 C-0.67 0.67 -0.34 0.34 0 0 Z " fill="#6FD288" transform="translate(85,16)"/>
<path d="M0 0 C0.78375 0.04125 1.5675 0.0825 2.375 0.125 C3.57772819 2.53045638 3.47571472 4.07496953 3.4375 6.75 C3.42847656 7.56726563 3.41945313 8.38453125 3.41015625 9.2265625 C3.39855469 9.85304688 3.38695313 10.47953125 3.375 11.125 C1.375 9.125 1.375 9.125 0.375 6.0625 C-0.28252556 3.00349194 -0.28252556 3.00349194 -2.625 2.125 C-2.625 6.085 -2.625 10.045 -2.625 14.125 C-5.00150833 9.37198333 -4.96046255 7.32466951 -4.625 2.125 C-2.625 0.125 -2.625 0.125 0 0 Z " fill="#B4A6CE" transform="translate(64.625,6.875)"/>
<path d="M0 0 C5.28 0 10.56 0 16 0 C16 0.33 16 0.66 16 1 C12.37 1 8.74 1 5 1 C5 1.66 5 2.32 5 3 C8.3 3.33 11.6 3.66 15 4 C15 4.33 15 4.66 15 5 C8.565 5.495 8.565 5.495 2 6 C1.34 4.02 0.68 2.04 0 0 Z " fill="#BB3583" transform="translate(49,80)"/>
<path d="M0 0 C0.66 0 1.32 0 2 0 C2.226875 0.928125 2.45375 1.85625 2.6875 2.8125 C4.23217522 6.56385411 5.55883593 7.09830406 9 9 C9 9.99 9 10.98 9 12 C6.20508215 12.23290982 4.30085596 12.12196863 1.6875 11.0625 C-1.01923334 7.75427036 -0.31024137 4.11069817 0 0 Z " fill="#2B2B2B" transform="translate(263,28)"/>
<path d="M0 0 C0.763125 0.350625 1.52625 0.70125 2.3125 1.0625 C5.04759379 2.32360884 5.04759379 2.32360884 8 1 C8.33 2.65 8.66 4.3 9 6 C5.30458414 6.95024979 2.69541586 6.95024979 -1 6 C-1.042721 4.33388095 -1.04063832 2.66617115 -1 1 C-0.67 0.67 -0.34 0.34 0 0 Z " fill="#C3C3C3" transform="translate(275,6)"/>
<path d="M0 0 C2.73961599 1.369808 3.27531568 3.3370115 4.40234375 6.078125 C5.23605798 8.7590884 5.20345414 11.21946008 5 14 C4.34 13.67 3.68 13.34 3 13 C2.34 13.99 1.68 14.98 1 16 C-0.14077657 12.57767028 -0.09815117 9.91326783 -0.0625 6.3125 C-0.05347656 5.13300781 -0.04445312 3.95351562 -0.03515625 2.73828125 C-0.02355469 1.83464844 -0.01195312 0.93101563 0 0 Z " fill="#2C2C2C" transform="translate(161,75)"/>
<path d="M0 0 C0.66 0 1.32 0 2 0 C1 5 0 10 -1 15 C-1.99 15 -2.98 15 -4 15 C-4 11.7 -4 8.4 -4 5 C-3.34 5 -2.68 5 -2 5 C-1.7834375 4.0409375 -1.7834375 4.0409375 -1.5625 3.0625 C-1 1 -1 1 0 0 Z " fill="#121212" transform="translate(224,76)"/>
<path d="M0 0 C4.00161251 1.37198143 6.99362597 2.99362597 10 6 C10.9375 9.125 10.9375 9.125 11 12 C10.34 12.66 9.68 13.32 9 14 C8.67 11.69 8.34 9.38 8 7 C7.67 7 7.34 7 7 7 C6.67 8.65 6.34 10.3 6 12 C5.62875 11.1028125 5.62875 11.1028125 5.25 10.1875 C3.83629988 7.71352479 2.34944617 6.56629745 0 5 C0.99 5 1.98 5 3 5 C3 4.01 3 3.02 3 2 C2.01 1.67 1.02 1.34 0 1 C0 0.67 0 0.34 0 0 Z " fill="#878787" transform="translate(269,35)"/>
<path d="M0 0 C2.625 0.375 2.625 0.375 5 1 C5.38218767 2.65614657 5.71395102 4.32457024 6 6 C5 7 5 7 1.9375 7.0625 C0.968125 7.041875 -0.00125 7.02125 -1 7 C-1.625 4.625 -1.625 4.625 -2 2 C-1.34 1.34 -0.68 0.68 0 0 Z " fill="#ACACAC" transform="translate(174,61)"/>
<path d="M0 0 C0.66 0.33 1.32 0.66 2 1 C1.75 3.375 1.75 3.375 1 6 C-2.11609628 8.42363044 -5.17372685 8.17392151 -9 8 C-9 7.34 -9 6.68 -9 6 C-8.34 6 -7.68 6 -7 6 C-7 5.34 -7 4.68 -7 4 C-1.7265625 0.77734375 -1.7265625 0.77734375 0 0 Z " fill="#DD335C" transform="translate(36,41)"/>
<path d="M0 0 C0.66 0.33 1.32 0.66 2 1 C2 3.31 2 5.62 2 8 C0.68 8.33 -0.64 8.66 -2 9 C-2 10.32 -2 11.64 -2 13 C-2.99 13 -3.98 13 -5 13 C-3.25740319 3.40546697 -3.25740319 3.40546697 0 0 Z " fill="#F7A912" transform="translate(29,70)"/>
<path d="M0 0 C0.33 0 0.66 0 1 0 C1.03738281 0.68707031 1.07476562 1.37414063 1.11328125 2.08203125 C1.17902344 2.98308594 1.24476563 3.88414063 1.3125 4.8125 C1.37050781 5.70582031 1.42851562 6.59914063 1.48828125 7.51953125 C2.06313581 10.30604 2.8206856 11.24135754 5 13 C5 11.35 5 9.7 5 8 C9.875 12.75 9.875 12.75 11 15 C9.68 15.33 8.36 15.66 7 16 C7.66 16.99 8.32 17.98 9 19 C4.94238433 17.49717938 1.8902314 14.87914957 0 11 C-0.41297733 7.29340099 -0.29726158 3.7124669 0 0 Z " fill="#8B8B8B" transform="translate(223,33)"/>
<path d="M0 0 C1.67542976 0.28604898 3.34385343 0.61781233 5 1 C5.38218767 2.65614657 5.71395102 4.32457024 6 6 C5 7 5 7 2.5625 7.1875 C0 7 0 7 -2 5 C-1.46428571 1.46428571 -1.46428571 1.46428571 0 0 Z " fill="#A7A7A7" transform="translate(174,13)"/>
<path d="M0 0 C2.0625 1.875 2.0625 1.875 4 5 C4.0571754 8.40453547 3.59785505 11.65331142 3 15 C0.5 12.75 0.5 12.75 -2 10 C-2 8.68 -2 7.36 -2 6 C-1.01 6 -0.02 6 1 6 C0.67 4.02 0.34 2.04 0 0 Z " fill="#686868" transform="translate(131,68)"/>
<path d="M0 0 C3.63 0 7.26 0 11 0 C11.66 1.32 12.32 2.64 13 4 C11.02 4.99 11.02 4.99 9 6 C8.01 5.34 7.02 4.68 6 4 C6 3.34 6 2.68 6 2 C4.35 2.33 2.7 2.66 1 3 C0.67 2.01 0.34 1.02 0 0 Z " fill="#4C4C4C" transform="translate(266,25)"/>
<path d="M0 0 C0 0.66 0 1.32 0 2 C-0.99 2.495 -0.99 2.495 -2 3 C-2.33 3.66 -2.66 4.32 -3 5 C-3.66 4.67 -4.32 4.34 -5 4 C-5 5.65 -5 7.3 -5 9 C-6.65 9 -8.3 9 -10 9 C-10.33 8.34 -10.66 7.68 -11 7 C-7.75404061 2.5947694 -5.63852303 0 0 0 Z " fill="#E8762A" transform="translate(80,72)"/>
<path d="M0 0 C2 1 2 1 2.6328125 2.85546875 C3.5740148 7.31497489 4.23530026 11.41164496 4 16 C3.34 16.33 2.68 16.66 2 17 C2 15.68 2 14.36 2 13 C1.34 13 0.68 13 0 13 C0 8.71 0 4.42 0 0 Z " fill="#0E0E0E" transform="translate(161,27)"/>
<path d="M0 0 C1 2 1 2 0.5 5.375 C0.06882966 8.50098494 -0.03897733 10.11395187 1 13 C0.01 13 -0.98 13 -2 13 C-2.33 13.66 -2.66 14.32 -3 15 C-5.35463618 13.15724125 -5.98190819 12.06935196 -6.75 9.125 C-6.98951839 6.13102009 -6.7641019 3.88660716 -6 1 C-5.67 1 -5.34 1 -5 1 C-5 4.3 -5 7.6 -5 11 C-4.01 11 -3.02 11 -2 11 C-2.061875 9.1128125 -2.061875 9.1128125 -2.125 7.1875 C-2.2390374 3.70935927 -2.05925681 3.08888522 0 0 Z " fill="#858585" transform="translate(225,80)"/>
<path d="M0 0 C0 1.32 0 2.64 0 4 C-1.32 4 -2.64 4 -4 4 C-4.99 5.485 -4.99 5.485 -6 7 C-6.99 8.485 -6.99 8.485 -8 10 C-9.32 10 -10.64 10 -12 10 C-10.81940306 6.63983948 -9.8423986 4.21075447 -7 2 C-2.68421053 0 -2.68421053 0 0 0 Z " fill="#C8287E" transform="translate(40,85)"/>
<path d="M0 0 C6.75 0.75 6.75 0.75 9 3 C8.75 6.0625 8.75 6.0625 8 9 C7.01 9.495 7.01 9.495 6 10 C5.896875 9.360625 5.79375 8.72125 5.6875 8.0625 C5.3471875 7.0415625 5.3471875 7.0415625 5 6 C4.01 5.67 3.02 5.34 2 5 C2 4.01 2 3.02 2 2 C1.34 2 0.68 2 0 2 C0 1.34 0 0.68 0 0 Z " fill="#2F2F2F" transform="translate(265,85)"/>
<path d="M0 0 C0.0580476 3.27075883 0.09361165 6.54138524 0.125 9.8125 C0.14175781 10.74126953 0.15851562 11.67003906 0.17578125 12.62695312 C0.18222656 13.51962891 0.18867187 14.41230469 0.1953125 15.33203125 C0.20578613 16.15421143 0.21625977 16.9763916 0.22705078 17.82348633 C0 20 0 20 -2 23 C-1.67 16.73 -1.34 10.46 -1 4 C-1.99 4 -2.98 4 -4 4 C-4 6.31 -4 8.62 -4 11 C-4.33 11 -4.66 11 -5 11 C-5 8.03 -5 5.06 -5 2 C-1 0 -1 0 0 0 Z " fill="#EEA433" transform="translate(35,47)"/>
<path d="M0 0 C0.66 1.32 1.32 2.64 2 4 C2.66 4 3.32 4 4 4 C4 7.63 4 11.26 4 15 C3.01 15 2.02 15 1 15 C0.67 10.05 0.34 5.1 0 0 Z " fill="#3DB9F8" transform="translate(49,90)"/>
<path d="M0 0 C2.475 0.99 2.475 0.99 5 2 C5 2.66 5 3.32 5 4 C6.65 4 8.3 4 10 4 C10.33 4.66 10.66 5.32 11 6 C9.58376784 6.05447047 8.16691809 6.09300508 6.75 6.125 C5.96109375 6.14820312 5.1721875 6.17140625 4.359375 6.1953125 C1.79268059 5.9828378 0.2083933 5.28654105 -2 4 C-1.34 2.68 -0.68 1.36 0 0 Z " fill="#3D3D3D" transform="translate(258,94)"/>
<path d="M0 0 C0.33 0.66 0.66 1.32 1 2 C0.67 2.99 0.34 3.98 0 5 C0.99 5 1.98 5 3 5 C1.90931332 8.77545388 1.0916909 11.47043472 -2 14 C-1.67 12.02 -1.34 10.04 -1 8 C-2.98 8.99 -2.98 8.99 -5 10 C-5 6.41954683 -4.19632485 5.70316905 -2 3 C-1.34 2.01 -0.68 1.02 0 0 Z " fill="#8C8C8C" transform="translate(149,35)"/>
<path d="M0 0 C-1.66666667 3.33333333 -3.33333333 6.66666667 -5 10 C-5.66 10 -6.32 10 -7 10 C-7.33 11.32 -7.66 12.64 -8 14 C-7.65322581 4.91451613 -7.65322581 4.91451613 -5.125 1.375 C-3 0 -3 0 0 0 Z " fill="#0E0E0E" transform="translate(193,28)"/>
<path d="M0 0 C0.78503906 0.00644531 1.57007813 0.01289062 2.37890625 0.01953125 C4.4375 0.1875 4.4375 0.1875 6.4375 1.1875 C6.4375 1.8475 6.4375 2.5075 6.4375 3.1875 C7.0975 3.5175 7.7575 3.8475 8.4375 4.1875 C7.4475 4.8475 6.4575 5.5075 5.4375 6.1875 C5.4375 5.5275 5.4375 4.8675 5.4375 4.1875 C4.40689453 4.09662109 4.40689453 4.09662109 3.35546875 4.00390625 C2.45441406 3.92011719 1.55335938 3.83632812 0.625 3.75 C-0.26832031 3.66878906 -1.16164062 3.58757812 -2.08203125 3.50390625 C-4.5625 3.1875 -4.5625 3.1875 -7.5625 2.1875 C-4.404724 0.082316 -3.60852866 -0.06539344 0 0 Z " fill="#0F0F0F" transform="translate(201.5625,72.8125)"/>
<path d="M0 0 C0.99 0.66 1.98 1.32 3 2 C3 2.66 3 3.32 3 4 C1.68 4 0.36 4 -1 4 C-0.67 5.98 -0.34 7.96 0 10 C-1.98 8.35 -3.96 6.7 -6 5 C-4.62308038 2.24616077 -2.63279958 1.48516899 0 0 Z " fill="#9D8AC1" transform="translate(74,32)"/>
<path d="M0 0 C0.66 0.33 1.32 0.66 2 1 C1.360625 1.78375 0.72125 2.5675 0.0625 3.375 C-1.98142313 5.79539281 -1.98142313 5.79539281 -3 8 C-1.68 8 -0.36 8 1 8 C0.67 8.99 0.34 9.98 0 11 C-1.65 10.67 -3.3 10.34 -5 10 C-5.68359375 8.203125 -5.68359375 8.203125 -6 6 C-4.78515625 4.296875 -4.78515625 4.296875 -3.0625 2.75 C-2.21365234 1.96882813 -2.21365234 1.96882813 -1.34765625 1.171875 C-0.90292969 0.78515625 -0.45820313 0.3984375 0 0 Z " fill="#D879A9" transform="translate(31,87)"/>
<path d="M0 0 C2.875 0.375 2.875 0.375 4.875 2.375 C4.875 3.365 4.875 4.355 4.875 5.375 C3.555 5.705 2.235 6.035 0.875 6.375 C0.545 5.385 0.215 4.395 -0.125 3.375 C-2.435 3.705 -4.745 4.035 -7.125 4.375 C-4.78988517 1.50101252 -3.75068199 0.45008184 0 0 Z " fill="#C062A2" transform="translate(40.125,82.625)"/>
<path d="M0 0 C1.98 0.495 1.98 0.495 4 1 C4 1.99 4 2.98 4 4 C5.65 4.33 7.3 4.66 9 5 C5.77208445 7.1519437 4.71599191 7.20086443 1 7 C-0.0625 5.1875 -0.0625 5.1875 -1 3 C-0.67 2.01 -0.34 1.02 0 0 Z " fill="#7E58AA" transform="translate(88,45)"/>
<path d="M0 0 C0.33 0.66 0.66 1.32 1 2 C0.00390625 4.1640625 0.00390625 4.1640625 -1.4375 6.625 C-1.91058594 7.44226563 -2.38367188 8.25953125 -2.87109375 9.1015625 C-3.24363281 9.72804688 -3.61617187 10.35453125 -4 11 C-4.33 9.68 -4.66 8.36 -5 7 C-5.66 7 -6.32 7 -7 7 C-7 7.66 -7 8.32 -7 9 C-7.66 9 -8.32 9 -9 9 C-8.39816251 6.97954558 -7.72693904 4.97888961 -7 3 C-6.34 2.67 -5.68 2.34 -5 2 C-5 2.99 -5 3.98 -5 5 C-4.01 5 -3.02 5 -2 5 C-1.34 3.35 -0.68 1.7 0 0 Z " fill="#8A8A8A" transform="translate(155,81)"/>
<path d="M0 0 C1.98 0 3.96 0 6 0 C6 1.98 6 3.96 6 6 C4.33388095 6.042721 2.66617115 6.04063832 1 6 C0 5 0 5 -0.0625 2.4375 C-0.041875 1.633125 -0.02125 0.82875 0 0 Z " fill="#DB3466" transform="translate(14,72)"/>
<path d="M0 0 C1.98 0 3.96 0 6 0 C6 1.98 6 3.96 6 6 C4.33388095 6.042721 2.66617115 6.04063832 1 6 C0 5 0 5 -0.0625 2.4375 C-0.041875 1.633125 -0.02125 0.82875 0 0 Z " fill="#C22B7D" transform="translate(97,72)"/>
<path d="M0 0 C0.66 1.32 1.32 2.64 2 4 C1.01 5.485 1.01 5.485 0 7 C-5.96210294 7.52299149 -11.23913235 6.49355828 -17 5 C-13.73774826 4.02596275 -10.77261339 3.86584201 -7.375 3.875 C-6.41335937 3.87242188 -5.45171875 3.86984375 -4.4609375 3.8671875 C-2 4 -2 4 0 5 C0 3.35 0 1.7 0 0 Z " fill="#B9ACD3" transform="translate(107,48)"/>
<path d="M0 0 C0.66 0.309375 1.32 0.61875 2 0.9375 C5.70476015 2.24960255 9.09263991 2.60264135 13 3 C13 3.66 13 4.32 13 5 C11.23050905 5.10815225 9.45912513 5.18566083 7.6875 5.25 C6.70136719 5.29640625 5.71523437 5.3428125 4.69921875 5.390625 C2 5 2 5 0.14453125 2.984375 C-0.42201172 2.00210938 -0.42201172 2.00210938 -1 1 C-0.67 0.67 -0.34 0.34 0 0 Z " fill="#050505" transform="translate(230,47)"/>
<path d="M0 0 C0.66 0.33 1.32 0.66 2 1 C2 3.64 2 6.28 2 9 C0.68 9.33 -0.64 9.66 -2 10 C-2 9.34 -2 8.68 -2 8 C-2.99 7.67 -3.98 7.34 -5 7 C-3.68 6.67 -2.36 6.34 -1 6 C-1.020625 5.195625 -1.04125 4.39125 -1.0625 3.5625 C-1 1 -1 1 0 0 Z " fill="#2E2E2E" transform="translate(276,41)"/>
<path d="M0 0 C4.68738665 0.90723613 9.34193744 1.9547267 14 3 C14 3.66 14 4.32 14 5 C4.26004228 5.57293869 4.26004228 5.57293869 0 2 C0 1.34 0 0.68 0 0 Z " fill="#0A0A0A" transform="translate(190,47)"/>
<path d="M0 0 C1.32 0 2.64 0 4 0 C3.34 5.94 2.68 11.88 2 18 C1.67 18 1.34 18 1 18 C0.67 12.06 0.34 6.12 0 0 Z " fill="#E47E36" transform="translate(65,88)"/>
<path d="M0 0 C2.97 0.33 5.94 0.66 9 1 C9.33 2.65 9.66 4.3 10 6 C9.34 5.67 8.68 5.34 8 5 C7.67 5.66 7.34 6.32 7 7 C4.69 6.67 2.38 6.34 0 6 C0 5.67 0 5.34 0 5 C1.98 5 3.96 5 6 5 C4.12403473 1.64856825 4.12403473 1.64856825 0 0 Z " fill="#CD3B6B" transform="translate(65,80)"/>
<path d="M0 0 C0.22036864 3.85645121 -0.39644899 6.49223216 -2 10 C-2.66 10 -3.32 10 -4 10 C-3.9071875 8.824375 -3.9071875 8.824375 -3.8125 7.625 C-3.874375 6.75875 -3.93625 5.8925 -4 5 C-4.99 4.34 -5.98 3.68 -7 3 C-3.375 0 -3.375 0 0 0 Z " fill="#E0639F" transform="translate(89,70)"/>
<path d="M0 0 C4.29 0.33 8.58 0.66 13 1 C13 1.99 13 2.98 13 4 C12.34 4 11.68 4 11 4 C11 3.34 11 2.68 11 2 C10.01 2.495 10.01 2.495 9 3 C7.45976004 3.06950541 5.91665012 3.08452357 4.375 3.0625 C3.14910156 3.04896484 3.14910156 3.04896484 1.8984375 3.03515625 C0.95871094 3.01775391 0.95871094 3.01775391 0 3 C0 2.01 0 1.02 0 0 Z " fill="#3BB9FB" transform="translate(11,62)"/>
<path d="M0 0 C0 4.62 0 9.24 0 14 C-0.66 14 -1.32 14 -2 14 C-2 10.37 -2 6.74 -2 3 C-6.455 3.495 -6.455 3.495 -11 4 C-7.5224005 1.03760042 -4.56330809 0 0 0 Z " fill="#F3BAA3" transform="translate(30,50)"/>
<path d="M0 0 C0.99 0.495 0.99 0.495 2 1 C2 1.66 2 2.32 2 3 C3.32 2.01 4.64 1.02 6 0 C9 4.75 9 4.75 9 7 C8.34 7 7.68 7 7 7 C7 6.34 7 5.68 7 5 C6.34 5 5.68 5 5 5 C4.67 6.32 4.34 7.64 4 9 C0 2.25 0 2.25 0 0 Z " fill="#7F7F7F" transform="translate(134,35)"/>
<path d="M0 0 C1.07310858 3.27185553 0.89263102 5.42947592 0.0625 8.75 C-0.13214844 9.54921875 -0.32679687 10.3484375 -0.52734375 11.171875 C-0.76130859 12.07679687 -0.76130859 12.07679687 -1 13 C-1.66 13 -2.32 13 -3 13 C-3 12.01 -3 11.02 -3 10 C-3.99 9.67 -4.98 9.34 -6 9 C-4.68 9 -3.36 9 -2 9 C-3.30155006 4.92035719 -3.30155006 4.92035719 -5 1 C-3.02 1.495 -3.02 1.495 -1 2 C-0.67 1.34 -0.34 0.68 0 0 Z " fill="#D084C8" transform="translate(84,37)"/>
<path d="M0 0 C2.97 0 5.94 0 9 0 C8.34 1.32 7.68 2.64 7 4 C6.67 3.34 6.34 2.68 6 2 C3.04590299 3.37154504 0.55991624 4.98863724 -2 7 C-2 5.35 -2 3.7 -2 2 C-1.34 1.67 -0.68 1.34 0 1 C0 0.67 0 0.34 0 0 Z " fill="#EEA48C" transform="translate(77,74)"/>
<path d="M0 0 C-1.82748903 2.46313739 -3.22976216 3.83428618 -6.26953125 4.48828125 C-8.51479346 4.72518293 -10.74455578 4.90361349 -13 5 C-13 4.34 -13 3.68 -13 3 C-4.57142857 -0.42857143 -4.57142857 -0.42857143 0 0 Z " fill="#E97520" transform="translate(97,63)"/>
<path d="M0 0 C1.65 0 3.3 0 5 0 C5 1.98 5 3.96 5 6 C3.35 6 1.7 6 0 6 C0 4.02 0 2.04 0 0 Z " fill="#47B8F1" transform="translate(14,37)"/>
<path d="M0 0 C1.9375 0.625 1.9375 0.625 4 2 C4.75 5.125 4.75 5.125 5 8 C4.01 8.495 4.01 8.495 3 9 C3 8.01 3 7.02 3 6 C2.01 6 1.02 6 0 6 C-0.38218767 4.34385343 -0.71395102 2.67542976 -1 1 C-0.67 0.67 -0.34 0.34 0 0 Z " fill="#F6AA0D" transform="translate(24,32)"/>
<path d="M0 0 C1.65 0 3.3 0 5 0 C4.01 0.495 4.01 0.495 3 1 C4.32 2.32 5.64 3.64 7 5 C7 4.34 7 3.68 7 3 C8.65 3 10.3 3 12 3 C10.375 4.5625 10.375 4.5625 8 6 C4.98266875 5.7586135 2.70716958 5.35358479 0 4 C0 2.68 0 1.36 0 0 Z " fill="#65A48C" transform="translate(69,26)"/>
<path d="M0 0 C0 0.33 0 0.66 0 1 C-1.65 1 -3.3 1 -5 1 C-4.72965366 3.43717258 -4.72965366 3.43717258 -4 6 C-3.01 6.66 -2.02 7.32 -1 8 C-5.75 7.25 -5.75 7.25 -8 5 C-7.625 2.375 -7.625 2.375 -7 0 C-3.86650268 -1.04449911 -3.01031744 -0.93423645 0 0 Z " fill="#E7AE80" transform="translate(44,96)"/>
<path d="M0 0 C1.30710938 0.25716797 1.30710938 0.25716797 2.640625 0.51953125 C3.68476563 0.85017578 3.68476563 0.85017578 4.75 1.1875 C5.08 1.8475 5.41 2.5075 5.75 3.1875 C5.19183594 3.02507812 4.63367188 2.86265625 4.05859375 2.6953125 C-1.49500276 1.47370921 -7.76693163 1.72534843 -13.25 3.1875 C-9.58488264 -1.24922102 -5.33735157 -1.11061657 0 0 Z " fill="#9B9B9B" transform="translate(238.25,71.8125)"/>
<path d="M0 0 C1.63001953 0.15275391 1.63001953 0.15275391 3.29296875 0.30859375 C4.54013672 0.43427734 4.54013672 0.43427734 5.8125 0.5625 C5.4825 1.2225 5.1525 1.8825 4.8125 2.5625 C0.5225 2.5625 -3.7675 2.5625 -8.1875 2.5625 C-8.5175 1.9025 -8.8475 1.2425 -9.1875 0.5625 C-5.76060364 -0.57979879 -3.57647782 -0.34611076 0 0 Z " fill="#09B933" transform="translate(58.1875,30.4375)"/>
<path d="M0 0 C2.475 0.99 2.475 0.99 5 2 C5 2.33 5 2.66 5 3 C3.35 3 1.7 3 0 3 C0.66 5.31 1.32 7.62 2 10 C0.35 8.35 -1.3 6.7 -3 5 C-2.01 3.35 -1.02 1.7 0 0 Z " fill="#F7D390" transform="translate(19,24)"/>
<path d="M0 0 C0.60328125 0.3609375 1.2065625 0.721875 1.828125 1.09375 C3.02695312 1.78984375 3.02695312 1.78984375 4.25 2.5 C5.03890625 2.9640625 5.8278125 3.428125 6.640625 3.90625 C9.17140893 5.28038776 9.17140893 5.28038776 13 5 C13 5.66 13 6.32 13 7 C11.02 7.33 9.04 7.66 7 8 C7 7.34 7 6.68 7 6 C5.68 6 4.36 6 3 6 C3 5.34 3 4.68 3 4 C2.34 4 1.68 4 1 4 C0.67 2.68 0.34 1.36 0 0 Z " fill="#7DD590" transform="translate(33,19)"/>
<path d="M0 0 C0 0.66 0 1.32 0 2 C-0.66 2.66 -1.32 3.32 -2 4 C-2.99 4 -3.98 4 -5 4 C-5 4.66 -5 5.32 -5 6 C-6.32 5.34 -7.64 4.68 -9 4 C-9 3.34 -9 2.68 -9 2 C-2.25 0 -2.25 0 0 0 Z " fill="#11B339" transform="translate(81,25)"/>
<path d="M0 0 C0.99 0.66 1.98 1.32 3 2 C2.34 2 1.68 2 1 2 C1 3.32 1 4.64 1 6 C-1 7.75 -1 7.75 -3 9 C-4 6 -4 6 -3.0625 3.8125 C-2.5365625 2.9153125 -2.5365625 2.9153125 -2 2 C-1.34 2 -0.68 2 0 2 C0 1.34 0 0.68 0 0 Z M-6 8 C-5.01 8.495 -5.01 8.495 -4 9 C-4.99 9.495 -4.99 9.495 -6 10 C-6 9.34 -6 8.68 -6 8 Z " fill="#222222" transform="translate(157,25)"/>
<path d="M0 0 C-0.33 1.65 -0.66 3.3 -1 5 C-2.32 4.67 -3.64 4.34 -5 4 C-5.33 2.68 -5.66 1.36 -6 0 C-2.25 -1.125 -2.25 -1.125 0 0 Z " fill="#DB73B8" transform="translate(98,85)"/>
<path d="M0 0 C1.258125 -0.04125 2.51625 -0.0825 3.8125 -0.125 C4.52019531 -0.14820312 5.22789062 -0.17140625 5.95703125 -0.1953125 C8 0 8 0 11 2 C11 2.66 11 3.32 11 4 C7.7 3.67 4.4 3.34 1 3 C0.67 2.01 0.34 1.02 0 0 Z " fill="#0D0D0D" transform="translate(262,73)"/>
<path d="M0 0 C0.33 0.99 0.66 1.98 1 3 C-0.4375 5.6875 -0.4375 5.6875 -2 8 C-3.32 7.67 -4.64 7.34 -6 7 C-5.67 6.01 -5.34 5.02 -5 4 C-4.34 4 -3.68 4 -3 4 C-2.67 3.01 -2.34 2.02 -2 1 C-1.34 0.67 -0.68 0.34 0 0 Z " fill="#0E0E0E" transform="translate(148,42)"/>
<path d="M0 0 C6.0546875 -0.1953125 6.0546875 -0.1953125 8 0 C8.66 0.66 9.32 1.32 10 2 C6.04 2.66 2.08 3.32 -2 4 C-1.34 2.68 -0.68 1.36 0 0 Z " fill="#0A0A0A" transform="translate(234,25)"/>
<path d="M0 0 C0.33 0.66 0.66 1.32 1 2 C0.34 2 -0.32 2 -1 2 C-0.67 2.99 -0.34 3.98 0 5 C1.98 4.67 3.96 4.34 6 4 C5.67 4.99 5.34 5.98 5 7 C0.25 8.125 0.25 8.125 -2 7 C-2 5.02 -2 3.04 -2 1 C-1.34 0.67 -0.68 0.34 0 0 Z " fill="#F5D893" transform="translate(19,82)"/>
<path d="M0 0 C4.875 0.875 4.875 0.875 6 2 C6.04063832 3.66617115 6.042721 5.33388095 6 7 C4.68 7 3.36 7 2 7 C1.67 6.01 1.34 5.02 1 4 C1.99 4 2.98 4 4 4 C4 3.34 4 2.68 4 2 C2.68 2 1.36 2 0 2 C0 1.34 0 0.68 0 0 Z " fill="#7558A3" transform="translate(76,39)"/>
<path d="M0 0 C2.09749995 2.35968744 2.96905704 3.54616994 3.1875 6.75 C3.125625 7.4925 3.06375 8.235 3 9 C2.01 8.67 1.02 8.34 0 8 C-0.38063221 5.6739143 -0.71269945 3.33944736 -1 1 C-0.67 0.67 -0.34 0.34 0 0 Z " fill="#0C0C0C" transform="translate(225,37)"/>
<path d="M0 0 C0.33 0 0.66 0 1 0 C1 3.3 1 6.6 1 10 C0.34 9.34 -0.32 8.68 -1 8 C-1.66 8.99 -2.32 9.98 -3 11 C-2.53199289 6.94393835 -2.12046792 3.53411321 0 0 Z " fill="#171717" transform="translate(127,74)"/>
<path d="M0 0 C3.3 0 6.6 0 10 0 C9.67 0.66 9.34 1.32 9 2 C6.71484375 2.4140625 6.71484375 2.4140625 3.9375 2.625 C3.01839844 2.69976562 2.09929687 2.77453125 1.15234375 2.8515625 C0.44207031 2.90054688 -0.26820313 2.94953125 -1 3 C-0.67 2.01 -0.34 1.02 0 0 Z " fill="#0B0B0B" transform="translate(230,73)"/>
<path d="M0 0 C0.99 0 1.98 0 3 0 C3 0.99 3 1.98 3 3 C5.31 3.33 7.62 3.66 10 4 C10 4.33 10 4.66 10 5 C7.03 5 4.06 5 1 5 C0.67 3.35 0.34 1.7 0 0 Z " fill="#D93B6C" transform="translate(9,49)"/>
<path d="M0 0 C1.65 0 3.3 0 5 0 C5.66 1.32 6.32 2.64 7 4 C5.1875 4.625 5.1875 4.625 3 5 C2.01 4.34 1.02 3.68 0 3 C0 2.01 0 1.02 0 0 Z " fill="#F5AA15" transform="translate(19,27)"/>
<path d="M0 0 C0.66 0 1.32 0 2 0 C2.66 1.65 3.32 3.3 4 5 C3.01 5.33 2.02 5.66 1 6 C0.34 6.99 -0.32 7.98 -1 9 C-1.09765625 2.84765625 -1.09765625 2.84765625 -1 1 C-0.67 0.67 -0.34 0.34 0 0 Z " fill="#6B6B6B" transform="translate(127,15)"/>
<path d="M0 0 C0.93065133 2.60582371 1.14917407 3.64198224 0.0625 6.25 C-0.4634375 7.11625 -0.4634375 7.11625 -1 8 C-1.99 8 -2.98 8 -4 8 C-3.42415568 5.61435923 -2.77772405 3.33317216 -2 1 C-1.34 0.67 -0.68 0.34 0 0 Z " fill="#0E0E0E" transform="translate(154,78)"/>
<path d="M0 0 C2 1 4 2 6 3 C6 4.32 6 5.64 6 7 C5.01 7 4.02 7 3 7 C3 6.01 3 5.02 3 4 C2.01 3.67 1.02 3.34 0 3 C0 2.01 0 1.02 0 0 Z " fill="#3CB9F9" transform="translate(36,71)"/>
<path d="M0 0 C-5.75 2 -5.75 2 -8 2 C-8 2.66 -8 3.32 -8 4 C-9.32 4.33 -10.64 4.66 -12 5 C-11.375 3.125 -11.375 3.125 -10 1 C-6.34962875 -0.66647383 -3.81601142 -1.4676967 0 0 Z " fill="#DF7650" transform="translate(92,64)"/>
<path d="M0 0 C1.32 0 2.64 0 4 0 C3.67 1.65 3.34 3.3 3 5 C1.68 5 0.36 5 -1 5 C-0.67 3.35 -0.34 1.7 0 0 Z " fill="#191919" transform="translate(175,62)"/>
<path d="M0 0 C2.97 0.495 2.97 0.495 6 1 C5.34 1.66 4.68 2.32 4 3 C3.01 3 2.02 3 1 3 C1 3.99 1 4.98 1 6 C-0.32 5.67 -1.64 5.34 -3 5 C-2.01 3.35 -1.02 1.7 0 0 Z " fill="#CD365D" transform="translate(42,33)"/>
<path d="M0 0 C0.66 0 1.32 0 2 0 C2 0.66 2 1.32 2 2 C2.99 2 3.98 2 5 2 C4.67 3.65 4.34 5.3 4 7 C3.34 7 2.68 7 2 7 C0 4 0 4 0 0 Z " fill="#202020" transform="translate(134,31)"/>
<path d="M0 0 C1.9375 0.75 1.9375 0.75 4 2 C4.75 4.125 4.75 4.125 5 6 C4.34 6 3.68 6 3 6 C3 5.34 3 4.68 3 4 C2.34 4 1.68 4 1 4 C0.67 5.32 0.34 6.64 0 8 C-0.38063221 5.6739143 -0.71269945 3.33944736 -1 1 C-0.67 0.67 -0.34 0.34 0 0 Z " fill="#505050" transform="translate(138,84)"/>
<path d="M0 0 C0 0.99 0 1.98 0 3 C-2.64 3 -5.28 3 -8 3 C-8 2.34 -8 1.68 -8 1 C-5.29120665 -0.35439668 -2.99066732 -0.06501451 0 0 Z " fill="#EE731E" transform="translate(106,62)"/>
<path d="M0 0 C0.33 0.66 0.66 1.32 1 2 C-2.3 2.33 -5.6 2.66 -9 3 C-9 2.34 -9 1.68 -9 1 C-6.04335481 -0.4783226 -3.25770263 -0.06032783 0 0 Z " fill="#0A0A0A" transform="translate(203,25)"/>
<path d="M0 0 C1.32 0 2.64 0 4 0 C3.67 1.65 3.34 3.3 3 5 C1.68 4.67 0.36 4.34 -1 4 C-0.67 2.68 -0.34 1.36 0 0 Z " fill="#171717" transform="translate(175,14)"/>
<path d="M0 0 C1.32 0.66 2.64 1.32 4 2 C4 3.32 4 4.64 4 6 C1.5625 5.625 1.5625 5.625 -1 5 C-1.33 4.34 -1.66 3.68 -2 3 C-1.34 3 -0.68 3 0 3 C0 2.01 0 1.02 0 0 Z " fill="#C12B7A" transform="translate(85,91)"/>
<path d="M0 0 C0.99 0.495 0.99 0.495 2 1 C2 1.66 2 2.32 2 3 C2.99 2.67 3.98 2.34 5 2 C5.66 2.33 6.32 2.66 7 3 C6.67 4.32 6.34 5.64 6 7 C5.01 7 4.02 7 3 7 C0 2.77777778 0 2.77777778 0 0 Z " fill="#8C8C8C" transform="translate(140,46)"/>
<path d="M0 0 C-4.455 2.97 -4.455 2.97 -9 6 C-9.33 5.01 -9.66 4.02 -10 3 C-8.68 3 -7.36 3 -6 3 C-6 2.01 -6 1.02 -6 0 C-2.25 -1.125 -2.25 -1.125 0 0 Z " fill="#F8A776" transform="translate(37,39)"/>
<path d="M0 0 C0.33 0 0.66 0 1 0 C1.08078641 2.12438339 1.13909141 4.2496323 1.1875 6.375 C1.22230469 7.55835938 1.25710937 8.74171875 1.29296875 9.9609375 C1.19628906 10.96382812 1.09960938 11.96671875 1 13 C0.01 13.66 -0.98 14.32 -2 15 C-1.34 10.05 -0.68 5.1 0 0 Z " fill="#F3A0BC" transform="translate(48,9)"/>
<path d="M0 0 C1.32 0.66 2.64 1.32 4 2 C2.515 4.475 2.515 4.475 1 7 C0.34 6.67 -0.32 6.34 -1 6 C-1.042721 4.33388095 -1.04063832 2.66617115 -1 1 C-0.67 0.67 -0.34 0.34 0 0 Z " fill="#CCCCCC" transform="translate(275,6)"/>
<path d="M0 0 C1.32 0.33 2.64 0.66 4 1 C4.33 2.32 4.66 3.64 5 5 C3.35 5 1.7 5 0 5 C0 3.35 0 1.7 0 0 Z " fill="#8C8C8C" transform="translate(126,63)"/>
<path d="M0 0 C-0.33 1.65 -0.66 3.3 -1 5 C-2.65 5 -4.3 5 -6 5 C-6 4.34 -6 3.68 -6 3 C-5.34 3 -4.68 3 -4 3 C-4 2.34 -4 1.68 -4 1 C-2 0 -2 0 0 0 Z " fill="#E5265A" transform="translate(33,44)"/>
<path d="M0 0 C1.98 0 3.96 0 6 0 C4.63016497 3.16115776 4.0109362 3.9927092 1 6 C0.67 4.02 0.34 2.04 0 0 Z " fill="#E9678B" transform="translate(42,35)"/>
<path d="M0 0 C2 3 2 3 3 5 C4.65 5 6.3 5 8 5 C7.67 5.66 7.34 6.32 7 7 C4.36 7 1.72 7 -1 7 C-0.67 4.69 -0.34 2.38 0 0 Z " fill="#B4B8CA" transform="translate(68,19)"/>
<path d="M0 0 C1.65 0 3.3 0 5 0 C5 1.32 5 2.64 5 4 C3.35 3.67 1.7 3.34 0 3 C0 2.01 0 1.02 0 0 Z " fill="#0BB837" transform="translate(98,39)"/>
<path d="M0 0 C1.65 0 3.3 0 5 0 C4.67 0.99 4.34 1.98 4 3 C3.34 3 2.68 3 2 3 C1.67 4.98 1.34 6.96 1 9 C0.67 9 0.34 9 0 9 C0 6.03 0 3.06 0 0 Z " fill="#D76788" transform="translate(49,7)"/>
<path d="M0 0 C0.33 0 0.66 0 1 0 C1.33 2.64 1.66 5.28 2 8 C1.01 8 0.02 8 -1 8 C-1.04241723 5.66705225 -1.04092937 3.33297433 -1 1 C-0.67 0.67 -0.34 0.34 0 0 Z " fill="#050505" transform="translate(221,83)"/>
<path d="M0 0 C0.66 0 1.32 0 2 0 C2.33 0.66 2.66 1.32 3 2 C3.99 2 4.98 2 6 2 C5.67 2.66 5.34 3.32 5 4 C5.66 4.33 6.32 4.66 7 5 C6.34 5.66 5.68 6.32 5 7 C0 1.125 0 1.125 0 0 Z " fill="#EB86CE" transform="translate(86,80)"/>
<path d="M0 0 C-1.12451727 2.9719385 -2.22293791 5.33440687 -4 8 C-4.66 7.67 -5.32 7.34 -6 7 C-5.39816251 4.97954558 -4.72693904 2.97888961 -4 1 C-2 0 -2 0 0 0 Z " fill="#F7D686" transform="translate(31,78)"/>
<path d="M0 0 C3.96 0.33 7.92 0.66 12 1 C11.67 1.99 11.34 2.98 11 4 C10.34 4 9.68 4 9 4 C9 3.34 9 2.68 9 2 C7.329375 2.061875 7.329375 2.061875 5.625 2.125 C2 2 2 2 0 0 Z " fill="#595959" transform="translate(195,48)"/>
<path d="M0 0 C-0.33 0.99 -0.66 1.98 -1 3 C-4.3 3 -7.6 3 -11 3 C-11 2.67 -11 2.34 -11 2 C-9.5422647 1.664061 -8.08378894 1.33133376 -6.625 1 C-5.40683594 0.7215625 -5.40683594 0.7215625 -4.1640625 0.4375 C-2 0 -2 0 0 0 Z " fill="#D73F6D" transform="translate(25,46)"/>
<path d="M0 0 C1.65 0 3.3 0 5 0 C5.33 1.32 5.66 2.64 6 4 C4.35 3.67 2.7 3.34 1 3 C0.67 2.01 0.34 1.02 0 0 Z " fill="#07B935" transform="translate(35,25)"/>
<path d="M0 0 C2.475 0.495 2.475 0.495 5 1 C5 1.99 5 2.98 5 4 C3.68 4 2.36 4 1 4 C0.67 2.68 0.34 1.36 0 0 Z " fill="#CB2282" transform="translate(78,87)"/>
<path d="M0 0 C2.97 0.33 5.94 0.66 9 1 C9 1.33 9 1.66 9 2 C7.35 2 5.7 2 4 2 C4 2.66 4 3.32 4 4 C2.68 3.34 1.36 2.68 0 2 C0 1.34 0 0.68 0 0 Z " fill="#282828" transform="translate(262,48)"/>
<path d="M0 0 C2.475 0.99 2.475 0.99 5 2 C4.67 2.99 4.34 3.98 4 5 C2.68 4.34 1.36 3.68 0 3 C0 2.01 0 1.02 0 0 Z " fill="#1A1A1A" transform="translate(230,47)"/>
</svg>
