<?xml version="1.0" encoding="utf-8"?>
<!-- Generator: Adobe Illustrator 25.2.3, SVG Export Plug-In . SVG Version: 6.00 Build 0)  -->
<svg version="1.1" id="Layer_1" xmlns="http://www.w3.org/2000/svg" xmlns:xlink="http://www.w3.org/1999/xlink" x="0px" y="0px"
	 viewBox="0 0 4052.72 1315.45" style="enable-background: new 0 0 4052.72 1315.45" xml:space="preserve">
<style type="text/css">
	.st0{fill:#0D0DC7;}
	.st1{fill:#FFFFFF;}
	.st2{fill:#FDFDFD;}
	.st3{opacity:0.47;}
	.st4{clip-path:url(#SVGID_2_);fill:#FFFFFF;}
	.st5{clip-path:url(#SVGID_2_);fill:#FEFEFE;}
	.st6{clip-path:url(#SVGID_2_);fill:#FDFDFD;}
	.st7{clip-path:url(#SVGID_2_);fill:#FCFCFC;}
	.st8{clip-path:url(#SVGID_2_);fill:#FBFBFB;}
	.st9{clip-path:url(#SVGID_2_);fill:#FAFAFA;}
	.st10{clip-path:url(#SVGID_2_);fill:#F9F9F9;}
	.st11{clip-path:url(#SVGID_2_);fill:#F8F8F8;}
	.st12{clip-path:url(#SVGID_2_);fill:#F7F7F7;}
	.st13{clip-path:url(#SVGID_2_);fill:#F6F6F6;}
	.st14{clip-path:url(#SVGID_2_);fill:#F5F5F5;}
	.st15{clip-path:url(#SVGID_2_);fill:#F4F4F4;}
	.st16{clip-path:url(#SVGID_2_);fill:#F4F3F3;}
	.st17{clip-path:url(#SVGID_2_);fill:#F3F3F3;}
	.st18{clip-path:url(#SVGID_2_);fill:#F2F2F2;}
	.st19{clip-path:url(#SVGID_2_);fill:#F1F1F1;}
	.st20{clip-path:url(#SVGID_2_);fill:#F1F0F0;}
	.st21{clip-path:url(#SVGID_2_);fill:#F0F0F0;}
	.st22{clip-path:url(#SVGID_2_);fill:#EFEFEF;}
	.st23{clip-path:url(#SVGID_2_);fill:#EFEEEE;}
	.st24{clip-path:url(#SVGID_2_);fill:#EEEEEE;}
	.st25{clip-path:url(#SVGID_2_);fill:#EDEDED;}
	.st26{clip-path:url(#SVGID_2_);fill:#EDECEC;}
	.st27{clip-path:url(#SVGID_2_);fill:#ECECEC;}
	.st28{clip-path:url(#SVGID_2_);fill:#EBEBEB;}
	.st29{clip-path:url(#SVGID_2_);fill:#EBEAEA;}
	.st30{clip-path:url(#SVGID_2_);fill:#EAEAEA;}
	.st31{clip-path:url(#SVGID_2_);fill:#E9E9E9;}
	.st32{clip-path:url(#SVGID_2_);fill:#E8E8E8;}
	.st33{clip-path:url(#SVGID_2_);fill:#E8E7E7;}
	.st34{clip-path:url(#SVGID_2_);fill:#E7E7E7;}
	.st35{clip-path:url(#SVGID_2_);fill:#E6E6E6;}
	.st36{clip-path:url(#SVGID_2_);fill:#E6E5E5;}
	.st37{clip-path:url(#SVGID_2_);fill:#E5E4E4;}
	.st38{clip-path:url(#SVGID_2_);fill:#E4E4E4;}
	.st39{clip-path:url(#SVGID_2_);fill:#E3E3E3;}
	.st40{clip-path:url(#SVGID_2_);fill:#E3E2E2;}
	.st41{clip-path:url(#SVGID_2_);fill:#E2E1E1;}
	.st42{clip-path:url(#SVGID_2_);fill:#E1E1E1;}
	.st43{clip-path:url(#SVGID_2_);fill:#E0E0E0;}
	.st44{clip-path:url(#SVGID_2_);fill:#DFDFDF;}
	.st45{clip-path:url(#SVGID_2_);fill:#DFDEDE;}
	.st46{clip-path:url(#SVGID_2_);fill:#DEDDDD;}
	.st47{clip-path:url(#SVGID_2_);fill:#DDDCDD;}
	.st48{clip-path:url(#SVGID_2_);fill:#DCDCDC;}
	.st49{clip-path:url(#SVGID_2_);fill:#DBDBDB;}
	.st50{clip-path:url(#SVGID_2_);fill:#DBDADA;}
	.st51{clip-path:url(#SVGID_2_);fill:#DAD9D9;}
	.st52{clip-path:url(#SVGID_2_);fill:#D9D8D8;}
	.st53{clip-path:url(#SVGID_2_);fill:#D8D7D8;}
	.st54{clip-path:url(#SVGID_2_);fill:#D7D7D7;}
	.st55{clip-path:url(#SVGID_2_);fill:#D6D6D6;}
	.st56{clip-path:url(#SVGID_2_);fill:#D6D5D5;}
	.st57{clip-path:url(#SVGID_2_);fill:#D5D4D4;}
	.st58{clip-path:url(#SVGID_2_);fill:#D4D3D3;}
	.st59{clip-path:url(#SVGID_2_);fill:#D3D2D2;}
	.st60{clip-path:url(#SVGID_2_);fill:#D2D1D2;}
	.st61{clip-path:url(#SVGID_2_);fill:#D1D0D1;}
	.st62{clip-path:url(#SVGID_2_);fill:#D0D0D0;}
	.st63{clip-path:url(#SVGID_2_);fill:#D0CFCF;}
	.st64{clip-path:url(#SVGID_2_);fill:#CFCECE;}
	.st65{clip-path:url(#SVGID_2_);fill:#CECDCD;}
	.st66{clip-path:url(#SVGID_2_);fill:#CDCCCC;}
	.st67{clip-path:url(#SVGID_2_);fill:#CCCBCB;}
	.st68{clip-path:url(#SVGID_2_);fill:#CBCACA;}
	.st69{clip-path:url(#SVGID_2_);fill:#CAC9C9;}
	.st70{clip-path:url(#SVGID_2_);fill:#C9C8C8;}
	.st71{clip-path:url(#SVGID_2_);fill:#C8C7C8;}
	.st72{clip-path:url(#SVGID_2_);fill:#C7C6C7;}
	.st73{clip-path:url(#SVGID_2_);fill:#C6C5C6;}
	.st74{clip-path:url(#SVGID_2_);fill:#C5C4C5;}
	.st75{clip-path:url(#SVGID_2_);fill:#C5C3C4;}
	.st76{clip-path:url(#SVGID_2_);fill:#C4C2C3;}
	.st77{clip-path:url(#SVGID_2_);fill:#C3C2C2;}
	.st78{clip-path:url(#SVGID_2_);fill:#C2C1C1;}
	.st79{clip-path:url(#SVGID_2_);fill:#C1C0C0;}
	.st80{clip-path:url(#SVGID_2_);fill:#C0BFBF;}
	.st81{clip-path:url(#SVGID_2_);fill:#BFBEBE;}
	.st82{clip-path:url(#SVGID_2_);fill:#BEBDBD;}
	.st83{clip-path:url(#SVGID_2_);fill:#BDBCBC;}
	.st84{clip-path:url(#SVGID_2_);fill:#BCBBBB;}
	.st85{clip-path:url(#SVGID_2_);fill:#BBBABA;}
	.st86{clip-path:url(#SVGID_2_);fill:#BAB9B9;}
	.st87{clip-path:url(#SVGID_2_);fill:#B9B8B8;}
	.st88{clip-path:url(#SVGID_2_);fill:#B8B7B7;}
	.st89{clip-path:url(#SVGID_2_);fill:#B7B5B6;}
	.st90{clip-path:url(#SVGID_2_);fill:#B6B4B5;}
	.st91{clip-path:url(#SVGID_2_);fill:#B5B3B4;}
	.st92{clip-path:url(#SVGID_2_);fill:#B4B2B3;}
	.st93{clip-path:url(#SVGID_2_);fill:#B3B1B2;}
	.st94{clip-path:url(#SVGID_2_);fill:#B2B0B1;}
	.st95{clip-path:url(#SVGID_2_);fill:#B1AFB0;}
	.st96{clip-path:url(#SVGID_2_);fill:#B0AEAF;}
	.st97{clip-path:url(#SVGID_2_);fill:#AFADAE;}
	.st98{clip-path:url(#SVGID_2_);fill:#AEACAC;}
	.st99{clip-path:url(#SVGID_2_);fill:#ADABAB;}
	.st100{clip-path:url(#SVGID_2_);fill:#ABAAAA;}
	.st101{clip-path:url(#SVGID_2_);fill:#AAA9A9;}
	.st102{clip-path:url(#SVGID_2_);fill:#A9A8A8;}
	.st103{clip-path:url(#SVGID_2_);fill:#A8A7A7;}
	.st104{clip-path:url(#SVGID_2_);fill:#A7A6A6;}
	.st105{clip-path:url(#SVGID_2_);fill:#A6A5A5;}
	.st106{clip-path:url(#SVGID_2_);fill:#A5A3A4;}
	.st107{clip-path:url(#SVGID_2_);fill:#A4A2A3;}
	.st108{clip-path:url(#SVGID_2_);fill:#A3A1A2;}
	.st109{clip-path:url(#SVGID_2_);fill:#A2A0A1;}
	.st110{clip-path:url(#SVGID_2_);fill:#A19F9F;}
	.st111{clip-path:url(#SVGID_2_);fill:#A09E9E;}
	.st112{clip-path:url(#SVGID_2_);fill:#9F9D9D;}
	.st113{clip-path:url(#SVGID_2_);fill:#9D9C9C;}
	.st114{clip-path:url(#SVGID_2_);fill:#9C9B9B;}
	.st115{clip-path:url(#SVGID_2_);fill:#9B999A;}
	.st116{clip-path:url(#SVGID_2_);fill:#9A9899;}
	.st117{clip-path:url(#SVGID_2_);fill:#999798;}
	.st118{clip-path:url(#SVGID_2_);fill:#989696;}
	.st119{clip-path:url(#SVGID_2_);fill:#979595;}
	.st120{clip-path:url(#SVGID_2_);fill:#969494;}
	.st121{clip-path:url(#SVGID_2_);fill:#959393;}
	.st122{clip-path:url(#SVGID_2_);fill:#939192;}
	.st123{clip-path:url(#SVGID_2_);fill:#929091;}
	.st124{clip-path:url(#SVGID_2_);fill:#918F90;}
	.st125{clip-path:url(#SVGID_2_);fill:#908E8E;}
	.st126{clip-path:url(#SVGID_2_);fill:#8F8D8D;}
	.st127{clip-path:url(#SVGID_2_);fill:#8E8C8C;}
	.st128{clip-path:url(#SVGID_2_);fill:#8C8A8B;}
	.st129{clip-path:url(#SVGID_2_);fill:#8B898A;}
	.st130{clip-path:url(#SVGID_2_);fill:#8A8889;}
	.st131{clip-path:url(#SVGID_2_);fill:#898787;}
	.st132{clip-path:url(#SVGID_2_);fill:#888686;}
	.st133{clip-path:url(#SVGID_2_);fill:#878485;}
	.st134{clip-path:url(#SVGID_2_);fill:#858384;}
	.st135{clip-path:url(#SVGID_2_);fill:#848283;}
	.st136{clip-path:url(#SVGID_2_);fill:#838181;}
	.st137{clip-path:url(#SVGID_2_);fill:#828080;}
	.st138{clip-path:url(#SVGID_2_);fill:#817E7F;}
	.st139{clip-path:url(#SVGID_2_);fill:#807D7E;}
	.st140{clip-path:url(#SVGID_2_);fill:#7E7C7D;}
	.st141{clip-path:url(#SVGID_2_);fill:#7D7B7B;}
	.st142{clip-path:url(#SVGID_2_);fill:#7C7A7A;}
	.st143{clip-path:url(#SVGID_2_);fill:#7B7879;}
	.st144{clip-path:url(#SVGID_2_);fill:#7A7778;}
	.st145{clip-path:url(#SVGID_2_);fill:#787677;}
	.st146{clip-path:url(#SVGID_2_);fill:#777575;}
	.st147{clip-path:url(#SVGID_2_);fill:#767374;}
	.st148{clip-path:url(#SVGID_2_);fill:#757273;}
	.st149{clip-path:url(#SVGID_2_);fill:#737172;}
	.st150{clip-path:url(#SVGID_2_);fill:#727070;}
	.st151{clip-path:url(#SVGID_2_);fill:#716E6F;}
	.st152{clip-path:url(#SVGID_2_);fill:#706D6E;}
	.st153{clip-path:url(#SVGID_2_);fill:#6F6C6D;}
	.st154{clip-path:url(#SVGID_2_);fill:#6D6B6B;}
	.st155{clip-path:url(#SVGID_2_);fill:#6C696A;}
	.st156{clip-path:url(#SVGID_2_);fill:#6B6869;}
	.st157{clip-path:url(#SVGID_2_);fill:#6A6768;}
	.st158{clip-path:url(#SVGID_2_);fill:#686666;}
	.st159{clip-path:url(#SVGID_2_);fill:#676465;}
	.st160{clip-path:url(#SVGID_2_);fill:#666364;}
	.st161{clip-path:url(#SVGID_2_);fill:#656262;}
	.st162{clip-path:url(#SVGID_2_);fill:#636061;}
	.st163{clip-path:url(#SVGID_2_);fill:#625F60;}
	.st164{clip-path:url(#SVGID_2_);fill:#615E5F;}
	.st165{clip-path:url(#SVGID_2_);fill:#5F5D5D;}
	.st166{clip-path:url(#SVGID_2_);fill:#5E5B5C;}
	.st167{clip-path:url(#SVGID_2_);fill:#5D5A5B;}
	.st168{clip-path:url(#SVGID_2_);fill:#5C5959;}
	.st169{clip-path:url(#SVGID_2_);fill:#5A5758;}
	.st170{clip-path:url(#SVGID_2_);fill:#595657;}
	.st171{clip-path:url(#SVGID_2_);fill:#585555;}
	.st172{clip-path:url(#SVGID_2_);fill:#565354;}
	.st173{clip-path:url(#SVGID_2_);fill:#555253;}
	.st174{clip-path:url(#SVGID_2_);fill:#545151;}
	.st175{clip-path:url(#SVGID_2_);fill:#524F50;}
	.st176{clip-path:url(#SVGID_2_);fill:#514E4F;}
	.st177{clip-path:url(#SVGID_2_);fill:#504D4D;}
	.st178{clip-path:url(#SVGID_2_);fill:#4F4B4C;}
	.st179{clip-path:url(#SVGID_2_);fill:#4D4A4B;}
	.st180{clip-path:url(#SVGID_2_);fill:#4C4949;}
	.st181{clip-path:url(#SVGID_2_);fill:#4B4748;}
	.st182{clip-path:url(#SVGID_2_);fill:#494647;}
	.st183{clip-path:url(#SVGID_2_);fill:#484545;}
	.st184{clip-path:url(#SVGID_2_);fill:#474344;}
	.st185{clip-path:url(#SVGID_2_);fill:#454243;}
	.st186{clip-path:url(#SVGID_2_);fill:#444141;}
	.st187{clip-path:url(#SVGID_2_);fill:#433F40;}
	.st188{clip-path:url(#SVGID_2_);fill:#413E3F;}
	.st189{clip-path:url(#SVGID_2_);fill:#403C3D;}
	.st190{clip-path:url(#SVGID_2_);fill:#3F3B3C;}
	.st191{clip-path:url(#SVGID_2_);fill:#3D3A3B;}
	.st192{clip-path:url(#SVGID_2_);fill:#3C3839;}
	.st193{clip-path:url(#SVGID_2_);fill:#3A3738;}
	.st194{clip-path:url(#SVGID_2_);fill:#393636;}
	.st195{clip-path:url(#SVGID_2_);fill:#383435;}
	.st196{clip-path:url(#SVGID_2_);fill:#363334;}
	.st197{clip-path:url(#SVGID_2_);fill:#353132;}
	.st198{clip-path:url(#SVGID_2_);fill:#343031;}
	.st199{clip-path:url(#SVGID_2_);fill:#322F30;}
	.st200{clip-path:url(#SVGID_2_);fill:#312D2E;}
	.st201{clip-path:url(#SVGID_2_);fill:#302C2D;}
	.st202{clip-path:url(#SVGID_2_);fill:#2E2A2B;}
	.st203{clip-path:url(#SVGID_2_);fill:#2D292A;}
	.st204{clip-path:url(#SVGID_2_);fill:#2B2828;}
	.st205{clip-path:url(#SVGID_2_);fill:#2A2627;}
	.st206{clip-path:url(#SVGID_2_);fill:#292526;}
	.st207{clip-path:url(#SVGID_2_);fill:#272324;}
	.st208{clip-path:url(#SVGID_2_);fill:#262223;}
	.st209{clip-path:url(#SVGID_2_);fill:#242021;}
	.st210{clip-path:url(#SVGID_2_);fill:#231F20;}
</style>
<g>
	<circle class="st0" cx="716.7" cy="657.7" r="567.7"/>
	<g>
		<g>
			<path class="st1" d="M 1070.7 852.6 c -21.6 -28.1 -44.3 -55 -69.8 -79.6 c -25.1 -24.3 -52.3 -46.3 -80.6 -66.8 c -53.6 -38.8 -113.2 -69 -175.6 -90.9 c -37.4 -13.2 -75.5 -21.9 -114.8 -26.3 c -18 -2 -36.2 -2.5 -54.2 -1 c -20.3 1.7 -40.8 4.6 -60.3 10.6 c -35.5 11 -68.3 29.2 -95.5 54.5 c -13.4 12.4 -25.2 27.3 -34.7 43 c -9.1 15.1 -16.3 32 -20.5 49.1 c -17 69.4 5.9 144 54.7 195.3 c 12.3 12.9 26.8 24.3 42 33.5 c 10.8 6.5 22.4 11.3 34 16 c 7.6 3.1 15.5 5.5 23.5 7.4 c 40.2 9.3 82.5 8.1 122.3 -2.1 c 19.3 -4.9 38.1 -12.6 55.9 -21.4 c 18.1 -8.9 34.1 -20.5 49.9 -33 c 14.4 -11.3 27.5 -24.4 40.3 -37.5 c 31.7 -32.3 60.6 -67.3 87.4 -103.7 c 30.8 -41.8 57.8 -86.5 79.7 -133.5 c 26.9 -57.7 47.7 -118.2 58.3 -181.1 c 3.3 -19.5 5.9 -39.1 7.7 -58.8 c 0.3 -7.5 -1.3 -14.4 -4.7 -20.8 c -2.2 -6.7 -5.9 -12.5 -11.2 -17.4 c -9.4 -9.4 -24.8 -16.4 -38.2 -15.8 c -14 0.6 -28.5 5.2 -38.2 15.8 c -2.8 3.6 -5.6 7.3 -8.5 10.9 c -4.9 8.4 -7.3 17.5 -7.4 27.3 c -0.8 8.4 -1.7 16.7 -2.8 25 c 0.6 -4.8 1.3 -9.6 1.9 -14.4 c -6 44.4 -16.9 88 -32 130.1 c -4.1 11.4 -8.6 22.7 -13.3 33.9 c 1.8 -4.3 3.6 -8.6 5.5 -12.9 c -20.9 49.5 -47.4 96.5 -78.2 140.5 c -7.8 11.1 -15.8 21.9 -24 32.6 c 2.8 -3.6 5.6 -7.3 8.5 -10.9 c -24.8 32 -51.8 62.4 -80.8 90.6 c -8.8 8.5 -17.7 16.9 -27.3 24.4 c 3.6 -2.8 7.3 -5.6 10.9 -8.5 c -15.4 11.9 -32.3 21.8 -50.2 29.4 c 4.3 -1.8 8.6 -3.6 12.9 -5.5 c -17.6 7.3 -36 12.4 -54.9 15 c 4.8 -0.6 9.6 -1.3 14.4 -1.9 c -17.7 2.3 -35.5 2.6 -53.2 0.3 c 4.8 0.6 9.6 1.3 14.4 1.9 c -14.5 -2 -28.6 -5.7 -42.2 -11.4 c 4.3 1.8 8.6 3.6 12.9 5.5 c -11.4 -4.9 -22.1 -11.1 -32 -18.6 c 3.6 2.8 7.3 5.6 10.9 8.5 c -10.5 -8.1 -19.8 -17.5 -28 -28 c 2.8 3.6 5.6 7.3 8.5 10.9 c -8.8 -11.4 -16 -23.9 -21.6 -37.1 c 1.8 4.3 3.6 8.6 5.5 12.9 c -5.5 -13.2 -9.3 -27 -11.3 -41.2 c 0.6 4.8 1.3 9.6 1.9 14.4 c -1.6 -12.6 -1.7 -25.3 -0.1 -37.9 c -0.6 4.8 -1.3 9.6 -1.9 14.4 c 1.6 -11.5 4.5 -22.8 9 -33.5 c -1.8 4.3 -3.6 8.6 -5.5 12.9 c 4.6 -10.8 10.5 -20.8 17.6 -30.1 c -2.8 3.6 -5.6 7.3 -8.5 10.9 c 8.4 -10.8 18.2 -20.4 29 -28.9 c -3.6 2.8 -7.3 5.6 -10.9 8.5 c 12.6 -9.6 26.4 -17.5 40.9 -23.8 c -4.3 1.8 -8.6 3.6 -12.9 5.5 c 16.8 -7.1 34.3 -11.7 52.4 -14.3 c -4.8 0.6 -9.6 1.3 -14.4 1.9 c 24.7 -3.3 49.6 -2.7 74.2 0.5 c -4.8 -0.6 -9.6 -1.3 -14.4 -1.9 c 44.4 6 87.7 19.9 128.9 37.3 c -4.3 -1.8 -8.6 -3.6 -12.9 -5.5 c 39.5 16.7 77.3 37.4 112.7 61.6 c 10 6.9 19.9 14 29.5 21.5 c -3.6 -2.8 -7.3 -5.6 -10.9 -8.5 c 42.9 33.2 81.6 71.6 114.8 114.5 c -2.8 -3.6 -5.6 -7.3 -8.5 -10.9 c 0.3 0.3 0.5 0.7 0.8 1 c 3.4 6.3 8 11.4 13.9 15.2 c 5.2 4.8 11.3 8 18.4 9.7 c 7.2 2.3 14.4 2.6 21.6 1 c 7.2 -0.3 13.9 -2.5 20.1 -6.4 c 11.6 -7.5 21.7 -18.5 24.9 -32.3 c 0.6 -4.8 1.3 -9.6 1.9 -14.4 C 1078.1 870.1 1075.6 861 1070.7 852.6 L 1070.7 852.6 z"/>
		</g>
		<g>
			<path class="st2" d="M 696.9 565.3 c -87.9 0 -159.4 -71.5 -159.4 -159.4 s 71.5 -159.4 159.4 -159.4 s 159.4 71.5 159.4 159.4 S 784.8 565.3 696.9 565.3 z M 696.9 330.8 c -41.4 0 -75.1 33.7 -75.1 75.1 c 0 41.4 33.7 75.1 75.1 75.1 s 75.1 -33.7 75.1 -75.1 C 772 364.5 738.3 330.8 696.9 330.8 z"/>
		</g>
		<g class="st3">
			<g>
				<defs>
					<path id="SVGID_1_" d="M 779.5 746.9 c 0 0 34.7 13.8 92.1 56.9 c 0 0 -23.5 33.6 -69.9 84.2 l -86 -66 C 715.7 821.9 733.5 805 779.5 746.9 z"/>
				</defs>
				<clipPath id="SVGID_2_">
					<use transform="matrix(1,0,0,1,0,0)" xlink:href="#SVGID_1_"  style="overflow: visible"/>
				</clipPath>
				<polygon class="st4" points="715.7,821.9 794.4,888 715.7,888"/>
				<polygon class="st4" points="715.7,821.3 795.2,888 794.4,888 715.7,821.9"/>
				<polygon class="st4" points="715.7,820.6 796,888 795.2,888 715.7,821.3"/>
				<polygon class="st4" points="715.7,820 796.8,888 796,888 715.7,820.6"/>
				<polygon class="st4" points="715.7,819.5 715.8,819.4 797.5,888 796.8,888 715.7,820"/>
				<polygon class="st5" points="715.8,819.4 716.1,819 798.4,888 797.5,888"/>
				<polygon class="st5" points="716.1,819 716.4,818.6 799.1,888 798.4,888"/>
				<polygon class="st5" points="716.4,818.6 716.8,818.2 799.9,888 799.1,888"/>
				<polygon class="st6" points="716.8,818.2 717.1,817.8 800.7,888 799.9,888"/>
				<polygon class="st6" points="717.1,817.8 717.4,817.4 801.5,888 800.7,888"/>
				<polygon class="st6" points="717.4,817.4 717.8,817 802.3,888 801.5,888"/>
				<polygon class="st7" points="717.8,817 718.1,816.6 803.1,888 802.3,888"/>
				<polygon class="st7" points="718.1,816.6 718.4,816.2 803.9,888 803.1,888"/>
				<polygon class="st7" points="718.4,816.2 718.7,815.9 804.7,888 803.9,888"/>
				<polygon class="st8" points="718.7,815.9 719.1,815.5 805.5,888 804.7,888"/>
				<polygon class="st8" points="719.1,815.5 719.4,815.1 806.3,888 805.5,888"/>
				<polygon class="st9" points="719.4,815.1 719.7,814.7 807.1,888 806.3,888"/>
				<polygon class="st9" points="719.7,814.7 720,814.3 807.8,887.9 807.8,888 807.1,888"/>
				
					<rect x="763.8" y="793.6" transform="matrix(0.6,-0.8,0.8,0.6,-378.9,889.3)" class="st10" width="0.5" height="114.6"/>
				
					<rect x="764.2" y="793.2" transform="matrix(0.6,-0.8,0.8,0.6,-378.5,889.4)" class="st10" width="0.5" height="114.6"/>
				
					<rect x="764.5" y="792.8" transform="matrix(0.6,-0.8,0.8,0.6,-378.1,889.5)" class="st11" width="0.5" height="114.6"/>
				
					<rect x="764.8" y="792.5" transform="matrix(0.6,-0.8,0.8,0.6,-377.7,889.6)" class="st11" width="0.5" height="114.6"/>
				
					<rect x="765.1" y="792.1" transform="matrix(0.6,-0.8,0.8,0.6,-377.2,889.7)" class="st12" width="0.5" height="114.6"/>
				
					<rect x="765.5" y="791.7" transform="matrix(0.6,-0.8,0.8,0.6,-376.8,889.8)" class="st12" width="0.5" height="114.6"/>
				
					<rect x="765.8" y="791.3" transform="matrix(0.6,-0.8,0.8,0.6,-376.4,890)" class="st13" width="0.5" height="114.6"/>
				
					<rect x="766.1" y="790.9" transform="matrix(0.6,-0.8,0.8,0.6,-376,890.1)" class="st13" width="0.5" height="114.6"/>
				
					<rect x="766.5" y="790.5" transform="matrix(0.6,-0.8,0.8,0.6,-375.6,890.2)" class="st14" width="0.5" height="114.6"/>
				
					<rect x="766.8" y="790.1" transform="matrix(0.6,-0.8,0.8,0.6,-375.2,890.3)" class="st14" width="0.5" height="114.6"/>
				
					<rect x="767.1" y="789.7" transform="matrix(0.6,-0.8,0.8,0.6,-374.7,890.4)" class="st15" width="0.5" height="114.6"/>
				
					<rect x="767.4" y="789.3" transform="matrix(0.6,-0.8,0.8,0.6,-374.3,890.5)" class="st16" width="0.5" height="114.6"/>
				
					<rect x="767.8" y="788.9" transform="matrix(0.6,-0.8,0.8,0.6,-373.9,890.6)" class="st17" width="0.5" height="114.6"/>
				
					<rect x="768.1" y="788.5" transform="matrix(0.6,-0.8,0.8,0.6,-373.5,890.7)" class="st18" width="0.5" height="114.6"/>
				
					<rect x="768.4" y="788.2" transform="matrix(0.6,-0.8,0.8,0.6,-373.1,890.8)" class="st18" width="0.5" height="114.6"/>
				
					<rect x="768.8" y="787.8" transform="matrix(0.6,-0.8,0.8,0.6,-372.7,891)" class="st19" width="0.5" height="114.6"/>
				
					<rect x="769.1" y="787.4" transform="matrix(0.6,-0.8,0.8,0.6,-372.2,891.1)" class="st20" width="0.5" height="114.6"/>
				
					<rect x="769.4" y="787" transform="matrix(0.6,-0.8,0.8,0.6,-371.8,891.2)" class="st21" width="0.5" height="114.6"/>
				
					<rect x="769.7" y="786.6" transform="matrix(0.6,-0.8,0.8,0.6,-371.4,891.3)" class="st22" width="0.5" height="114.6"/>
				
					<rect x="770.1" y="786.2" transform="matrix(0.6,-0.8,0.8,0.6,-371,891.4)" class="st23" width="0.5" height="114.6"/>
				
					<rect x="770.4" y="785.8" transform="matrix(0.6,-0.8,0.8,0.6,-370.6,891.5)" class="st24" width="0.5" height="114.6"/>
				
					<rect x="770.7" y="785.4" transform="matrix(0.6,-0.8,0.8,0.6,-370.2,891.6)" class="st25" width="0.5" height="114.6"/>
				
					<rect x="771" y="785" transform="matrix(0.6,-0.8,0.8,0.6,-369.7,891.7)" class="st26" width="0.5" height="114.6"/>
				
					<rect x="771.4" y="784.6" transform="matrix(0.6,-0.8,0.8,0.6,-369.3,891.9)" class="st27" width="0.5" height="114.6"/>
				
					<rect x="771.7" y="784.3" transform="matrix(0.6,-0.8,0.8,0.6,-368.9,892)" class="st28" width="0.5" height="114.6"/>
				
					<rect x="772" y="783.9" transform="matrix(0.6,-0.8,0.8,0.6,-368.5,892.1)" class="st29" width="0.5" height="114.6"/>
				
					<rect x="772.4" y="783.5" transform="matrix(0.6,-0.8,0.8,0.6,-368.1,892.2)" class="st30" width="0.5" height="114.6"/>
				
					<rect x="772.7" y="783.1" transform="matrix(0.6,-0.8,0.8,0.6,-367.7,892.3)" class="st31" width="0.5" height="114.6"/>
				
					<rect x="773" y="782.7" transform="matrix(0.6,-0.8,0.8,0.6,-367.3,892.4)" class="st32" width="0.5" height="114.6"/>
				
					<rect x="773.3" y="782.3" transform="matrix(0.6,-0.8,0.8,0.6,-366.8,892.5)" class="st33" width="0.5" height="114.6"/>
				
					<rect x="773.7" y="781.9" transform="matrix(0.6,-0.8,0.8,0.6,-366.4,892.6)" class="st34" width="0.5" height="114.6"/>
				
					<rect x="774" y="781.5" transform="matrix(0.6,-0.8,0.8,0.6,-366,892.7)" class="st35" width="0.5" height="114.6"/>
				
					<rect x="774.3" y="781.1" transform="matrix(0.6,-0.8,0.8,0.6,-365.6,892.9)" class="st36" width="0.5" height="114.6"/>
				
					<rect x="774.6" y="780.8" transform="matrix(0.6,-0.8,0.8,0.6,-365.2,893)" class="st37" width="0.5" height="114.6"/>
				
					<rect x="775" y="780.4" transform="matrix(0.6,-0.8,0.8,0.6,-364.8,893.1)" class="st38" width="0.5" height="114.6"/>
				
					<rect x="775.3" y="780" transform="matrix(0.6,-0.8,0.8,0.6,-364.3,893.2)" class="st39" width="0.5" height="114.6"/>
				
					<rect x="775.6" y="779.6" transform="matrix(0.6,-0.8,0.8,0.6,-363.9,893.3)" class="st40" width="0.5" height="114.6"/>
				
					<rect x="776" y="779.2" transform="matrix(0.6,-0.8,0.8,0.6,-363.5,893.4)" class="st41" width="0.5" height="114.6"/>
				
					<rect x="776.3" y="778.8" transform="matrix(0.6,-0.8,0.8,0.6,-363.1,893.5)" class="st42" width="0.5" height="114.6"/>
				
					<rect x="776.6" y="778.4" transform="matrix(0.6,-0.8,0.8,0.6,-362.7,893.6)" class="st43" width="0.5" height="114.6"/>
				
					<rect x="776.9" y="778" transform="matrix(0.6,-0.8,0.8,0.6,-362.3,893.7)" class="st44" width="0.5" height="114.6"/>
				
					<rect x="777.3" y="777.6" transform="matrix(0.6,-0.8,0.8,0.6,-361.8,893.9)" class="st45" width="0.5" height="114.6"/>
				
					<rect x="777.6" y="777.2" transform="matrix(0.6,-0.8,0.8,0.6,-361.4,894)" class="st46" width="0.5" height="114.6"/>
				
					<rect x="777.9" y="776.8" transform="matrix(0.6,-0.8,0.8,0.6,-361,894.1)" class="st47" width="0.5" height="114.6"/>
				
					<rect x="778.3" y="776.5" transform="matrix(0.6,-0.8,0.8,0.6,-360.6,894.2)" class="st48" width="0.5" height="114.6"/>
				
					<rect x="778.6" y="776.1" transform="matrix(0.6,-0.8,0.8,0.6,-360.2,894.3)" class="st49" width="0.5" height="114.6"/>
				
					<rect x="778.9" y="775.7" transform="matrix(0.6,-0.8,0.8,0.6,-359.8,894.4)" class="st50" width="0.5" height="114.6"/>
				
					<rect x="779.2" y="775.3" transform="matrix(0.6,-0.8,0.8,0.6,-359.4,894.5)" class="st51" width="0.5" height="114.6"/>
				
					<rect x="779.6" y="774.9" transform="matrix(0.6,-0.8,0.8,0.6,-358.9,894.6)" class="st52" width="0.5" height="114.6"/>
				
					<rect x="779.9" y="774.5" transform="matrix(0.6,-0.8,0.8,0.6,-358.5,894.7)" class="st53" width="0.5" height="114.6"/>
				
					<rect x="780.2" y="774.1" transform="matrix(0.6,-0.8,0.8,0.6,-358.1,894.9)" class="st54" width="0.5" height="114.6"/>
				
					<rect x="780.5" y="773.7" transform="matrix(0.6,-0.8,0.8,0.6,-357.7,895)" class="st55" width="0.5" height="114.6"/>
				
					<rect x="780.9" y="773.3" transform="matrix(0.6,-0.8,0.8,0.6,-357.3,895.1)" class="st56" width="0.5" height="114.6"/>
				
					<rect x="781.2" y="772.9" transform="matrix(0.6,-0.8,0.8,0.6,-356.9,895.2)" class="st57" width="0.5" height="114.6"/>
				
					<rect x="781.5" y="772.5" transform="matrix(0.6,-0.8,0.8,0.6,-356.4,895.3)" class="st58" width="0.5" height="114.6"/>
				
					<rect x="781.9" y="772.2" transform="matrix(0.6,-0.8,0.8,0.6,-356,895.4)" class="st59" width="0.5" height="114.6"/>
				
					<rect x="782.2" y="771.8" transform="matrix(0.6,-0.8,0.8,0.6,-355.6,895.5)" class="st60" width="0.5" height="114.6"/>
				
					<rect x="782.5" y="771.4" transform="matrix(0.6,-0.8,0.8,0.6,-355.2,895.6)" class="st61" width="0.5" height="114.6"/>
				
					<rect x="782.8" y="771" transform="matrix(0.6,-0.8,0.8,0.6,-354.8,895.8)" class="st62" width="0.5" height="114.6"/>
				
					<rect x="783.2" y="770.6" transform="matrix(0.6,-0.8,0.8,0.6,-354.4,895.9)" class="st63" width="0.5" height="114.6"/>
				
					<rect x="783.5" y="770.2" transform="matrix(0.6,-0.8,0.8,0.6,-353.9,896)" class="st64" width="0.5" height="114.6"/>
				
					<rect x="783.8" y="769.8" transform="matrix(0.6,-0.8,0.8,0.6,-353.5,896.1)" class="st65" width="0.5" height="114.6"/>
				
					<rect x="784.1" y="769.4" transform="matrix(0.6,-0.8,0.8,0.6,-353.1,896.2)" class="st66" width="0.5" height="114.6"/>
				
					<rect x="784.5" y="769" transform="matrix(0.6,-0.8,0.8,0.6,-352.7,896.3)" class="st67" width="0.5" height="114.6"/>
				
					<rect x="784.8" y="768.6" transform="matrix(0.6,-0.8,0.8,0.6,-352.3,896.4)" class="st68" width="0.5" height="114.6"/>
				
					<rect x="785.1" y="768.3" transform="matrix(0.6,-0.8,0.8,0.6,-351.9,896.5)" class="st69" width="0.5" height="114.6"/>
				
					<rect x="785.5" y="767.9" transform="matrix(0.6,-0.8,0.8,0.6,-351.4,896.6)" class="st70" width="0.5" height="114.6"/>
				
					<rect x="785.8" y="767.5" transform="matrix(0.6,-0.8,0.8,0.6,-351,896.8)" class="st71" width="0.5" height="114.6"/>
				
					<rect x="786.1" y="767.1" transform="matrix(0.6,-0.8,0.8,0.6,-350.6,896.9)" class="st72" width="0.5" height="114.6"/>
				
					<rect x="786.4" y="766.7" transform="matrix(0.6,-0.8,0.8,0.6,-350.2,897)" class="st73" width="0.5" height="114.6"/>
				
					<rect x="786.8" y="766.3" transform="matrix(0.6,-0.8,0.8,0.6,-349.8,897.1)" class="st74" width="0.5" height="114.6"/>
				
					<rect x="787.1" y="765.9" transform="matrix(0.6,-0.8,0.8,0.6,-349.4,897.2)" class="st75" width="0.5" height="114.6"/>
				
					<rect x="787.4" y="765.5" transform="matrix(0.6,-0.8,0.8,0.6,-349,897.3)" class="st76" width="0.5" height="114.6"/>
				
					<rect x="787.7" y="765.1" transform="matrix(0.6,-0.8,0.8,0.6,-348.5,897.4)" class="st77" width="0.5" height="114.6"/>
				
					<rect x="788.1" y="764.8" transform="matrix(0.6,-0.8,0.8,0.6,-348.1,897.5)" class="st78" width="0.5" height="114.6"/>
				
					<rect x="788.4" y="764.4" transform="matrix(0.6,-0.8,0.8,0.6,-347.7,897.6)" class="st79" width="0.5" height="114.6"/>
				
					<rect x="788.7" y="764" transform="matrix(0.6,-0.8,0.8,0.6,-347.3,897.8)" class="st80" width="0.5" height="114.6"/>
				
					<rect x="789" y="763.6" transform="matrix(0.6,-0.8,0.8,0.6,-346.9,897.9)" class="st81" width="0.5" height="114.6"/>
				
					<rect x="789.4" y="763.2" transform="matrix(0.6,-0.8,0.8,0.6,-346.5,898)" class="st82" width="0.5" height="114.6"/>
				
					<rect x="789.7" y="762.8" transform="matrix(0.6,-0.8,0.8,0.6,-346,898.1)" class="st83" width="0.5" height="114.6"/>
				
					<rect x="790" y="762.4" transform="matrix(0.6,-0.8,0.8,0.6,-345.6,898.2)" class="st84" width="0.5" height="114.6"/>
				
					<rect x="790.4" y="762" transform="matrix(0.6,-0.8,0.8,0.6,-345.2,898.3)" class="st85" width="0.5" height="114.6"/>
				
					<rect x="790.7" y="761.6" transform="matrix(0.6,-0.8,0.8,0.6,-344.8,898.4)" class="st86" width="0.5" height="114.6"/>
				
					<rect x="791" y="761.2" transform="matrix(0.6,-0.8,0.8,0.6,-344.4,898.5)" class="st87" width="0.5" height="114.6"/>
				
					<rect x="791.3" y="760.8" transform="matrix(0.6,-0.8,0.8,0.6,-344,898.6)" class="st88" width="0.5" height="114.6"/>
				
					<rect x="791.7" y="760.5" transform="matrix(0.6,-0.8,0.8,0.6,-343.5,898.8)" class="st89" width="0.5" height="114.6"/>
				
					<rect x="792" y="760.1" transform="matrix(0.6,-0.8,0.8,0.6,-343.1,898.9)" class="st90" width="0.5" height="114.6"/>
				
					<rect x="792.3" y="759.7" transform="matrix(0.6,-0.8,0.8,0.6,-342.7,899)" class="st91" width="0.5" height="114.6"/>
				
					<rect x="792.6" y="759.3" transform="matrix(0.6,-0.8,0.8,0.6,-342.3,899.1)" class="st92" width="0.5" height="114.6"/>
				
					<rect x="793" y="758.9" transform="matrix(0.6,-0.8,0.8,0.6,-341.9,899.2)" class="st93" width="0.5" height="114.6"/>
				
					<rect x="793.3" y="758.5" transform="matrix(0.6,-0.8,0.8,0.6,-341.5,899.3)" class="st94" width="0.5" height="114.6"/>
				
					<rect x="793.6" y="758.1" transform="matrix(0.6,-0.8,0.8,0.6,-341.1,899.4)" class="st95" width="0.5" height="114.6"/>
				
					<rect x="794" y="757.7" transform="matrix(0.6,-0.8,0.8,0.6,-340.6,899.5)" class="st96" width="0.5" height="114.6"/>
				
					<rect x="794.3" y="757.3" transform="matrix(0.6,-0.8,0.8,0.6,-340.2,899.7)" class="st97" width="0.5" height="114.6"/>
				
					<rect x="794.6" y="756.9" transform="matrix(0.6,-0.8,0.8,0.6,-339.8,899.8)" class="st98" width="0.5" height="114.6"/>
				
					<rect x="795" y="756.5" transform="matrix(0.6,-0.8,0.8,0.6,-339.4,899.9)" class="st99" width="0.5" height="114.6"/>
				
					<rect x="795.3" y="756.2" transform="matrix(0.6,-0.8,0.8,0.6,-339,900)" class="st100" width="0.5" height="114.6"/>
				
					<rect x="795.6" y="755.8" transform="matrix(0.6,-0.8,0.8,0.6,-338.6,900.1)" class="st101" width="0.5" height="114.6"/>
				
					<rect x="795.9" y="755.4" transform="matrix(0.6,-0.8,0.8,0.6,-338.1,900.2)" class="st102" width="0.5" height="114.6"/>
				
					<rect x="796.3" y="755" transform="matrix(0.6,-0.8,0.8,0.6,-337.7,900.3)" class="st103" width="0.5" height="114.6"/>
				
					<rect x="796.6" y="754.6" transform="matrix(0.6,-0.8,0.8,0.6,-337.3,900.4)" class="st104" width="0.5" height="114.6"/>
				
					<rect x="796.9" y="754.2" transform="matrix(0.6,-0.8,0.8,0.6,-336.9,900.5)" class="st105" width="0.5" height="114.6"/>
				
					<rect x="797.2" y="753.8" transform="matrix(0.6,-0.8,0.8,0.6,-336.5,900.7)" class="st106" width="0.5" height="114.6"/>
				
					<rect x="797.6" y="753.4" transform="matrix(0.6,-0.8,0.8,0.6,-336.1,900.8)" class="st107" width="0.5" height="114.6"/>
				
					<rect x="797.9" y="753" transform="matrix(0.6,-0.8,0.8,0.6,-335.6,900.9)" class="st108" width="0.5" height="114.6"/>
				
					<rect x="798.2" y="752.6" transform="matrix(0.6,-0.8,0.8,0.6,-335.2,901)" class="st109" width="0.5" height="114.6"/>
				
					<rect x="798.5" y="752.3" transform="matrix(0.6,-0.8,0.8,0.6,-334.8,901.1)" class="st110" width="0.5" height="114.6"/>
				
					<rect x="798.9" y="751.9" transform="matrix(0.6,-0.8,0.8,0.6,-334.4,901.2)" class="st111" width="0.5" height="114.6"/>
				
					<rect x="799.2" y="751.5" transform="matrix(0.6,-0.8,0.8,0.6,-334,901.3)" class="st112" width="0.5" height="114.6"/>
				
					<rect x="799.5" y="751.1" transform="matrix(0.6,-0.8,0.8,0.6,-333.6,901.4)" class="st113" width="0.5" height="114.6"/>
				
					<rect x="799.9" y="750.7" transform="matrix(0.6,-0.8,0.8,0.6,-333.1,901.5)" class="st114" width="0.5" height="114.6"/>
				
					<rect x="800.2" y="750.3" transform="matrix(0.6,-0.8,0.8,0.6,-332.7,901.7)" class="st115" width="0.5" height="114.6"/>
				
					<rect x="800.5" y="749.9" transform="matrix(0.6,-0.8,0.8,0.6,-332.3,901.8)" class="st116" width="0.5" height="114.6"/>
				
					<rect x="800.8" y="749.5" transform="matrix(0.6,-0.8,0.8,0.6,-331.9,901.9)" class="st117" width="0.5" height="114.6"/>
				
					<rect x="801.2" y="749.1" transform="matrix(0.6,-0.8,0.8,0.6,-331.5,902)" class="st118" width="0.5" height="114.6"/>
				
					<rect x="801.5" y="748.8" transform="matrix(0.6,-0.8,0.8,0.6,-331.1,902.1)" class="st119" width="0.5" height="114.6"/>
				
					<rect x="801.8" y="748.4" transform="matrix(0.6,-0.8,0.8,0.6,-330.7,902.2)" class="st120" width="0.5" height="114.6"/>
				
					<rect x="802.1" y="748" transform="matrix(0.6,-0.8,0.8,0.6,-330.2,902.3)" class="st121" width="0.5" height="114.6"/>
				
					<rect x="802.5" y="747.6" transform="matrix(0.6,-0.8,0.8,0.6,-329.8,902.4)" class="st122" width="0.5" height="114.6"/>
				
					<rect x="802.8" y="747.2" transform="matrix(0.6,-0.8,0.8,0.6,-329.4,902.6)" class="st123" width="0.5" height="114.6"/>
				
					<rect x="803.1" y="746.8" transform="matrix(0.6,-0.8,0.8,0.6,-329,902.7)" class="st124" width="0.5" height="114.6"/>
				
					<rect x="803.5" y="746.4" transform="matrix(0.6,-0.8,0.8,0.6,-328.6,902.8)" class="st125" width="0.5" height="114.6"/>
				
					<rect x="803.8" y="746" transform="matrix(0.6,-0.8,0.8,0.6,-328.2,902.9)" class="st126" width="0.5" height="114.6"/>
				
					<rect x="804.1" y="745.6" transform="matrix(0.6,-0.8,0.8,0.6,-327.7,903)" class="st127" width="0.5" height="114.6"/>
				
					<rect x="804.4" y="745.2" transform="matrix(0.6,-0.8,0.8,0.6,-327.3,903.1)" class="st128" width="0.5" height="114.6"/>
				
					<rect x="804.8" y="744.8" transform="matrix(0.6,-0.8,0.8,0.6,-326.9,903.2)" class="st129" width="0.5" height="114.6"/>
				
					<rect x="805.1" y="744.5" transform="matrix(0.6,-0.8,0.8,0.6,-326.5,903.3)" class="st130" width="0.5" height="114.6"/>
				
					<rect x="805.4" y="744.1" transform="matrix(0.6,-0.8,0.8,0.6,-326.1,903.4)" class="st131" width="0.5" height="114.6"/>
				
					<rect x="805.8" y="743.7" transform="matrix(0.6,-0.8,0.8,0.6,-325.7,903.6)" class="st132" width="0.5" height="114.6"/>
				
					<rect x="806.1" y="743.3" transform="matrix(0.6,-0.8,0.8,0.6,-325.2,903.7)" class="st133" width="0.5" height="114.6"/>
				
					<rect x="806.4" y="742.9" transform="matrix(0.6,-0.8,0.8,0.6,-324.8,903.8)" class="st134" width="0.5" height="114.6"/>
				
					<rect x="806.7" y="742.5" transform="matrix(0.6,-0.8,0.8,0.6,-324.4,903.9)" class="st135" width="0.5" height="114.6"/>
				
					<rect x="807.1" y="742.1" transform="matrix(0.6,-0.8,0.8,0.6,-324,904)" class="st136" width="0.5" height="114.6"/>
				
					<rect x="807.4" y="741.7" transform="matrix(0.6,-0.8,0.8,0.6,-323.6,904.1)" class="st137" width="0.5" height="114.6"/>
				
					<rect x="807.7" y="741.3" transform="matrix(0.6,-0.8,0.8,0.6,-323.2,904.2)" class="st138" width="0.5" height="114.6"/>
				
					<rect x="808" y="740.9" transform="matrix(0.6,-0.8,0.8,0.6,-322.8,904.3)" class="st139" width="0.5" height="114.6"/>
				
					<rect x="808.4" y="740.5" transform="matrix(0.6,-0.8,0.8,0.6,-322.3,904.4)" class="st140" width="0.5" height="114.6"/>
				
					<rect x="808.7" y="740.2" transform="matrix(0.6,-0.8,0.8,0.6,-321.9,904.6)" class="st141" width="0.5" height="114.6"/>
				
					<rect x="809" y="739.8" transform="matrix(0.6,-0.8,0.8,0.6,-321.5,904.7)" class="st142" width="0.5" height="114.6"/>
				
					<rect x="809.4" y="739.4" transform="matrix(0.6,-0.8,0.8,0.6,-321.1,904.8)" class="st143" width="0.5" height="114.6"/>
				
					<rect x="809.7" y="739" transform="matrix(0.6,-0.8,0.8,0.6,-320.7,904.9)" class="st144" width="0.5" height="114.6"/>
				
					<rect x="810" y="738.6" transform="matrix(0.6,-0.8,0.8,0.6,-320.3,905)" class="st145" width="0.5" height="114.6"/>
				
					<rect x="810.3" y="738.2" transform="matrix(0.6,-0.8,0.8,0.6,-319.8,905.1)" class="st146" width="0.5" height="114.6"/>
				
					<rect x="810.7" y="737.8" transform="matrix(0.6,-0.8,0.8,0.6,-319.4,905.2)" class="st147" width="0.5" height="114.6"/>
				
					<rect x="811" y="737.4" transform="matrix(0.6,-0.8,0.8,0.6,-319,905.3)" class="st148" width="0.5" height="114.6"/>
				
					<rect x="811.3" y="737" transform="matrix(0.6,-0.8,0.8,0.6,-318.6,905.4)" class="st149" width="0.5" height="114.6"/>
				
					<rect x="811.6" y="736.6" transform="matrix(0.6,-0.8,0.8,0.6,-318.2,905.6)" class="st150" width="0.5" height="114.6"/>
				
					<rect x="812" y="736.3" transform="matrix(0.6,-0.8,0.8,0.6,-317.8,905.7)" class="st151" width="0.5" height="114.6"/>
				
					<rect x="812.3" y="735.9" transform="matrix(0.6,-0.8,0.8,0.6,-317.3,905.8)" class="st152" width="0.5" height="114.6"/>
				
					<rect x="812.6" y="735.5" transform="matrix(0.6,-0.8,0.8,0.6,-316.9,905.9)" class="st153" width="0.5" height="114.6"/>
				
					<rect x="813" y="735.1" transform="matrix(0.6,-0.8,0.8,0.6,-316.5,906)" class="st154" width="0.5" height="114.6"/>
				
					<rect x="813.3" y="734.7" transform="matrix(0.6,-0.8,0.8,0.6,-316.1,906.1)" class="st155" width="0.5" height="114.6"/>
				
					<rect x="813.6" y="734.3" transform="matrix(0.6,-0.8,0.8,0.6,-315.7,906.2)" class="st156" width="0.5" height="114.6"/>
				
					<rect x="813.9" y="733.9" transform="matrix(0.6,-0.8,0.8,0.6,-315.3,906.3)" class="st157" width="0.5" height="114.6"/>
				
					<rect x="814.3" y="733.5" transform="matrix(0.6,-0.8,0.8,0.6,-314.8,906.5)" class="st158" width="0.5" height="114.6"/>
				
					<rect x="814.6" y="733.1" transform="matrix(0.6,-0.8,0.8,0.6,-314.4,906.6)" class="st159" width="0.5" height="114.6"/>
				
					<rect x="814.9" y="732.8" transform="matrix(0.6,-0.8,0.8,0.6,-314,906.7)" class="st160" width="0.5" height="114.6"/>
				
					<rect x="815.3" y="732.4" transform="matrix(0.6,-0.8,0.8,0.6,-313.6,906.8)" class="st161" width="0.5" height="114.6"/>
				
					<rect x="815.6" y="732" transform="matrix(0.6,-0.8,0.8,0.6,-313.2,906.9)" class="st162" width="0.5" height="114.6"/>
				
					<rect x="815.9" y="731.6" transform="matrix(0.6,-0.8,0.8,0.6,-312.8,907)" class="st163" width="0.5" height="114.6"/>
				
					<rect x="816.2" y="731.2" transform="matrix(0.6,-0.8,0.8,0.6,-312.4,907.1)" class="st164" width="0.5" height="114.6"/>
				
					<rect x="816.6" y="730.8" transform="matrix(0.6,-0.8,0.8,0.6,-311.9,907.2)" class="st165" width="0.5" height="114.6"/>
				
					<rect x="816.9" y="730.4" transform="matrix(0.6,-0.8,0.8,0.6,-311.5,907.3)" class="st166" width="0.5" height="114.6"/>
				
					<rect x="817.2" y="730" transform="matrix(0.6,-0.8,0.8,0.6,-311.1,907.5)" class="st167" width="0.5" height="114.6"/>
				
					<rect x="817.5" y="729.6" transform="matrix(0.6,-0.8,0.8,0.6,-310.7,907.6)" class="st168" width="0.5" height="114.6"/>
				
					<rect x="817.9" y="729.2" transform="matrix(0.6,-0.8,0.8,0.6,-310.3,907.7)" class="st169" width="0.5" height="114.6"/>
				
					<rect x="818.2" y="728.8" transform="matrix(0.6,-0.8,0.8,0.6,-309.9,907.8)" class="st170" width="0.5" height="114.6"/>
				
					<rect x="818.5" y="728.5" transform="matrix(0.6,-0.8,0.8,0.6,-309.4,907.9)" class="st171" width="0.5" height="114.6"/>
				
					<rect x="818.9" y="728.1" transform="matrix(0.6,-0.8,0.8,0.6,-309,908)" class="st172" width="0.5" height="114.6"/>
				
					<rect x="819.2" y="727.7" transform="matrix(0.6,-0.8,0.8,0.6,-308.6,908.1)" class="st173" width="0.5" height="114.6"/>
				
					<rect x="819.5" y="727.3" transform="matrix(0.6,-0.8,0.8,0.6,-308.2,908.2)" class="st174" width="0.5" height="114.6"/>
				
					<rect x="819.8" y="726.9" transform="matrix(0.6,-0.8,0.8,0.6,-307.8,908.3)" class="st175" width="0.5" height="114.6"/>
				<polygon class="st176" points="776.4,747.2 776.6,746.9 776.9,746.9 864.5,820.4 864.1,820.8"/>
				<polygon class="st177" points="777.6,746.9 864.8,820 864.5,820.4 776.9,746.9"/>
				<polygon class="st178" points="778.4,746.9 865.1,819.6 864.8,820 777.6,746.9"/>
				<polygon class="st179" points="779.2,746.9 865.5,819.3 865.1,819.6 778.4,746.9"/>
				<polygon class="st180" points="780,746.9 865.8,818.9 865.5,819.3 779.2,746.9"/>
				<polygon class="st181" points="780.8,746.9 866.1,818.5 865.8,818.9 780,746.9"/>
				<polygon class="st182" points="781.6,746.9 866.4,818.1 866.1,818.5 780.8,746.9"/>
				<polygon class="st183" points="782.4,746.9 866.8,817.7 866.4,818.1 781.6,746.9"/>
				<polygon class="st184" points="783.2,746.9 867.1,817.3 866.8,817.7 782.4,746.9"/>
				<polygon class="st185" points="784,746.9 867.4,816.9 867.1,817.3 783.2,746.9"/>
				<polygon class="st186" points="784.8,746.9 867.7,816.5 867.4,816.9 784,746.9"/>
				<polygon class="st187" points="785.6,746.9 868.1,816.1 867.7,816.5 784.8,746.9"/>
				<polygon class="st188" points="786.4,746.9 868.4,815.8 868.1,816.1 785.6,746.9"/>
				<polygon class="st189" points="787.2,746.9 868.7,815.4 868.4,815.8 786.4,746.9"/>
				<polygon class="st190" points="788,746.9 869,815 868.7,815.4 787.2,746.9"/>
				<polygon class="st191" points="788.8,746.9 869.4,814.6 869,815 788,746.9"/>
				<polygon class="st192" points="789.5,746.9 869.7,814.2 869.4,814.6 788.8,746.9"/>
				<polygon class="st193" points="790.3,746.9 870,813.8 869.7,814.2 789.5,746.9"/>
				<polygon class="st194" points="791.1,746.9 870.4,813.4 870,813.8 790.3,746.9"/>
				<polygon class="st195" points="791.9,746.9 870.7,813 870.4,813.4 791.1,746.9"/>
				<polygon class="st196" points="792.7,746.9 871,812.6 870.7,813 791.9,746.9"/>
				<polygon class="st197" points="793.5,746.9 871.4,812.2 871,812.6 792.7,746.9"/>
				<polygon class="st198" points="794.3,746.9 871.6,811.8 871.6,811.9 871.4,812.2 793.5,746.9"/>
				<polygon class="st199" points="795.1,746.9 871.6,811.1 871.6,811.8 794.3,746.9"/>
				<polygon class="st200" points="795.9,746.9 871.6,810.5 871.6,811.1 795.1,746.9"/>
				<polygon class="st201" points="796.7,746.9 871.6,809.8 871.6,810.5 795.9,746.9"/>
				<polygon class="st202" points="797.5,746.9 871.6,809.1 871.6,809.8 796.7,746.9"/>
				<polygon class="st203" points="798.3,746.9 871.6,808.5 871.6,809.1 797.5,746.9"/>
				<polygon class="st204" points="799,746.9 871.6,807.8 871.6,808.5 798.3,746.9"/>
				<polygon class="st205" points="799.8,746.9 871.6,807.1 871.6,807.8 799,746.9"/>
				<polygon class="st206" points="800.6,746.9 871.6,806.5 871.6,807.1 799.8,746.9"/>
				<polygon class="st207" points="801.4,746.9 871.6,805.8 871.6,806.5 800.6,746.9"/>
				<polygon class="st208" points="802.2,746.9 871.6,805.2 871.6,805.8 801.4,746.9"/>
				<polygon class="st209" points="803,746.9 871.6,804.5 871.6,805.2 802.2,746.9"/>
				<polygon class="st210" points="803.8,746.9 871.6,803.8 871.6,804.5 803,746.9"/>
				<polygon class="st210" points="871.6,803.8 803.8,746.9 871.6,746.9"/>
			</g>
		</g>
	</g>
	<g>
		<path class="st0" d="M 1581.8 758 v -285.8 h 123.8 c 29 0 53.4 4.8 73.2 14.4 c 19.8 9.6 34.9 25 45.3 46.1 c 10.3 21.2 15.5 49.2 15.5 84.1 c 0 49.1 -11.3 84.9 -34 107.4 c -22.6 22.5 -56 33.7 -100.1 33.7 H 1581.8 z M 1653.2 703 h 42.6 c 15.4 0 28.3 -2.3 38.8 -6.9 c 10.5 -4.6 18.5 -13.1 24 -25.5 c 5.5 -12.4 8.2 -30.3 8.2 -53.7 c 0 -23.7 -2.4 -41.9 -7.3 -54.8 c -4.9 -12.9 -12.6 -21.9 -23.1 -27.1 c -10.5 -5.2 -24 -7.8 -40.6 -7.8 h -42.6 V 703 z"/>
		<path class="st0" d="M 2142.7 762.5 c -46.5 0 -81.8 -11.8 -106.1 -35.5 c -24.3 -23.7 -36.4 -60.5 -36.4 -110.5 c 0 -53 12.1 -91 36.4 -114 c 24.3 -23.1 59.6 -34.6 106.1 -34.6 c 46.5 0 81.8 11.5 106.1 34.6 c 24.3 23.1 36.4 61.1 36.4 114 c 0 50 -12.1 86.8 -36.4 110.5 C 2224.5 750.6 2189.2 762.5 2142.7 762.5 z M 2142.7 701.7 c 24 0 41.5 -6.9 52.6 -20.6 s 16.6 -35.3 16.6 -64.6 c 0 -31.9 -5.5 -54.5 -16.6 -67.7 c -11.1 -13.2 -28.6 -19.8 -52.6 -19.8 c -24.3 0 -41.9 6.6 -53 19.8 c -11.1 13.2 -16.6 35.7 -16.6 67.7 c 0 29.3 5.5 50.8 16.6 64.6 C 2100.8 694.8 2118.5 701.7 2142.7 701.7 z"/>
		<path class="st0" d="M 2502.6 762.5 c -12.1 0 -23.7 -0.8 -34.8 -2.4 c -11.1 -1.6 -21.4 -4.2 -30.8 -7.8 v -59.9 c 7.1 3 15.1 5.3 24 6.9 c 8.9 1.6 17.9 2.4 27.1 2.4 c 17.4 0 29.8 -3.5 37.1 -10.4 c 7.3 -7 10.9 -18.6 10.9 -34.8 V 472.2 h 71.5 v 197.5 c 0 29.9 -8.9 52.8 -26.6 68.8 C 2563 754.5 2537 762.5 2502.6 762.5 z"/>
		<path class="st0" d="M 2917.1 762.5 c -46.5 0 -81.8 -11.8 -106.1 -35.5 c -24.3 -23.7 -36.4 -60.5 -36.4 -110.5 c 0 -53 12.1 -91 36.4 -114 c 24.3 -23.1 59.6 -34.6 106.1 -34.6 c 46.5 0 81.8 11.5 106.1 34.6 c 24.3 23.1 36.4 61.1 36.4 114 c 0 50 -12.1 86.8 -36.4 110.5 C 2998.9 750.6 2963.6 762.5 2917.1 762.5 z M 2917.1 701.7 c 24 0 41.5 -6.9 52.6 -20.6 s 16.6 -35.3 16.6 -64.6 c 0 -31.9 -5.5 -54.5 -16.6 -67.7 c -11.1 -13.2 -28.6 -19.8 -52.6 -19.8 c -24.3 0 -41.9 6.6 -53 19.8 c -11.1 13.2 -16.6 35.7 -16.6 67.7 c 0 29.3 5.5 50.8 16.6 64.6 C 2875.2 694.8 2892.9 701.7 2917.1 701.7 z"/>
		<path class="st0" d="M 3229.1 758 v -285.8 h 71.5 v 111 l 98.5 -111 h 81.7 l -102.1 116.7 l 108.3 169.1 h -76.3 l -76.3 -123.4 l -33.7 36.8 v 86.5 H 3229.1 z"/>
		<path class="st0" d="M 3761.2 762.5 c -46.5 0 -81.8 -11.8 -106.1 -35.5 c -24.3 -23.7 -36.4 -60.5 -36.4 -110.5 c 0 -53 12.1 -91 36.4 -114 c 24.3 -23.1 59.6 -34.6 106.1 -34.6 c 46.5 0 81.8 11.5 106.1 34.6 c 24.3 23.1 36.4 61.1 36.4 114 c 0 50 -12.1 86.8 -36.4 110.5 C 3843 750.6 3807.7 762.5 3761.2 762.5 z M 3761.2 701.7 c 24 0 41.5 -6.9 52.6 -20.6 s 16.6 -35.3 16.6 -64.6 c 0 -31.9 -5.5 -54.5 -16.6 -67.7 c -11.1 -13.2 -28.6 -19.8 -52.6 -19.8 c -24.3 0 -41.9 6.6 -53 19.8 c -11.1 13.2 -16.6 35.7 -16.6 67.7 c 0 29.3 5.5 50.8 16.6 64.6 C 3719.3 694.8 3737 701.7 3761.2 701.7 z"/>
	</g>
	<g>
		<path class="st0" d="M 1892.4 1048.5 l -28.9 -124.3 h 30.5 l 16.4 74.9 l 17 -57.3 v -17.6 h 25.5 l 21.4 75.1 l 17.2 -75.1 h 30.5 l -28.8 124.3 h -28.8 l -20.8 -71.8 l -22.4 71.8 H 1892.4 z"/>
		<path class="st0" d="M 2088.7 1050.5 c -16 0 -28.8 -4 -38.4 -11.9 s -14.5 -19.9 -14.5 -35.8 c 0 -14.5 4 -26.1 12 -34.7 c 8 -8.6 19.9 -12.9 35.9 -12.9 c 14.5 0 25.8 3.7 33.8 11.2 c 8 7.5 12 17.5 12 30.1 v 16.4 h -64.8 c 1.4 6 4.7 10.3 9.9 12.6 c 5.2 2.4 12.3 3.6 21.3 3.6 c 5 0 10.1 -0.5 15.3 -1.4 c 5.2 -0.9 9.6 -2.1 13 -3.5 v 20.3 c -4.4 2.1 -9.6 3.6 -15.6 4.5 C 2102.5 1050 2095.9 1050.5 2088.7 1050.5 z M 2064.5 994.9 h 37.8 v -4 c 0 -4.5 -1.4 -8.1 -4 -10.7 c -2.7 -2.6 -7.3 -4 -13.7 -4 c -7.5 0 -12.7 1.5 -15.6 4.5 C 2066 983.7 2064.5 988.4 2064.5 994.9 z"/>
		<path class="st0" d="M 2211.8 1048.5 l 47.5 -124.3 h 33.6 l 47.5 124.3 h -32.4 l -11.2 -28.2 h -41.5 l -11 28.2 H 2211.8 z M 2259.5 997.4 h 33 l -16.6 -43.2 L 2259.5 997.4 z"/>
		<path class="st0" d="M 2370.6 1048.5 v -91.5 h 29.5 l 1 8.5 c 4 -2.4 8.9 -4.7 14.9 -6.7 c 5.9 -2 11.8 -3.3 17.8 -3.8 v 23.4 c -3.4 0.4 -7 1 -11.1 1.8 c -4 0.8 -7.9 1.8 -11.6 3 c -3.7 1.2 -6.8 2.4 -9.4 3.7 v 61.6 H 2370.6 z"/>
		<path class="st0" d="M 2505.2 1050.5 c -16 0 -28.8 -4 -38.4 -11.9 s -14.5 -19.9 -14.5 -35.8 c 0 -14.5 4 -26.1 12 -34.7 c 8 -8.6 19.9 -12.9 35.9 -12.9 c 14.5 0 25.8 3.7 33.8 11.2 c 8 7.5 12 17.5 12 30.1 v 16.4 h -64.8 c 1.4 6 4.7 10.3 9.9 12.6 c 5.2 2.4 12.3 3.6 21.3 3.6 c 5 0 10.1 -0.5 15.3 -1.4 c 5.2 -0.9 9.6 -2.1 13 -3.5 v 20.3 c -4.4 2.1 -9.6 3.6 -15.6 4.5 C 2519 1050 2512.4 1050.5 2505.2 1050.5 z M 2481 994.9 h 37.8 v -4 c 0 -4.5 -1.4 -8.1 -4 -10.7 c -2.7 -2.6 -7.3 -4 -13.7 -4 c -7.5 0 -12.7 1.5 -15.6 4.5 C 2482.5 983.7 2481 988.4 2481 994.9 z"/>
		<path class="st0" d="M 2660.9 1048.5 V 948.2 h -36.5 v -23.9 h 104 v 23.9 h -36.5 v 100.4 H 2660.9 z"/>
		<path class="st0" d="M 2788.1 1050.5 c -17.6 0 -30.6 -4.1 -39 -12.3 c -8.4 -8.2 -12.5 -20 -12.5 -35.4 c 0 -15.3 4.2 -27.1 12.6 -35.3 c 8.4 -8.2 21.4 -12.3 38.9 -12.3 c 17.6 0 30.6 4.1 39.1 12.3 c 8.4 8.2 12.6 20 12.6 35.3 c 0 15.4 -4.2 27.3 -12.5 35.4 C 2818.9 1046.4 2805.8 1050.5 2788.1 1050.5 z M 2788.1 1026.1 c 7.2 0 12.3 -1.8 15.4 -5.4 c 3.1 -3.6 4.6 -9.6 4.6 -17.9 c 0 -8.4 -1.5 -14.3 -4.6 -17.9 c -3.1 -3.6 -8.2 -5.4 -15.4 -5.4 c -7.1 0 -12.2 1.8 -15.3 5.4 c -3.1 3.6 -4.6 9.6 -4.6 17.9 c 0 8.4 1.5 14.3 4.6 17.9 C 2775.9 1024.3 2781 1026.1 2788.1 1026.1 z"/>
		<path class="st0" d="M 2870.1 1048.5 v -91.5 h 28.8 l 1 8.1 c 4.1 -3 8.8 -5.4 13.9 -7.2 c 5.1 -1.9 10.7 -2.8 16.6 -2.8 c 6.2 0 11 0.9 14.5 2.8 c 3.5 1.9 6.2 4.5 8.1 7.8 c 4.3 -3.1 9 -5.6 14.4 -7.6 c 5.3 -2 11.6 -3 18.8 -3 c 10.7 0 18.5 2.8 23.6 8.3 c 5 5.5 7.5 14 7.5 25.3 v 59.8 h -30.7 v -56.2 c 0 -5 -1.1 -8.7 -3.2 -10.9 c -2.1 -2.3 -5.6 -3.4 -10.3 -3.4 c -3 0 -5.9 0.6 -8.7 1.8 c -2.8 1.2 -5.2 2.9 -7.1 5.1 c 0.3 1.4 0.4 2.8 0.5 4 c 0.1 1.3 0.1 2.8 0.1 4.6 v 54.8 h -28.9 v -56.5 c 0 -4.6 -0.8 -8.1 -2.4 -10.4 c -1.6 -2.3 -4.7 -3.5 -9.2 -3.5 c -3.2 0 -6.2 0.8 -9.1 2.5 c -2.8 1.7 -5.4 3.6 -7.7 5.8 v 62.1 H 2870.1 z"/>
		<path class="st0" d="M 3096.9 1050.5 c -17.6 0 -30.6 -4.1 -39 -12.3 c -8.4 -8.2 -12.5 -20 -12.5 -35.4 c 0 -15.3 4.2 -27.1 12.6 -35.3 c 8.4 -8.2 21.4 -12.3 38.9 -12.3 c 17.6 0 30.6 4.1 39.1 12.3 c 8.4 8.2 12.6 20 12.6 35.3 c 0 15.4 -4.2 27.3 -12.5 35.4 C 3127.7 1046.4 3114.7 1050.5 3096.9 1050.5 z M 3096.9 1026.1 c 7.2 0 12.3 -1.8 15.4 -5.4 c 3.1 -3.6 4.6 -9.6 4.6 -17.9 c 0 -8.4 -1.5 -14.3 -4.6 -17.9 c -3.1 -3.6 -8.2 -5.4 -15.4 -5.4 c -7.1 0 -12.2 1.8 -15.3 5.4 c -3.1 3.6 -4.6 9.6 -4.6 17.9 c 0 8.4 1.5 14.3 4.6 17.9 C 3084.7 1024.3 3089.8 1026.1 3096.9 1026.1 z"/>
		<path class="st0" d="M 3178.9 1048.5 v -91.5 h 29.5 l 1 8.5 c 4 -2.4 8.9 -4.7 14.9 -6.7 c 5.9 -2 11.8 -3.3 17.8 -3.8 v 23.4 c -3.4 0.4 -7 1 -11.1 1.8 c -4 0.8 -7.9 1.8 -11.6 3 c -3.7 1.2 -6.8 2.4 -9.4 3.7 v 61.6 H 3178.9 z"/>
		<path class="st0" d="M 3268.3 1048.5 v -91.5 h 29.5 l 1 8.5 c 4 -2.4 8.9 -4.7 14.9 -6.7 c 5.9 -2 11.8 -3.3 17.8 -3.8 v 23.4 c -3.4 0.4 -7 1 -11.1 1.8 c -4 0.8 -7.9 1.8 -11.6 3 c -3.7 1.2 -6.8 2.4 -9.4 3.7 v 61.6 H 3268.3 z"/>
		<path class="st0" d="M 3401.4 1050.5 c -17.6 0 -30.6 -4.1 -39 -12.3 c -8.4 -8.2 -12.5 -20 -12.5 -35.4 c 0 -15.3 4.2 -27.1 12.6 -35.3 c 8.4 -8.2 21.4 -12.3 38.9 -12.3 c 17.6 0 30.6 4.1 39.1 12.3 c 8.4 8.2 12.6 20 12.6 35.3 c 0 15.4 -4.2 27.3 -12.5 35.4 C 3432.3 1046.4 3419.2 1050.5 3401.4 1050.5 z M 3401.4 1026.1 c 7.2 0 12.3 -1.8 15.4 -5.4 c 3.1 -3.6 4.6 -9.6 4.6 -17.9 c 0 -8.4 -1.5 -14.3 -4.6 -17.9 c -3.1 -3.6 -8.2 -5.4 -15.4 -5.4 c -7.1 0 -12.2 1.8 -15.3 5.4 c -3.1 3.6 -4.6 9.6 -4.6 17.9 c 0 8.4 1.5 14.3 4.6 17.9 C 3389.3 1024.3 3394.4 1026.1 3401.4 1026.1 z"/>
		<path class="st0" d="M 3495 1048.5 l -24.1 -91.5 h 30.5 l 12.3 52.5 l 12.9 -40 v -12.6 h 23.4 l 15.1 52.5 l 12 -52.5 h 30.5 l -24.1 91.5 h -28.2 l -15.6 -47.5 l -16 47.5 H 3495 z"/>
	</g>
</g>
</svg>
